M48
; DRILL file KiCad 10.0.4 date 2026-07-06T12:25:11
; FORMAT={-:-/ absolute / metric / decimal}
; #@! TF.CreationDate,2026-07-06T12:25:11-05:00
; #@! TF.GenerationSoftware,Kicad,Pcbnew,10.0.4
; #@! TF.FileFunction,Plated,1,2,PTH
FMAT,2
METRIC
; #@! TA.AperFunction,Plated,PTH,ViaDrill
T1C0.300
; #@! TA.AperFunction,Plated,PTH,ComponentDrill
T2C0.600
; #@! TA.AperFunction,Plated,PTH,ComponentDrill
T3C0.750
; #@! TA.AperFunction,Plated,PTH,ComponentDrill
T4C0.950
; #@! TA.AperFunction,Plated,PTH,ComponentDrill
T5C1.000
%
G90
G05
T1
X123.23Y-102.984
X150.718Y-96.971
X151.512Y-102.021
X151.582Y-100.358
X156.073Y-104.305
X156.243Y-95.29
X157.112Y-108.555
X158.199Y-102.584
X158.457Y-94.784
X159.76Y-102.582
X160.178Y-107.629
X161.275Y-110.999
X162.843Y-103.3
X163.292Y-105.572
X164.058Y-119.0
X165.166Y-114.75
X167.101Y-107.288
X168.012Y-102.949
X168.37Y-106.266
X168.385Y-111.552
X169.24Y-108.555
X170.999Y-94.701
X172.077Y-108.879
X174.387Y-99.22
X175.937Y-115.536
X176.0Y-118.53
X176.266Y-100.207
X177.775Y-109.464
X178.903Y-100.131
X180.305Y-105.5
T3
X181.25Y-110.75
X181.25Y-112.75
T4
X123.5Y-96.0
X123.5Y-112.985
X126.0Y-96.0
X126.0Y-112.985
X128.5Y-96.0
X128.5Y-112.985
X131.0Y-96.0
X131.0Y-112.985
T5
X166.71Y-95.42
X166.71Y-97.96
X166.71Y-100.5
X169.25Y-95.42
X169.25Y-97.96
X169.25Y-100.5
T2
X177.82Y-94.18G85X178.92Y-94.18
G05
X177.82Y-102.82G85X178.92Y-102.82
G05
X182.25Y-94.18G85X182.85Y-94.18
G05
X182.25Y-102.82G85X182.85Y-102.82
G05
M30
