%TF.GenerationSoftware,KiCad,Pcbnew,10.0.4*%
%TF.CreationDate,2026-07-06T12:25:11-05:00*%
%TF.ProjectId,OpenWatts,4f70656e-5761-4747-9473-2e6b69636164,rev?*%
%TF.SameCoordinates,Original*%
%TF.FileFunction,Legend,Top*%
%TF.FilePolarity,Positive*%
%FSLAX46Y46*%
G04 Gerber Fmt 4.6, Leading zero omitted, Abs format (unit mm)*
G04 Created by KiCad (PCBNEW 10.0.4) date 2026-07-06 12:25:11*
%MOMM*%
%LPD*%
G01*
G04 APERTURE LIST*
G04 Aperture macros list*
%AMRoundRect*
0 Rectangle with rounded corners*
0 $1 Rounding radius*
0 $2 $3 $4 $5 $6 $7 $8 $9 X,Y pos of 4 corners*
0 Add a 4 corners polygon primitive as box body*
4,1,4,$2,$3,$4,$5,$6,$7,$8,$9,$2,$3,0*
0 Add four circle primitives for the rounded corners*
1,1,$1+$1,$2,$3*
1,1,$1+$1,$4,$5*
1,1,$1+$1,$6,$7*
1,1,$1+$1,$8,$9*
0 Add four rect primitives between the rounded corners*
20,1,$1+$1,$2,$3,$4,$5,0*
20,1,$1+$1,$4,$5,$6,$7,0*
20,1,$1+$1,$6,$7,$8,$9,0*
20,1,$1+$1,$8,$9,$2,$3,0*%
%AMFreePoly0*
4,1,6,0.725000,-0.725000,-0.725000,-0.725000,-0.725000,0.125000,-0.125000,0.725000,0.725000,0.725000,0.725000,-0.725000,0.725000,-0.725000,$1*%
G04 Aperture macros list end*
%ADD10C,0.150000*%
%ADD11C,0.187500*%
%ADD12C,0.300000*%
%ADD13C,0.120000*%
%ADD14C,0.000000*%
%ADD15RoundRect,0.200000X0.200000X0.275000X-0.200000X0.275000X-0.200000X-0.275000X0.200000X-0.275000X0*%
%ADD16RoundRect,0.150000X-0.150000X0.825000X-0.150000X-0.825000X0.150000X-0.825000X0.150000X0.825000X0*%
%ADD17RoundRect,0.150000X0.150000X-0.512500X0.150000X0.512500X-0.150000X0.512500X-0.150000X-0.512500X0*%
%ADD18RoundRect,0.225000X-0.225000X-0.250000X0.225000X-0.250000X0.225000X0.250000X-0.225000X0.250000X0*%
%ADD19RoundRect,0.250000X-0.600000X-0.725000X0.600000X-0.725000X0.600000X0.725000X-0.600000X0.725000X0*%
%ADD20O,1.700000X1.950000*%
%ADD21RoundRect,0.225000X-0.250000X0.225000X-0.250000X-0.225000X0.250000X-0.225000X0.250000X0.225000X0*%
%ADD22C,2.700000*%
%ADD23RoundRect,0.087500X-0.225000X-0.087500X0.225000X-0.087500X0.225000X0.087500X-0.225000X0.087500X0*%
%ADD24RoundRect,0.087500X-0.087500X-0.225000X0.087500X-0.225000X0.087500X0.225000X-0.087500X0.225000X0*%
%ADD25R,0.800000X0.400000*%
%ADD26R,0.400000X0.800000*%
%ADD27FreePoly0,0.000000*%
%ADD28R,1.450000X1.450000*%
%ADD29R,0.700000X0.700000*%
%ADD30RoundRect,0.250000X-0.475000X-0.250000X0.475000X-0.250000X0.475000X0.250000X-0.475000X0.250000X0*%
%ADD31RoundRect,0.250000X-0.625000X0.350000X-0.625000X-0.350000X0.625000X-0.350000X0.625000X0.350000X0*%
%ADD32O,1.750000X1.200000*%
%ADD33RoundRect,0.218750X0.218750X0.256250X-0.218750X0.256250X-0.218750X-0.256250X0.218750X-0.256250X0*%
%ADD34RoundRect,0.200000X-0.200000X-0.275000X0.200000X-0.275000X0.200000X0.275000X-0.200000X0.275000X0*%
%ADD35R,1.700000X1.700000*%
%ADD36C,1.700000*%
%ADD37RoundRect,0.250000X0.600000X0.725000X-0.600000X0.725000X-0.600000X-0.725000X0.600000X-0.725000X0*%
%ADD38RoundRect,0.225000X0.250000X-0.225000X0.250000X0.225000X-0.250000X0.225000X-0.250000X-0.225000X0*%
%ADD39C,0.650000*%
%ADD40RoundRect,0.150000X0.575000X-0.150000X0.575000X0.150000X-0.575000X0.150000X-0.575000X-0.150000X0*%
%ADD41RoundRect,0.075000X0.650000X-0.075000X0.650000X0.075000X-0.650000X0.075000X-0.650000X-0.075000X0*%
%ADD42O,2.100000X1.000000*%
%ADD43O,1.600000X1.000000*%
%ADD44RoundRect,0.150000X-0.150000X0.512500X-0.150000X-0.512500X0.150000X-0.512500X0.150000X0.512500X0*%
%ADD45RoundRect,0.200000X0.275000X-0.200000X0.275000X0.200000X-0.275000X0.200000X-0.275000X-0.200000X0*%
%ADD46RoundRect,0.200000X-0.275000X0.200000X-0.275000X-0.200000X0.275000X-0.200000X0.275000X0.200000X0*%
G04 APERTURE END LIST*
D10*
X162955826Y-121051305D02*
X162705826Y-120694162D01*
X162527255Y-121051305D02*
X162527255Y-120301305D01*
X162527255Y-120301305D02*
X162812969Y-120301305D01*
X162812969Y-120301305D02*
X162884398Y-120337019D01*
X162884398Y-120337019D02*
X162920112Y-120372733D01*
X162920112Y-120372733D02*
X162955826Y-120444162D01*
X162955826Y-120444162D02*
X162955826Y-120551305D01*
X162955826Y-120551305D02*
X162920112Y-120622733D01*
X162920112Y-120622733D02*
X162884398Y-120658448D01*
X162884398Y-120658448D02*
X162812969Y-120694162D01*
X162812969Y-120694162D02*
X162527255Y-120694162D01*
X163277255Y-120658448D02*
X163527255Y-120658448D01*
X163634398Y-121051305D02*
X163277255Y-121051305D01*
X163277255Y-121051305D02*
X163277255Y-120301305D01*
X163277255Y-120301305D02*
X163634398Y-120301305D01*
X163920112Y-121015591D02*
X164027255Y-121051305D01*
X164027255Y-121051305D02*
X164205826Y-121051305D01*
X164205826Y-121051305D02*
X164277255Y-121015591D01*
X164277255Y-121015591D02*
X164312969Y-120979876D01*
X164312969Y-120979876D02*
X164348683Y-120908448D01*
X164348683Y-120908448D02*
X164348683Y-120837019D01*
X164348683Y-120837019D02*
X164312969Y-120765591D01*
X164312969Y-120765591D02*
X164277255Y-120729876D01*
X164277255Y-120729876D02*
X164205826Y-120694162D01*
X164205826Y-120694162D02*
X164062969Y-120658448D01*
X164062969Y-120658448D02*
X163991540Y-120622733D01*
X163991540Y-120622733D02*
X163955826Y-120587019D01*
X163955826Y-120587019D02*
X163920112Y-120515591D01*
X163920112Y-120515591D02*
X163920112Y-120444162D01*
X163920112Y-120444162D02*
X163955826Y-120372733D01*
X163955826Y-120372733D02*
X163991540Y-120337019D01*
X163991540Y-120337019D02*
X164062969Y-120301305D01*
X164062969Y-120301305D02*
X164241540Y-120301305D01*
X164241540Y-120301305D02*
X164348683Y-120337019D01*
X164670112Y-120658448D02*
X164920112Y-120658448D01*
X165027255Y-121051305D02*
X164670112Y-121051305D01*
X164670112Y-121051305D02*
X164670112Y-120301305D01*
X164670112Y-120301305D02*
X165027255Y-120301305D01*
X165241540Y-120301305D02*
X165670112Y-120301305D01*
X165455826Y-121051305D02*
X165455826Y-120301305D01*
X163027255Y-110446307D02*
X163134398Y-110482021D01*
X163134398Y-110482021D02*
X163170112Y-110517735D01*
X163170112Y-110517735D02*
X163205826Y-110589164D01*
X163205826Y-110589164D02*
X163205826Y-110696307D01*
X163205826Y-110696307D02*
X163170112Y-110767735D01*
X163170112Y-110767735D02*
X163134398Y-110803450D01*
X163134398Y-110803450D02*
X163062969Y-110839164D01*
X163062969Y-110839164D02*
X162777255Y-110839164D01*
X162777255Y-110839164D02*
X162777255Y-110089164D01*
X162777255Y-110089164D02*
X163027255Y-110089164D01*
X163027255Y-110089164D02*
X163098684Y-110124878D01*
X163098684Y-110124878D02*
X163134398Y-110160592D01*
X163134398Y-110160592D02*
X163170112Y-110232021D01*
X163170112Y-110232021D02*
X163170112Y-110303450D01*
X163170112Y-110303450D02*
X163134398Y-110374878D01*
X163134398Y-110374878D02*
X163098684Y-110410592D01*
X163098684Y-110410592D02*
X163027255Y-110446307D01*
X163027255Y-110446307D02*
X162777255Y-110446307D01*
X163670112Y-110089164D02*
X163812969Y-110089164D01*
X163812969Y-110089164D02*
X163884398Y-110124878D01*
X163884398Y-110124878D02*
X163955826Y-110196307D01*
X163955826Y-110196307D02*
X163991541Y-110339164D01*
X163991541Y-110339164D02*
X163991541Y-110589164D01*
X163991541Y-110589164D02*
X163955826Y-110732021D01*
X163955826Y-110732021D02*
X163884398Y-110803450D01*
X163884398Y-110803450D02*
X163812969Y-110839164D01*
X163812969Y-110839164D02*
X163670112Y-110839164D01*
X163670112Y-110839164D02*
X163598684Y-110803450D01*
X163598684Y-110803450D02*
X163527255Y-110732021D01*
X163527255Y-110732021D02*
X163491541Y-110589164D01*
X163491541Y-110589164D02*
X163491541Y-110339164D01*
X163491541Y-110339164D02*
X163527255Y-110196307D01*
X163527255Y-110196307D02*
X163598684Y-110124878D01*
X163598684Y-110124878D02*
X163670112Y-110089164D01*
X164455826Y-110089164D02*
X164598683Y-110089164D01*
X164598683Y-110089164D02*
X164670112Y-110124878D01*
X164670112Y-110124878D02*
X164741540Y-110196307D01*
X164741540Y-110196307D02*
X164777255Y-110339164D01*
X164777255Y-110339164D02*
X164777255Y-110589164D01*
X164777255Y-110589164D02*
X164741540Y-110732021D01*
X164741540Y-110732021D02*
X164670112Y-110803450D01*
X164670112Y-110803450D02*
X164598683Y-110839164D01*
X164598683Y-110839164D02*
X164455826Y-110839164D01*
X164455826Y-110839164D02*
X164384398Y-110803450D01*
X164384398Y-110803450D02*
X164312969Y-110732021D01*
X164312969Y-110732021D02*
X164277255Y-110589164D01*
X164277255Y-110589164D02*
X164277255Y-110339164D01*
X164277255Y-110339164D02*
X164312969Y-110196307D01*
X164312969Y-110196307D02*
X164384398Y-110124878D01*
X164384398Y-110124878D02*
X164455826Y-110089164D01*
X164991540Y-110089164D02*
X165420112Y-110089164D01*
X165205826Y-110839164D02*
X165205826Y-110089164D01*
X117517857Y-94381706D02*
X117946429Y-94381706D01*
X117732143Y-95131706D02*
X117732143Y-94381706D01*
X118339286Y-94381706D02*
X118482143Y-94381706D01*
X118482143Y-94381706D02*
X118553572Y-94417420D01*
X118553572Y-94417420D02*
X118625000Y-94488849D01*
X118625000Y-94488849D02*
X118660715Y-94631706D01*
X118660715Y-94631706D02*
X118660715Y-94881706D01*
X118660715Y-94881706D02*
X118625000Y-95024563D01*
X118625000Y-95024563D02*
X118553572Y-95095992D01*
X118553572Y-95095992D02*
X118482143Y-95131706D01*
X118482143Y-95131706D02*
X118339286Y-95131706D01*
X118339286Y-95131706D02*
X118267858Y-95095992D01*
X118267858Y-95095992D02*
X118196429Y-95024563D01*
X118196429Y-95024563D02*
X118160715Y-94881706D01*
X118160715Y-94881706D02*
X118160715Y-94631706D01*
X118160715Y-94631706D02*
X118196429Y-94488849D01*
X118196429Y-94488849D02*
X118267858Y-94417420D01*
X118267858Y-94417420D02*
X118339286Y-94381706D01*
X118982143Y-95131706D02*
X118982143Y-94381706D01*
X118982143Y-94381706D02*
X119267857Y-94381706D01*
X119267857Y-94381706D02*
X119339286Y-94417420D01*
X119339286Y-94417420D02*
X119375000Y-94453134D01*
X119375000Y-94453134D02*
X119410714Y-94524563D01*
X119410714Y-94524563D02*
X119410714Y-94631706D01*
X119410714Y-94631706D02*
X119375000Y-94703134D01*
X119375000Y-94703134D02*
X119339286Y-94738849D01*
X119339286Y-94738849D02*
X119267857Y-94774563D01*
X119267857Y-94774563D02*
X118982143Y-94774563D01*
X116732143Y-96303450D02*
X116839286Y-96339164D01*
X116839286Y-96339164D02*
X117017857Y-96339164D01*
X117017857Y-96339164D02*
X117089286Y-96303450D01*
X117089286Y-96303450D02*
X117125000Y-96267735D01*
X117125000Y-96267735D02*
X117160714Y-96196307D01*
X117160714Y-96196307D02*
X117160714Y-96124878D01*
X117160714Y-96124878D02*
X117125000Y-96053450D01*
X117125000Y-96053450D02*
X117089286Y-96017735D01*
X117089286Y-96017735D02*
X117017857Y-95982021D01*
X117017857Y-95982021D02*
X116875000Y-95946307D01*
X116875000Y-95946307D02*
X116803571Y-95910592D01*
X116803571Y-95910592D02*
X116767857Y-95874878D01*
X116767857Y-95874878D02*
X116732143Y-95803450D01*
X116732143Y-95803450D02*
X116732143Y-95732021D01*
X116732143Y-95732021D02*
X116767857Y-95660592D01*
X116767857Y-95660592D02*
X116803571Y-95624878D01*
X116803571Y-95624878D02*
X116875000Y-95589164D01*
X116875000Y-95589164D02*
X117053571Y-95589164D01*
X117053571Y-95589164D02*
X117160714Y-95624878D01*
X117375000Y-95589164D02*
X117803572Y-95589164D01*
X117589286Y-96339164D02*
X117589286Y-95589164D01*
X118482143Y-96339164D02*
X118232143Y-95982021D01*
X118053572Y-96339164D02*
X118053572Y-95589164D01*
X118053572Y-95589164D02*
X118339286Y-95589164D01*
X118339286Y-95589164D02*
X118410715Y-95624878D01*
X118410715Y-95624878D02*
X118446429Y-95660592D01*
X118446429Y-95660592D02*
X118482143Y-95732021D01*
X118482143Y-95732021D02*
X118482143Y-95839164D01*
X118482143Y-95839164D02*
X118446429Y-95910592D01*
X118446429Y-95910592D02*
X118410715Y-95946307D01*
X118410715Y-95946307D02*
X118339286Y-95982021D01*
X118339286Y-95982021D02*
X118053572Y-95982021D01*
X118767858Y-96124878D02*
X119125001Y-96124878D01*
X118696429Y-96339164D02*
X118946429Y-95589164D01*
X118946429Y-95589164D02*
X119196429Y-96339164D01*
X119446429Y-96339164D02*
X119446429Y-95589164D01*
X119803572Y-96339164D02*
X119803572Y-95589164D01*
X119803572Y-95589164D02*
X120232143Y-96339164D01*
X120232143Y-96339164D02*
X120232143Y-95589164D01*
X117428571Y-97546622D02*
X117428571Y-96796622D01*
X117428571Y-96796622D02*
X117714285Y-96796622D01*
X117714285Y-96796622D02*
X117785714Y-96832336D01*
X117785714Y-96832336D02*
X117821428Y-96868050D01*
X117821428Y-96868050D02*
X117857142Y-96939479D01*
X117857142Y-96939479D02*
X117857142Y-97046622D01*
X117857142Y-97046622D02*
X117821428Y-97118050D01*
X117821428Y-97118050D02*
X117785714Y-97153765D01*
X117785714Y-97153765D02*
X117714285Y-97189479D01*
X117714285Y-97189479D02*
X117428571Y-97189479D01*
X118142857Y-97332336D02*
X118500000Y-97332336D01*
X118071428Y-97546622D02*
X118321428Y-96796622D01*
X118321428Y-96796622D02*
X118571428Y-97546622D01*
X118821428Y-97546622D02*
X118821428Y-96796622D01*
X119607142Y-97546622D02*
X119357142Y-97189479D01*
X119178571Y-97546622D02*
X119178571Y-96796622D01*
X119178571Y-96796622D02*
X119464285Y-96796622D01*
X119464285Y-96796622D02*
X119535714Y-96832336D01*
X119535714Y-96832336D02*
X119571428Y-96868050D01*
X119571428Y-96868050D02*
X119607142Y-96939479D01*
X119607142Y-96939479D02*
X119607142Y-97046622D01*
X119607142Y-97046622D02*
X119571428Y-97118050D01*
X119571428Y-97118050D02*
X119535714Y-97153765D01*
X119535714Y-97153765D02*
X119464285Y-97189479D01*
X119464285Y-97189479D02*
X119178571Y-97189479D01*
X116767857Y-111738849D02*
X116875000Y-111774563D01*
X116875000Y-111774563D02*
X116910714Y-111810277D01*
X116910714Y-111810277D02*
X116946428Y-111881706D01*
X116946428Y-111881706D02*
X116946428Y-111988849D01*
X116946428Y-111988849D02*
X116910714Y-112060277D01*
X116910714Y-112060277D02*
X116875000Y-112095992D01*
X116875000Y-112095992D02*
X116803571Y-112131706D01*
X116803571Y-112131706D02*
X116517857Y-112131706D01*
X116517857Y-112131706D02*
X116517857Y-111381706D01*
X116517857Y-111381706D02*
X116767857Y-111381706D01*
X116767857Y-111381706D02*
X116839286Y-111417420D01*
X116839286Y-111417420D02*
X116875000Y-111453134D01*
X116875000Y-111453134D02*
X116910714Y-111524563D01*
X116910714Y-111524563D02*
X116910714Y-111595992D01*
X116910714Y-111595992D02*
X116875000Y-111667420D01*
X116875000Y-111667420D02*
X116839286Y-111703134D01*
X116839286Y-111703134D02*
X116767857Y-111738849D01*
X116767857Y-111738849D02*
X116517857Y-111738849D01*
X117410714Y-111381706D02*
X117553571Y-111381706D01*
X117553571Y-111381706D02*
X117625000Y-111417420D01*
X117625000Y-111417420D02*
X117696428Y-111488849D01*
X117696428Y-111488849D02*
X117732143Y-111631706D01*
X117732143Y-111631706D02*
X117732143Y-111881706D01*
X117732143Y-111881706D02*
X117696428Y-112024563D01*
X117696428Y-112024563D02*
X117625000Y-112095992D01*
X117625000Y-112095992D02*
X117553571Y-112131706D01*
X117553571Y-112131706D02*
X117410714Y-112131706D01*
X117410714Y-112131706D02*
X117339286Y-112095992D01*
X117339286Y-112095992D02*
X117267857Y-112024563D01*
X117267857Y-112024563D02*
X117232143Y-111881706D01*
X117232143Y-111881706D02*
X117232143Y-111631706D01*
X117232143Y-111631706D02*
X117267857Y-111488849D01*
X117267857Y-111488849D02*
X117339286Y-111417420D01*
X117339286Y-111417420D02*
X117410714Y-111381706D01*
X117946428Y-111381706D02*
X118375000Y-111381706D01*
X118160714Y-112131706D02*
X118160714Y-111381706D01*
X118517857Y-111381706D02*
X118946429Y-111381706D01*
X118732143Y-112131706D02*
X118732143Y-111381706D01*
X119339286Y-111381706D02*
X119482143Y-111381706D01*
X119482143Y-111381706D02*
X119553572Y-111417420D01*
X119553572Y-111417420D02*
X119625000Y-111488849D01*
X119625000Y-111488849D02*
X119660715Y-111631706D01*
X119660715Y-111631706D02*
X119660715Y-111881706D01*
X119660715Y-111881706D02*
X119625000Y-112024563D01*
X119625000Y-112024563D02*
X119553572Y-112095992D01*
X119553572Y-112095992D02*
X119482143Y-112131706D01*
X119482143Y-112131706D02*
X119339286Y-112131706D01*
X119339286Y-112131706D02*
X119267858Y-112095992D01*
X119267858Y-112095992D02*
X119196429Y-112024563D01*
X119196429Y-112024563D02*
X119160715Y-111881706D01*
X119160715Y-111881706D02*
X119160715Y-111631706D01*
X119160715Y-111631706D02*
X119196429Y-111488849D01*
X119196429Y-111488849D02*
X119267858Y-111417420D01*
X119267858Y-111417420D02*
X119339286Y-111381706D01*
X119982143Y-112131706D02*
X119982143Y-111381706D01*
X119982143Y-111381706D02*
X120232143Y-111917420D01*
X120232143Y-111917420D02*
X120482143Y-111381706D01*
X120482143Y-111381706D02*
X120482143Y-112131706D01*
X116732143Y-113303450D02*
X116839286Y-113339164D01*
X116839286Y-113339164D02*
X117017857Y-113339164D01*
X117017857Y-113339164D02*
X117089286Y-113303450D01*
X117089286Y-113303450D02*
X117125000Y-113267735D01*
X117125000Y-113267735D02*
X117160714Y-113196307D01*
X117160714Y-113196307D02*
X117160714Y-113124878D01*
X117160714Y-113124878D02*
X117125000Y-113053450D01*
X117125000Y-113053450D02*
X117089286Y-113017735D01*
X117089286Y-113017735D02*
X117017857Y-112982021D01*
X117017857Y-112982021D02*
X116875000Y-112946307D01*
X116875000Y-112946307D02*
X116803571Y-112910592D01*
X116803571Y-112910592D02*
X116767857Y-112874878D01*
X116767857Y-112874878D02*
X116732143Y-112803450D01*
X116732143Y-112803450D02*
X116732143Y-112732021D01*
X116732143Y-112732021D02*
X116767857Y-112660592D01*
X116767857Y-112660592D02*
X116803571Y-112624878D01*
X116803571Y-112624878D02*
X116875000Y-112589164D01*
X116875000Y-112589164D02*
X117053571Y-112589164D01*
X117053571Y-112589164D02*
X117160714Y-112624878D01*
X117375000Y-112589164D02*
X117803572Y-112589164D01*
X117589286Y-113339164D02*
X117589286Y-112589164D01*
X118482143Y-113339164D02*
X118232143Y-112982021D01*
X118053572Y-113339164D02*
X118053572Y-112589164D01*
X118053572Y-112589164D02*
X118339286Y-112589164D01*
X118339286Y-112589164D02*
X118410715Y-112624878D01*
X118410715Y-112624878D02*
X118446429Y-112660592D01*
X118446429Y-112660592D02*
X118482143Y-112732021D01*
X118482143Y-112732021D02*
X118482143Y-112839164D01*
X118482143Y-112839164D02*
X118446429Y-112910592D01*
X118446429Y-112910592D02*
X118410715Y-112946307D01*
X118410715Y-112946307D02*
X118339286Y-112982021D01*
X118339286Y-112982021D02*
X118053572Y-112982021D01*
X118767858Y-113124878D02*
X119125001Y-113124878D01*
X118696429Y-113339164D02*
X118946429Y-112589164D01*
X118946429Y-112589164D02*
X119196429Y-113339164D01*
X119446429Y-113339164D02*
X119446429Y-112589164D01*
X119803572Y-113339164D02*
X119803572Y-112589164D01*
X119803572Y-112589164D02*
X120232143Y-113339164D01*
X120232143Y-113339164D02*
X120232143Y-112589164D01*
X117428571Y-114546622D02*
X117428571Y-113796622D01*
X117428571Y-113796622D02*
X117714285Y-113796622D01*
X117714285Y-113796622D02*
X117785714Y-113832336D01*
X117785714Y-113832336D02*
X117821428Y-113868050D01*
X117821428Y-113868050D02*
X117857142Y-113939479D01*
X117857142Y-113939479D02*
X117857142Y-114046622D01*
X117857142Y-114046622D02*
X117821428Y-114118050D01*
X117821428Y-114118050D02*
X117785714Y-114153765D01*
X117785714Y-114153765D02*
X117714285Y-114189479D01*
X117714285Y-114189479D02*
X117428571Y-114189479D01*
X118142857Y-114332336D02*
X118500000Y-114332336D01*
X118071428Y-114546622D02*
X118321428Y-113796622D01*
X118321428Y-113796622D02*
X118571428Y-114546622D01*
X118821428Y-114546622D02*
X118821428Y-113796622D01*
X119607142Y-114546622D02*
X119357142Y-114189479D01*
X119178571Y-114546622D02*
X119178571Y-113796622D01*
X119178571Y-113796622D02*
X119464285Y-113796622D01*
X119464285Y-113796622D02*
X119535714Y-113832336D01*
X119535714Y-113832336D02*
X119571428Y-113868050D01*
X119571428Y-113868050D02*
X119607142Y-113939479D01*
X119607142Y-113939479D02*
X119607142Y-114046622D01*
X119607142Y-114046622D02*
X119571428Y-114118050D01*
X119571428Y-114118050D02*
X119535714Y-114153765D01*
X119535714Y-114153765D02*
X119464285Y-114189479D01*
X119464285Y-114189479D02*
X119178571Y-114189479D01*
X171339164Y-95829887D02*
X171339164Y-95401316D01*
X172089164Y-95615601D02*
X171339164Y-95615601D01*
X171339164Y-95222744D02*
X172089164Y-94722744D01*
X171339164Y-94722744D02*
X172089164Y-95222744D01*
X172089164Y-98044173D02*
X171732021Y-98294173D01*
X172089164Y-98472744D02*
X171339164Y-98472744D01*
X171339164Y-98472744D02*
X171339164Y-98187030D01*
X171339164Y-98187030D02*
X171374878Y-98115601D01*
X171374878Y-98115601D02*
X171410592Y-98079887D01*
X171410592Y-98079887D02*
X171482021Y-98044173D01*
X171482021Y-98044173D02*
X171589164Y-98044173D01*
X171589164Y-98044173D02*
X171660592Y-98079887D01*
X171660592Y-98079887D02*
X171696307Y-98115601D01*
X171696307Y-98115601D02*
X171732021Y-98187030D01*
X171732021Y-98187030D02*
X171732021Y-98472744D01*
X171339164Y-97794173D02*
X172089164Y-97294173D01*
X171339164Y-97294173D02*
X172089164Y-97794173D01*
X171696307Y-101472744D02*
X171732021Y-101365601D01*
X171732021Y-101365601D02*
X171767735Y-101329887D01*
X171767735Y-101329887D02*
X171839164Y-101294173D01*
X171839164Y-101294173D02*
X171946307Y-101294173D01*
X171946307Y-101294173D02*
X172017735Y-101329887D01*
X172017735Y-101329887D02*
X172053450Y-101365601D01*
X172053450Y-101365601D02*
X172089164Y-101437030D01*
X172089164Y-101437030D02*
X172089164Y-101722744D01*
X172089164Y-101722744D02*
X171339164Y-101722744D01*
X171339164Y-101722744D02*
X171339164Y-101472744D01*
X171339164Y-101472744D02*
X171374878Y-101401316D01*
X171374878Y-101401316D02*
X171410592Y-101365601D01*
X171410592Y-101365601D02*
X171482021Y-101329887D01*
X171482021Y-101329887D02*
X171553450Y-101329887D01*
X171553450Y-101329887D02*
X171624878Y-101365601D01*
X171624878Y-101365601D02*
X171660592Y-101401316D01*
X171660592Y-101401316D02*
X171696307Y-101472744D01*
X171696307Y-101472744D02*
X171696307Y-101722744D01*
X171339164Y-100829887D02*
X171339164Y-100687030D01*
X171339164Y-100687030D02*
X171374878Y-100615601D01*
X171374878Y-100615601D02*
X171446307Y-100544173D01*
X171446307Y-100544173D02*
X171589164Y-100508458D01*
X171589164Y-100508458D02*
X171839164Y-100508458D01*
X171839164Y-100508458D02*
X171982021Y-100544173D01*
X171982021Y-100544173D02*
X172053450Y-100615601D01*
X172053450Y-100615601D02*
X172089164Y-100687030D01*
X172089164Y-100687030D02*
X172089164Y-100829887D01*
X172089164Y-100829887D02*
X172053450Y-100901316D01*
X172053450Y-100901316D02*
X171982021Y-100972744D01*
X171982021Y-100972744D02*
X171839164Y-101008458D01*
X171839164Y-101008458D02*
X171589164Y-101008458D01*
X171589164Y-101008458D02*
X171446307Y-100972744D01*
X171446307Y-100972744D02*
X171374878Y-100901316D01*
X171374878Y-100901316D02*
X171339164Y-100829887D01*
X171339164Y-100044173D02*
X171339164Y-99901316D01*
X171339164Y-99901316D02*
X171374878Y-99829887D01*
X171374878Y-99829887D02*
X171446307Y-99758459D01*
X171446307Y-99758459D02*
X171589164Y-99722744D01*
X171589164Y-99722744D02*
X171839164Y-99722744D01*
X171839164Y-99722744D02*
X171982021Y-99758459D01*
X171982021Y-99758459D02*
X172053450Y-99829887D01*
X172053450Y-99829887D02*
X172089164Y-99901316D01*
X172089164Y-99901316D02*
X172089164Y-100044173D01*
X172089164Y-100044173D02*
X172053450Y-100115602D01*
X172053450Y-100115602D02*
X171982021Y-100187030D01*
X171982021Y-100187030D02*
X171839164Y-100222744D01*
X171839164Y-100222744D02*
X171589164Y-100222744D01*
X171589164Y-100222744D02*
X171446307Y-100187030D01*
X171446307Y-100187030D02*
X171374878Y-100115602D01*
X171374878Y-100115602D02*
X171339164Y-100044173D01*
X171339164Y-99508459D02*
X171339164Y-99079888D01*
X172089164Y-99294173D02*
X171339164Y-99294173D01*
X164303450Y-96455826D02*
X164303450Y-95884398D01*
X164589164Y-96170112D02*
X164017735Y-96170112D01*
X163839164Y-95598684D02*
X163839164Y-95134398D01*
X163839164Y-95134398D02*
X164124878Y-95384398D01*
X164124878Y-95384398D02*
X164124878Y-95277255D01*
X164124878Y-95277255D02*
X164160592Y-95205827D01*
X164160592Y-95205827D02*
X164196307Y-95170112D01*
X164196307Y-95170112D02*
X164267735Y-95134398D01*
X164267735Y-95134398D02*
X164446307Y-95134398D01*
X164446307Y-95134398D02*
X164517735Y-95170112D01*
X164517735Y-95170112D02*
X164553450Y-95205827D01*
X164553450Y-95205827D02*
X164589164Y-95277255D01*
X164589164Y-95277255D02*
X164589164Y-95491541D01*
X164589164Y-95491541D02*
X164553450Y-95562969D01*
X164553450Y-95562969D02*
X164517735Y-95598684D01*
X163839164Y-94920112D02*
X164589164Y-94670112D01*
X164589164Y-94670112D02*
X163839164Y-94420112D01*
X163874878Y-98562969D02*
X163839164Y-98634398D01*
X163839164Y-98634398D02*
X163839164Y-98741540D01*
X163839164Y-98741540D02*
X163874878Y-98848683D01*
X163874878Y-98848683D02*
X163946307Y-98920112D01*
X163946307Y-98920112D02*
X164017735Y-98955826D01*
X164017735Y-98955826D02*
X164160592Y-98991540D01*
X164160592Y-98991540D02*
X164267735Y-98991540D01*
X164267735Y-98991540D02*
X164410592Y-98955826D01*
X164410592Y-98955826D02*
X164482021Y-98920112D01*
X164482021Y-98920112D02*
X164553450Y-98848683D01*
X164553450Y-98848683D02*
X164589164Y-98741540D01*
X164589164Y-98741540D02*
X164589164Y-98670112D01*
X164589164Y-98670112D02*
X164553450Y-98562969D01*
X164553450Y-98562969D02*
X164517735Y-98527255D01*
X164517735Y-98527255D02*
X164267735Y-98527255D01*
X164267735Y-98527255D02*
X164267735Y-98670112D01*
X164589164Y-98205826D02*
X163839164Y-98205826D01*
X163839164Y-98205826D02*
X164589164Y-97777255D01*
X164589164Y-97777255D02*
X163839164Y-97777255D01*
X164589164Y-97420112D02*
X163839164Y-97420112D01*
X163839164Y-97420112D02*
X163839164Y-97241541D01*
X163839164Y-97241541D02*
X163874878Y-97134398D01*
X163874878Y-97134398D02*
X163946307Y-97062969D01*
X163946307Y-97062969D02*
X164017735Y-97027255D01*
X164017735Y-97027255D02*
X164160592Y-96991541D01*
X164160592Y-96991541D02*
X164267735Y-96991541D01*
X164267735Y-96991541D02*
X164410592Y-97027255D01*
X164410592Y-97027255D02*
X164482021Y-97062969D01*
X164482021Y-97062969D02*
X164553450Y-97134398D01*
X164553450Y-97134398D02*
X164589164Y-97241541D01*
X164589164Y-97241541D02*
X164589164Y-97420112D01*
X164589164Y-101027256D02*
X164232021Y-101277256D01*
X164589164Y-101455827D02*
X163839164Y-101455827D01*
X163839164Y-101455827D02*
X163839164Y-101170113D01*
X163839164Y-101170113D02*
X163874878Y-101098684D01*
X163874878Y-101098684D02*
X163910592Y-101062970D01*
X163910592Y-101062970D02*
X163982021Y-101027256D01*
X163982021Y-101027256D02*
X164089164Y-101027256D01*
X164089164Y-101027256D02*
X164160592Y-101062970D01*
X164160592Y-101062970D02*
X164196307Y-101098684D01*
X164196307Y-101098684D02*
X164232021Y-101170113D01*
X164232021Y-101170113D02*
X164232021Y-101455827D01*
X164553450Y-100741541D02*
X164589164Y-100634399D01*
X164589164Y-100634399D02*
X164589164Y-100455827D01*
X164589164Y-100455827D02*
X164553450Y-100384399D01*
X164553450Y-100384399D02*
X164517735Y-100348684D01*
X164517735Y-100348684D02*
X164446307Y-100312970D01*
X164446307Y-100312970D02*
X164374878Y-100312970D01*
X164374878Y-100312970D02*
X164303450Y-100348684D01*
X164303450Y-100348684D02*
X164267735Y-100384399D01*
X164267735Y-100384399D02*
X164232021Y-100455827D01*
X164232021Y-100455827D02*
X164196307Y-100598684D01*
X164196307Y-100598684D02*
X164160592Y-100670113D01*
X164160592Y-100670113D02*
X164124878Y-100705827D01*
X164124878Y-100705827D02*
X164053450Y-100741541D01*
X164053450Y-100741541D02*
X163982021Y-100741541D01*
X163982021Y-100741541D02*
X163910592Y-100705827D01*
X163910592Y-100705827D02*
X163874878Y-100670113D01*
X163874878Y-100670113D02*
X163839164Y-100598684D01*
X163839164Y-100598684D02*
X163839164Y-100420113D01*
X163839164Y-100420113D02*
X163874878Y-100312970D01*
X163839164Y-100098684D02*
X163839164Y-99670113D01*
X164589164Y-99884398D02*
X163839164Y-99884398D01*
D11*
X136932878Y-112082854D02*
X136885259Y-112130474D01*
X136885259Y-112130474D02*
X136742402Y-112178093D01*
X136742402Y-112178093D02*
X136647164Y-112178093D01*
X136647164Y-112178093D02*
X136504307Y-112130474D01*
X136504307Y-112130474D02*
X136409069Y-112035235D01*
X136409069Y-112035235D02*
X136361450Y-111939997D01*
X136361450Y-111939997D02*
X136313831Y-111749521D01*
X136313831Y-111749521D02*
X136313831Y-111606664D01*
X136313831Y-111606664D02*
X136361450Y-111416188D01*
X136361450Y-111416188D02*
X136409069Y-111320950D01*
X136409069Y-111320950D02*
X136504307Y-111225712D01*
X136504307Y-111225712D02*
X136647164Y-111178093D01*
X136647164Y-111178093D02*
X136742402Y-111178093D01*
X136742402Y-111178093D02*
X136885259Y-111225712D01*
X136885259Y-111225712D02*
X136932878Y-111273331D01*
X137504307Y-112178093D02*
X137409069Y-112130474D01*
X137409069Y-112130474D02*
X137361450Y-112082854D01*
X137361450Y-112082854D02*
X137313831Y-111987616D01*
X137313831Y-111987616D02*
X137313831Y-111701902D01*
X137313831Y-111701902D02*
X137361450Y-111606664D01*
X137361450Y-111606664D02*
X137409069Y-111559045D01*
X137409069Y-111559045D02*
X137504307Y-111511426D01*
X137504307Y-111511426D02*
X137647164Y-111511426D01*
X137647164Y-111511426D02*
X137742402Y-111559045D01*
X137742402Y-111559045D02*
X137790021Y-111606664D01*
X137790021Y-111606664D02*
X137837640Y-111701902D01*
X137837640Y-111701902D02*
X137837640Y-111987616D01*
X137837640Y-111987616D02*
X137790021Y-112082854D01*
X137790021Y-112082854D02*
X137742402Y-112130474D01*
X137742402Y-112130474D02*
X137647164Y-112178093D01*
X137647164Y-112178093D02*
X137504307Y-112178093D01*
X138266212Y-111511426D02*
X138266212Y-112178093D01*
X138266212Y-111606664D02*
X138313831Y-111559045D01*
X138313831Y-111559045D02*
X138409069Y-111511426D01*
X138409069Y-111511426D02*
X138551926Y-111511426D01*
X138551926Y-111511426D02*
X138647164Y-111559045D01*
X138647164Y-111559045D02*
X138694783Y-111654283D01*
X138694783Y-111654283D02*
X138694783Y-112178093D01*
X139170974Y-111511426D02*
X139170974Y-112178093D01*
X139170974Y-111606664D02*
X139218593Y-111559045D01*
X139218593Y-111559045D02*
X139313831Y-111511426D01*
X139313831Y-111511426D02*
X139456688Y-111511426D01*
X139456688Y-111511426D02*
X139551926Y-111559045D01*
X139551926Y-111559045D02*
X139599545Y-111654283D01*
X139599545Y-111654283D02*
X139599545Y-112178093D01*
X140456688Y-112130474D02*
X140361450Y-112178093D01*
X140361450Y-112178093D02*
X140170974Y-112178093D01*
X140170974Y-112178093D02*
X140075736Y-112130474D01*
X140075736Y-112130474D02*
X140028117Y-112035235D01*
X140028117Y-112035235D02*
X140028117Y-111654283D01*
X140028117Y-111654283D02*
X140075736Y-111559045D01*
X140075736Y-111559045D02*
X140170974Y-111511426D01*
X140170974Y-111511426D02*
X140361450Y-111511426D01*
X140361450Y-111511426D02*
X140456688Y-111559045D01*
X140456688Y-111559045D02*
X140504307Y-111654283D01*
X140504307Y-111654283D02*
X140504307Y-111749521D01*
X140504307Y-111749521D02*
X140028117Y-111844759D01*
X141361450Y-112130474D02*
X141266212Y-112178093D01*
X141266212Y-112178093D02*
X141075736Y-112178093D01*
X141075736Y-112178093D02*
X140980498Y-112130474D01*
X140980498Y-112130474D02*
X140932879Y-112082854D01*
X140932879Y-112082854D02*
X140885260Y-111987616D01*
X140885260Y-111987616D02*
X140885260Y-111701902D01*
X140885260Y-111701902D02*
X140932879Y-111606664D01*
X140932879Y-111606664D02*
X140980498Y-111559045D01*
X140980498Y-111559045D02*
X141075736Y-111511426D01*
X141075736Y-111511426D02*
X141266212Y-111511426D01*
X141266212Y-111511426D02*
X141361450Y-111559045D01*
X141647165Y-111511426D02*
X142028117Y-111511426D01*
X141790022Y-111178093D02*
X141790022Y-112035235D01*
X141790022Y-112035235D02*
X141837641Y-112130474D01*
X141837641Y-112130474D02*
X141932879Y-112178093D01*
X141932879Y-112178093D02*
X142028117Y-112178093D01*
X142980499Y-111178093D02*
X143551927Y-111178093D01*
X143266213Y-112178093D02*
X143266213Y-111178093D01*
X144028118Y-112178093D02*
X143932880Y-112130474D01*
X143932880Y-112130474D02*
X143885261Y-112082854D01*
X143885261Y-112082854D02*
X143837642Y-111987616D01*
X143837642Y-111987616D02*
X143837642Y-111701902D01*
X143837642Y-111701902D02*
X143885261Y-111606664D01*
X143885261Y-111606664D02*
X143932880Y-111559045D01*
X143932880Y-111559045D02*
X144028118Y-111511426D01*
X144028118Y-111511426D02*
X144170975Y-111511426D01*
X144170975Y-111511426D02*
X144266213Y-111559045D01*
X144266213Y-111559045D02*
X144313832Y-111606664D01*
X144313832Y-111606664D02*
X144361451Y-111701902D01*
X144361451Y-111701902D02*
X144361451Y-111987616D01*
X144361451Y-111987616D02*
X144313832Y-112082854D01*
X144313832Y-112082854D02*
X144266213Y-112130474D01*
X144266213Y-112130474D02*
X144170975Y-112178093D01*
X144170975Y-112178093D02*
X144028118Y-112178093D01*
X145504309Y-112130474D02*
X145647166Y-112178093D01*
X145647166Y-112178093D02*
X145885261Y-112178093D01*
X145885261Y-112178093D02*
X145980499Y-112130474D01*
X145980499Y-112130474D02*
X146028118Y-112082854D01*
X146028118Y-112082854D02*
X146075737Y-111987616D01*
X146075737Y-111987616D02*
X146075737Y-111892378D01*
X146075737Y-111892378D02*
X146028118Y-111797140D01*
X146028118Y-111797140D02*
X145980499Y-111749521D01*
X145980499Y-111749521D02*
X145885261Y-111701902D01*
X145885261Y-111701902D02*
X145694785Y-111654283D01*
X145694785Y-111654283D02*
X145599547Y-111606664D01*
X145599547Y-111606664D02*
X145551928Y-111559045D01*
X145551928Y-111559045D02*
X145504309Y-111463807D01*
X145504309Y-111463807D02*
X145504309Y-111368569D01*
X145504309Y-111368569D02*
X145551928Y-111273331D01*
X145551928Y-111273331D02*
X145599547Y-111225712D01*
X145599547Y-111225712D02*
X145694785Y-111178093D01*
X145694785Y-111178093D02*
X145932880Y-111178093D01*
X145932880Y-111178093D02*
X146075737Y-111225712D01*
X146456690Y-112130474D02*
X146599547Y-112178093D01*
X146599547Y-112178093D02*
X146837642Y-112178093D01*
X146837642Y-112178093D02*
X146932880Y-112130474D01*
X146932880Y-112130474D02*
X146980499Y-112082854D01*
X146980499Y-112082854D02*
X147028118Y-111987616D01*
X147028118Y-111987616D02*
X147028118Y-111892378D01*
X147028118Y-111892378D02*
X146980499Y-111797140D01*
X146980499Y-111797140D02*
X146932880Y-111749521D01*
X146932880Y-111749521D02*
X146837642Y-111701902D01*
X146837642Y-111701902D02*
X146647166Y-111654283D01*
X146647166Y-111654283D02*
X146551928Y-111606664D01*
X146551928Y-111606664D02*
X146504309Y-111559045D01*
X146504309Y-111559045D02*
X146456690Y-111463807D01*
X146456690Y-111463807D02*
X146456690Y-111368569D01*
X146456690Y-111368569D02*
X146504309Y-111273331D01*
X146504309Y-111273331D02*
X146551928Y-111225712D01*
X146551928Y-111225712D02*
X146647166Y-111178093D01*
X146647166Y-111178093D02*
X146885261Y-111178093D01*
X146885261Y-111178093D02*
X147028118Y-111225712D01*
X147456690Y-112178093D02*
X147456690Y-111178093D01*
X147932880Y-112178093D02*
X147932880Y-111178093D01*
X147932880Y-111178093D02*
X148170975Y-111178093D01*
X148170975Y-111178093D02*
X148313832Y-111225712D01*
X148313832Y-111225712D02*
X148409070Y-111320950D01*
X148409070Y-111320950D02*
X148456689Y-111416188D01*
X148456689Y-111416188D02*
X148504308Y-111606664D01*
X148504308Y-111606664D02*
X148504308Y-111749521D01*
X148504308Y-111749521D02*
X148456689Y-111939997D01*
X148456689Y-111939997D02*
X148409070Y-112035235D01*
X148409070Y-112035235D02*
X148313832Y-112130474D01*
X148313832Y-112130474D02*
X148170975Y-112178093D01*
X148170975Y-112178093D02*
X147932880Y-112178093D01*
X148932880Y-112082854D02*
X148980499Y-112130474D01*
X148980499Y-112130474D02*
X148932880Y-112178093D01*
X148932880Y-112178093D02*
X148885261Y-112130474D01*
X148885261Y-112130474D02*
X148932880Y-112082854D01*
X148932880Y-112082854D02*
X148932880Y-112178093D01*
X148932880Y-111559045D02*
X148980499Y-111606664D01*
X148980499Y-111606664D02*
X148932880Y-111654283D01*
X148932880Y-111654283D02*
X148885261Y-111606664D01*
X148885261Y-111606664D02*
X148932880Y-111559045D01*
X148932880Y-111559045D02*
X148932880Y-111654283D01*
X136551926Y-112788037D02*
X136742402Y-112788037D01*
X136742402Y-112788037D02*
X136837640Y-112835656D01*
X136837640Y-112835656D02*
X136932878Y-112930894D01*
X136932878Y-112930894D02*
X136980497Y-113121370D01*
X136980497Y-113121370D02*
X136980497Y-113454703D01*
X136980497Y-113454703D02*
X136932878Y-113645179D01*
X136932878Y-113645179D02*
X136837640Y-113740418D01*
X136837640Y-113740418D02*
X136742402Y-113788037D01*
X136742402Y-113788037D02*
X136551926Y-113788037D01*
X136551926Y-113788037D02*
X136456688Y-113740418D01*
X136456688Y-113740418D02*
X136361450Y-113645179D01*
X136361450Y-113645179D02*
X136313831Y-113454703D01*
X136313831Y-113454703D02*
X136313831Y-113121370D01*
X136313831Y-113121370D02*
X136361450Y-112930894D01*
X136361450Y-112930894D02*
X136456688Y-112835656D01*
X136456688Y-112835656D02*
X136551926Y-112788037D01*
X137409069Y-113121370D02*
X137409069Y-114121370D01*
X137409069Y-113168989D02*
X137504307Y-113121370D01*
X137504307Y-113121370D02*
X137694783Y-113121370D01*
X137694783Y-113121370D02*
X137790021Y-113168989D01*
X137790021Y-113168989D02*
X137837640Y-113216608D01*
X137837640Y-113216608D02*
X137885259Y-113311846D01*
X137885259Y-113311846D02*
X137885259Y-113597560D01*
X137885259Y-113597560D02*
X137837640Y-113692798D01*
X137837640Y-113692798D02*
X137790021Y-113740418D01*
X137790021Y-113740418D02*
X137694783Y-113788037D01*
X137694783Y-113788037D02*
X137504307Y-113788037D01*
X137504307Y-113788037D02*
X137409069Y-113740418D01*
X138694783Y-113740418D02*
X138599545Y-113788037D01*
X138599545Y-113788037D02*
X138409069Y-113788037D01*
X138409069Y-113788037D02*
X138313831Y-113740418D01*
X138313831Y-113740418D02*
X138266212Y-113645179D01*
X138266212Y-113645179D02*
X138266212Y-113264227D01*
X138266212Y-113264227D02*
X138313831Y-113168989D01*
X138313831Y-113168989D02*
X138409069Y-113121370D01*
X138409069Y-113121370D02*
X138599545Y-113121370D01*
X138599545Y-113121370D02*
X138694783Y-113168989D01*
X138694783Y-113168989D02*
X138742402Y-113264227D01*
X138742402Y-113264227D02*
X138742402Y-113359465D01*
X138742402Y-113359465D02*
X138266212Y-113454703D01*
X139170974Y-113121370D02*
X139170974Y-113788037D01*
X139170974Y-113216608D02*
X139218593Y-113168989D01*
X139218593Y-113168989D02*
X139313831Y-113121370D01*
X139313831Y-113121370D02*
X139456688Y-113121370D01*
X139456688Y-113121370D02*
X139551926Y-113168989D01*
X139551926Y-113168989D02*
X139599545Y-113264227D01*
X139599545Y-113264227D02*
X139599545Y-113788037D01*
X139980498Y-112788037D02*
X140218593Y-113788037D01*
X140218593Y-113788037D02*
X140409069Y-113073751D01*
X140409069Y-113073751D02*
X140599545Y-113788037D01*
X140599545Y-113788037D02*
X140837641Y-112788037D01*
X141647164Y-113788037D02*
X141647164Y-113264227D01*
X141647164Y-113264227D02*
X141599545Y-113168989D01*
X141599545Y-113168989D02*
X141504307Y-113121370D01*
X141504307Y-113121370D02*
X141313831Y-113121370D01*
X141313831Y-113121370D02*
X141218593Y-113168989D01*
X141647164Y-113740418D02*
X141551926Y-113788037D01*
X141551926Y-113788037D02*
X141313831Y-113788037D01*
X141313831Y-113788037D02*
X141218593Y-113740418D01*
X141218593Y-113740418D02*
X141170974Y-113645179D01*
X141170974Y-113645179D02*
X141170974Y-113549941D01*
X141170974Y-113549941D02*
X141218593Y-113454703D01*
X141218593Y-113454703D02*
X141313831Y-113407084D01*
X141313831Y-113407084D02*
X141551926Y-113407084D01*
X141551926Y-113407084D02*
X141647164Y-113359465D01*
X141980498Y-113121370D02*
X142361450Y-113121370D01*
X142123355Y-112788037D02*
X142123355Y-113645179D01*
X142123355Y-113645179D02*
X142170974Y-113740418D01*
X142170974Y-113740418D02*
X142266212Y-113788037D01*
X142266212Y-113788037D02*
X142361450Y-113788037D01*
X142551927Y-113121370D02*
X142932879Y-113121370D01*
X142694784Y-112788037D02*
X142694784Y-113645179D01*
X142694784Y-113645179D02*
X142742403Y-113740418D01*
X142742403Y-113740418D02*
X142837641Y-113788037D01*
X142837641Y-113788037D02*
X142932879Y-113788037D01*
X143218594Y-113740418D02*
X143313832Y-113788037D01*
X143313832Y-113788037D02*
X143504308Y-113788037D01*
X143504308Y-113788037D02*
X143599546Y-113740418D01*
X143599546Y-113740418D02*
X143647165Y-113645179D01*
X143647165Y-113645179D02*
X143647165Y-113597560D01*
X143647165Y-113597560D02*
X143599546Y-113502322D01*
X143599546Y-113502322D02*
X143504308Y-113454703D01*
X143504308Y-113454703D02*
X143361451Y-113454703D01*
X143361451Y-113454703D02*
X143266213Y-113407084D01*
X143266213Y-113407084D02*
X143218594Y-113311846D01*
X143218594Y-113311846D02*
X143218594Y-113264227D01*
X143218594Y-113264227D02*
X143266213Y-113168989D01*
X143266213Y-113168989D02*
X143361451Y-113121370D01*
X143361451Y-113121370D02*
X143504308Y-113121370D01*
X143504308Y-113121370D02*
X143599546Y-113168989D01*
X144075737Y-113407084D02*
X144837642Y-113407084D01*
X145266213Y-113740418D02*
X145409070Y-113788037D01*
X145409070Y-113788037D02*
X145647165Y-113788037D01*
X145647165Y-113788037D02*
X145742403Y-113740418D01*
X145742403Y-113740418D02*
X145790022Y-113692798D01*
X145790022Y-113692798D02*
X145837641Y-113597560D01*
X145837641Y-113597560D02*
X145837641Y-113502322D01*
X145837641Y-113502322D02*
X145790022Y-113407084D01*
X145790022Y-113407084D02*
X145742403Y-113359465D01*
X145742403Y-113359465D02*
X145647165Y-113311846D01*
X145647165Y-113311846D02*
X145456689Y-113264227D01*
X145456689Y-113264227D02*
X145361451Y-113216608D01*
X145361451Y-113216608D02*
X145313832Y-113168989D01*
X145313832Y-113168989D02*
X145266213Y-113073751D01*
X145266213Y-113073751D02*
X145266213Y-112978513D01*
X145266213Y-112978513D02*
X145313832Y-112883275D01*
X145313832Y-112883275D02*
X145361451Y-112835656D01*
X145361451Y-112835656D02*
X145456689Y-112788037D01*
X145456689Y-112788037D02*
X145694784Y-112788037D01*
X145694784Y-112788037D02*
X145837641Y-112835656D01*
X146647165Y-113740418D02*
X146551927Y-113788037D01*
X146551927Y-113788037D02*
X146361451Y-113788037D01*
X146361451Y-113788037D02*
X146266213Y-113740418D01*
X146266213Y-113740418D02*
X146218594Y-113645179D01*
X146218594Y-113645179D02*
X146218594Y-113264227D01*
X146218594Y-113264227D02*
X146266213Y-113168989D01*
X146266213Y-113168989D02*
X146361451Y-113121370D01*
X146361451Y-113121370D02*
X146551927Y-113121370D01*
X146551927Y-113121370D02*
X146647165Y-113168989D01*
X146647165Y-113168989D02*
X146694784Y-113264227D01*
X146694784Y-113264227D02*
X146694784Y-113359465D01*
X146694784Y-113359465D02*
X146218594Y-113454703D01*
X146980499Y-113121370D02*
X147361451Y-113121370D01*
X147123356Y-112788037D02*
X147123356Y-113645179D01*
X147123356Y-113645179D02*
X147170975Y-113740418D01*
X147170975Y-113740418D02*
X147266213Y-113788037D01*
X147266213Y-113788037D02*
X147361451Y-113788037D01*
X148123356Y-113121370D02*
X148123356Y-113788037D01*
X147694785Y-113121370D02*
X147694785Y-113645179D01*
X147694785Y-113645179D02*
X147742404Y-113740418D01*
X147742404Y-113740418D02*
X147837642Y-113788037D01*
X147837642Y-113788037D02*
X147980499Y-113788037D01*
X147980499Y-113788037D02*
X148075737Y-113740418D01*
X148075737Y-113740418D02*
X148123356Y-113692798D01*
X148599547Y-113121370D02*
X148599547Y-114121370D01*
X148599547Y-113168989D02*
X148694785Y-113121370D01*
X148694785Y-113121370D02*
X148885261Y-113121370D01*
X148885261Y-113121370D02*
X148980499Y-113168989D01*
X148980499Y-113168989D02*
X149028118Y-113216608D01*
X149028118Y-113216608D02*
X149075737Y-113311846D01*
X149075737Y-113311846D02*
X149075737Y-113597560D01*
X149075737Y-113597560D02*
X149028118Y-113692798D01*
X149028118Y-113692798D02*
X148980499Y-113740418D01*
X148980499Y-113740418D02*
X148885261Y-113788037D01*
X148885261Y-113788037D02*
X148694785Y-113788037D01*
X148694785Y-113788037D02*
X148599547Y-113740418D01*
X136551926Y-116007925D02*
X136742402Y-116007925D01*
X136742402Y-116007925D02*
X136837640Y-116055544D01*
X136837640Y-116055544D02*
X136932878Y-116150782D01*
X136932878Y-116150782D02*
X136980497Y-116341258D01*
X136980497Y-116341258D02*
X136980497Y-116674591D01*
X136980497Y-116674591D02*
X136932878Y-116865067D01*
X136932878Y-116865067D02*
X136837640Y-116960306D01*
X136837640Y-116960306D02*
X136742402Y-117007925D01*
X136742402Y-117007925D02*
X136551926Y-117007925D01*
X136551926Y-117007925D02*
X136456688Y-116960306D01*
X136456688Y-116960306D02*
X136361450Y-116865067D01*
X136361450Y-116865067D02*
X136313831Y-116674591D01*
X136313831Y-116674591D02*
X136313831Y-116341258D01*
X136313831Y-116341258D02*
X136361450Y-116150782D01*
X136361450Y-116150782D02*
X136456688Y-116055544D01*
X136456688Y-116055544D02*
X136551926Y-116007925D01*
X137409069Y-116341258D02*
X137409069Y-117341258D01*
X137409069Y-116388877D02*
X137504307Y-116341258D01*
X137504307Y-116341258D02*
X137694783Y-116341258D01*
X137694783Y-116341258D02*
X137790021Y-116388877D01*
X137790021Y-116388877D02*
X137837640Y-116436496D01*
X137837640Y-116436496D02*
X137885259Y-116531734D01*
X137885259Y-116531734D02*
X137885259Y-116817448D01*
X137885259Y-116817448D02*
X137837640Y-116912686D01*
X137837640Y-116912686D02*
X137790021Y-116960306D01*
X137790021Y-116960306D02*
X137694783Y-117007925D01*
X137694783Y-117007925D02*
X137504307Y-117007925D01*
X137504307Y-117007925D02*
X137409069Y-116960306D01*
X138694783Y-116960306D02*
X138599545Y-117007925D01*
X138599545Y-117007925D02*
X138409069Y-117007925D01*
X138409069Y-117007925D02*
X138313831Y-116960306D01*
X138313831Y-116960306D02*
X138266212Y-116865067D01*
X138266212Y-116865067D02*
X138266212Y-116484115D01*
X138266212Y-116484115D02*
X138313831Y-116388877D01*
X138313831Y-116388877D02*
X138409069Y-116341258D01*
X138409069Y-116341258D02*
X138599545Y-116341258D01*
X138599545Y-116341258D02*
X138694783Y-116388877D01*
X138694783Y-116388877D02*
X138742402Y-116484115D01*
X138742402Y-116484115D02*
X138742402Y-116579353D01*
X138742402Y-116579353D02*
X138266212Y-116674591D01*
X139170974Y-116341258D02*
X139170974Y-117007925D01*
X139170974Y-116436496D02*
X139218593Y-116388877D01*
X139218593Y-116388877D02*
X139313831Y-116341258D01*
X139313831Y-116341258D02*
X139456688Y-116341258D01*
X139456688Y-116341258D02*
X139551926Y-116388877D01*
X139551926Y-116388877D02*
X139599545Y-116484115D01*
X139599545Y-116484115D02*
X139599545Y-117007925D01*
X140075736Y-116912686D02*
X140123355Y-116960306D01*
X140123355Y-116960306D02*
X140075736Y-117007925D01*
X140075736Y-117007925D02*
X140028117Y-116960306D01*
X140028117Y-116960306D02*
X140075736Y-116912686D01*
X140075736Y-116912686D02*
X140075736Y-117007925D01*
X140075736Y-116388877D02*
X140123355Y-116436496D01*
X140123355Y-116436496D02*
X140075736Y-116484115D01*
X140075736Y-116484115D02*
X140028117Y-116436496D01*
X140028117Y-116436496D02*
X140075736Y-116388877D01*
X140075736Y-116388877D02*
X140075736Y-116484115D01*
X136361450Y-118617869D02*
X136361450Y-117617869D01*
X136790021Y-118617869D02*
X136790021Y-118094059D01*
X136790021Y-118094059D02*
X136742402Y-117998821D01*
X136742402Y-117998821D02*
X136647164Y-117951202D01*
X136647164Y-117951202D02*
X136504307Y-117951202D01*
X136504307Y-117951202D02*
X136409069Y-117998821D01*
X136409069Y-117998821D02*
X136361450Y-118046440D01*
X137123355Y-117951202D02*
X137504307Y-117951202D01*
X137266212Y-117617869D02*
X137266212Y-118475011D01*
X137266212Y-118475011D02*
X137313831Y-118570250D01*
X137313831Y-118570250D02*
X137409069Y-118617869D01*
X137409069Y-118617869D02*
X137504307Y-118617869D01*
X137694784Y-117951202D02*
X138075736Y-117951202D01*
X137837641Y-117617869D02*
X137837641Y-118475011D01*
X137837641Y-118475011D02*
X137885260Y-118570250D01*
X137885260Y-118570250D02*
X137980498Y-118617869D01*
X137980498Y-118617869D02*
X138075736Y-118617869D01*
X138409070Y-117951202D02*
X138409070Y-118951202D01*
X138409070Y-117998821D02*
X138504308Y-117951202D01*
X138504308Y-117951202D02*
X138694784Y-117951202D01*
X138694784Y-117951202D02*
X138790022Y-117998821D01*
X138790022Y-117998821D02*
X138837641Y-118046440D01*
X138837641Y-118046440D02*
X138885260Y-118141678D01*
X138885260Y-118141678D02*
X138885260Y-118427392D01*
X138885260Y-118427392D02*
X138837641Y-118522630D01*
X138837641Y-118522630D02*
X138790022Y-118570250D01*
X138790022Y-118570250D02*
X138694784Y-118617869D01*
X138694784Y-118617869D02*
X138504308Y-118617869D01*
X138504308Y-118617869D02*
X138409070Y-118570250D01*
X139313832Y-118522630D02*
X139361451Y-118570250D01*
X139361451Y-118570250D02*
X139313832Y-118617869D01*
X139313832Y-118617869D02*
X139266213Y-118570250D01*
X139266213Y-118570250D02*
X139313832Y-118522630D01*
X139313832Y-118522630D02*
X139313832Y-118617869D01*
X139313832Y-117998821D02*
X139361451Y-118046440D01*
X139361451Y-118046440D02*
X139313832Y-118094059D01*
X139313832Y-118094059D02*
X139266213Y-118046440D01*
X139266213Y-118046440D02*
X139313832Y-117998821D01*
X139313832Y-117998821D02*
X139313832Y-118094059D01*
X140504307Y-117570250D02*
X139647165Y-118855964D01*
X141551926Y-117570250D02*
X140694784Y-118855964D01*
X142409069Y-118617869D02*
X141837641Y-118617869D01*
X142123355Y-118617869D02*
X142123355Y-117617869D01*
X142123355Y-117617869D02*
X142028117Y-117760726D01*
X142028117Y-117760726D02*
X141932879Y-117855964D01*
X141932879Y-117855964D02*
X141837641Y-117903583D01*
X142885260Y-118617869D02*
X143075736Y-118617869D01*
X143075736Y-118617869D02*
X143170974Y-118570250D01*
X143170974Y-118570250D02*
X143218593Y-118522630D01*
X143218593Y-118522630D02*
X143313831Y-118379773D01*
X143313831Y-118379773D02*
X143361450Y-118189297D01*
X143361450Y-118189297D02*
X143361450Y-117808345D01*
X143361450Y-117808345D02*
X143313831Y-117713107D01*
X143313831Y-117713107D02*
X143266212Y-117665488D01*
X143266212Y-117665488D02*
X143170974Y-117617869D01*
X143170974Y-117617869D02*
X142980498Y-117617869D01*
X142980498Y-117617869D02*
X142885260Y-117665488D01*
X142885260Y-117665488D02*
X142837641Y-117713107D01*
X142837641Y-117713107D02*
X142790022Y-117808345D01*
X142790022Y-117808345D02*
X142790022Y-118046440D01*
X142790022Y-118046440D02*
X142837641Y-118141678D01*
X142837641Y-118141678D02*
X142885260Y-118189297D01*
X142885260Y-118189297D02*
X142980498Y-118236916D01*
X142980498Y-118236916D02*
X143170974Y-118236916D01*
X143170974Y-118236916D02*
X143266212Y-118189297D01*
X143266212Y-118189297D02*
X143313831Y-118141678D01*
X143313831Y-118141678D02*
X143361450Y-118046440D01*
X143742403Y-117713107D02*
X143790022Y-117665488D01*
X143790022Y-117665488D02*
X143885260Y-117617869D01*
X143885260Y-117617869D02*
X144123355Y-117617869D01*
X144123355Y-117617869D02*
X144218593Y-117665488D01*
X144218593Y-117665488D02*
X144266212Y-117713107D01*
X144266212Y-117713107D02*
X144313831Y-117808345D01*
X144313831Y-117808345D02*
X144313831Y-117903583D01*
X144313831Y-117903583D02*
X144266212Y-118046440D01*
X144266212Y-118046440D02*
X143694784Y-118617869D01*
X143694784Y-118617869D02*
X144313831Y-118617869D01*
X144742403Y-118522630D02*
X144790022Y-118570250D01*
X144790022Y-118570250D02*
X144742403Y-118617869D01*
X144742403Y-118617869D02*
X144694784Y-118570250D01*
X144694784Y-118570250D02*
X144742403Y-118522630D01*
X144742403Y-118522630D02*
X144742403Y-118617869D01*
X145742402Y-118617869D02*
X145170974Y-118617869D01*
X145456688Y-118617869D02*
X145456688Y-117617869D01*
X145456688Y-117617869D02*
X145361450Y-117760726D01*
X145361450Y-117760726D02*
X145266212Y-117855964D01*
X145266212Y-117855964D02*
X145170974Y-117903583D01*
X146599545Y-117617869D02*
X146409069Y-117617869D01*
X146409069Y-117617869D02*
X146313831Y-117665488D01*
X146313831Y-117665488D02*
X146266212Y-117713107D01*
X146266212Y-117713107D02*
X146170974Y-117855964D01*
X146170974Y-117855964D02*
X146123355Y-118046440D01*
X146123355Y-118046440D02*
X146123355Y-118427392D01*
X146123355Y-118427392D02*
X146170974Y-118522630D01*
X146170974Y-118522630D02*
X146218593Y-118570250D01*
X146218593Y-118570250D02*
X146313831Y-118617869D01*
X146313831Y-118617869D02*
X146504307Y-118617869D01*
X146504307Y-118617869D02*
X146599545Y-118570250D01*
X146599545Y-118570250D02*
X146647164Y-118522630D01*
X146647164Y-118522630D02*
X146694783Y-118427392D01*
X146694783Y-118427392D02*
X146694783Y-118189297D01*
X146694783Y-118189297D02*
X146647164Y-118094059D01*
X146647164Y-118094059D02*
X146599545Y-118046440D01*
X146599545Y-118046440D02*
X146504307Y-117998821D01*
X146504307Y-117998821D02*
X146313831Y-117998821D01*
X146313831Y-117998821D02*
X146218593Y-118046440D01*
X146218593Y-118046440D02*
X146170974Y-118094059D01*
X146170974Y-118094059D02*
X146123355Y-118189297D01*
X147266212Y-118046440D02*
X147170974Y-117998821D01*
X147170974Y-117998821D02*
X147123355Y-117951202D01*
X147123355Y-117951202D02*
X147075736Y-117855964D01*
X147075736Y-117855964D02*
X147075736Y-117808345D01*
X147075736Y-117808345D02*
X147123355Y-117713107D01*
X147123355Y-117713107D02*
X147170974Y-117665488D01*
X147170974Y-117665488D02*
X147266212Y-117617869D01*
X147266212Y-117617869D02*
X147456688Y-117617869D01*
X147456688Y-117617869D02*
X147551926Y-117665488D01*
X147551926Y-117665488D02*
X147599545Y-117713107D01*
X147599545Y-117713107D02*
X147647164Y-117808345D01*
X147647164Y-117808345D02*
X147647164Y-117855964D01*
X147647164Y-117855964D02*
X147599545Y-117951202D01*
X147599545Y-117951202D02*
X147551926Y-117998821D01*
X147551926Y-117998821D02*
X147456688Y-118046440D01*
X147456688Y-118046440D02*
X147266212Y-118046440D01*
X147266212Y-118046440D02*
X147170974Y-118094059D01*
X147170974Y-118094059D02*
X147123355Y-118141678D01*
X147123355Y-118141678D02*
X147075736Y-118236916D01*
X147075736Y-118236916D02*
X147075736Y-118427392D01*
X147075736Y-118427392D02*
X147123355Y-118522630D01*
X147123355Y-118522630D02*
X147170974Y-118570250D01*
X147170974Y-118570250D02*
X147266212Y-118617869D01*
X147266212Y-118617869D02*
X147456688Y-118617869D01*
X147456688Y-118617869D02*
X147551926Y-118570250D01*
X147551926Y-118570250D02*
X147599545Y-118522630D01*
X147599545Y-118522630D02*
X147647164Y-118427392D01*
X147647164Y-118427392D02*
X147647164Y-118236916D01*
X147647164Y-118236916D02*
X147599545Y-118141678D01*
X147599545Y-118141678D02*
X147551926Y-118094059D01*
X147551926Y-118094059D02*
X147456688Y-118046440D01*
X148075736Y-118522630D02*
X148123355Y-118570250D01*
X148123355Y-118570250D02*
X148075736Y-118617869D01*
X148075736Y-118617869D02*
X148028117Y-118570250D01*
X148028117Y-118570250D02*
X148075736Y-118522630D01*
X148075736Y-118522630D02*
X148075736Y-118617869D01*
X148980497Y-117951202D02*
X148980497Y-118617869D01*
X148742402Y-117570250D02*
X148504307Y-118284535D01*
X148504307Y-118284535D02*
X149123354Y-118284535D01*
X149504307Y-118522630D02*
X149551926Y-118570250D01*
X149551926Y-118570250D02*
X149504307Y-118617869D01*
X149504307Y-118617869D02*
X149456688Y-118570250D01*
X149456688Y-118570250D02*
X149504307Y-118522630D01*
X149504307Y-118522630D02*
X149504307Y-118617869D01*
X150504306Y-118617869D02*
X149932878Y-118617869D01*
X150218592Y-118617869D02*
X150218592Y-117617869D01*
X150218592Y-117617869D02*
X150123354Y-117760726D01*
X150123354Y-117760726D02*
X150028116Y-117855964D01*
X150028116Y-117855964D02*
X149932878Y-117903583D01*
D12*
X136804510Y-107489638D02*
X137185463Y-107489638D01*
X137185463Y-107489638D02*
X137375939Y-107584876D01*
X137375939Y-107584876D02*
X137566415Y-107775352D01*
X137566415Y-107775352D02*
X137661653Y-108156304D01*
X137661653Y-108156304D02*
X137661653Y-108822971D01*
X137661653Y-108822971D02*
X137566415Y-109203923D01*
X137566415Y-109203923D02*
X137375939Y-109394400D01*
X137375939Y-109394400D02*
X137185463Y-109489638D01*
X137185463Y-109489638D02*
X136804510Y-109489638D01*
X136804510Y-109489638D02*
X136614034Y-109394400D01*
X136614034Y-109394400D02*
X136423558Y-109203923D01*
X136423558Y-109203923D02*
X136328320Y-108822971D01*
X136328320Y-108822971D02*
X136328320Y-108156304D01*
X136328320Y-108156304D02*
X136423558Y-107775352D01*
X136423558Y-107775352D02*
X136614034Y-107584876D01*
X136614034Y-107584876D02*
X136804510Y-107489638D01*
X138518796Y-108156304D02*
X138518796Y-110156304D01*
X138518796Y-108251542D02*
X138709272Y-108156304D01*
X138709272Y-108156304D02*
X139090225Y-108156304D01*
X139090225Y-108156304D02*
X139280701Y-108251542D01*
X139280701Y-108251542D02*
X139375939Y-108346780D01*
X139375939Y-108346780D02*
X139471177Y-108537257D01*
X139471177Y-108537257D02*
X139471177Y-109108685D01*
X139471177Y-109108685D02*
X139375939Y-109299161D01*
X139375939Y-109299161D02*
X139280701Y-109394400D01*
X139280701Y-109394400D02*
X139090225Y-109489638D01*
X139090225Y-109489638D02*
X138709272Y-109489638D01*
X138709272Y-109489638D02*
X138518796Y-109394400D01*
X141090225Y-109394400D02*
X140899749Y-109489638D01*
X140899749Y-109489638D02*
X140518796Y-109489638D01*
X140518796Y-109489638D02*
X140328320Y-109394400D01*
X140328320Y-109394400D02*
X140233082Y-109203923D01*
X140233082Y-109203923D02*
X140233082Y-108442019D01*
X140233082Y-108442019D02*
X140328320Y-108251542D01*
X140328320Y-108251542D02*
X140518796Y-108156304D01*
X140518796Y-108156304D02*
X140899749Y-108156304D01*
X140899749Y-108156304D02*
X141090225Y-108251542D01*
X141090225Y-108251542D02*
X141185463Y-108442019D01*
X141185463Y-108442019D02*
X141185463Y-108632495D01*
X141185463Y-108632495D02*
X140233082Y-108822971D01*
X142042606Y-108156304D02*
X142042606Y-109489638D01*
X142042606Y-108346780D02*
X142137844Y-108251542D01*
X142137844Y-108251542D02*
X142328320Y-108156304D01*
X142328320Y-108156304D02*
X142614035Y-108156304D01*
X142614035Y-108156304D02*
X142804511Y-108251542D01*
X142804511Y-108251542D02*
X142899749Y-108442019D01*
X142899749Y-108442019D02*
X142899749Y-109489638D01*
X143661654Y-107489638D02*
X144137844Y-109489638D01*
X144137844Y-109489638D02*
X144518797Y-108061066D01*
X144518797Y-108061066D02*
X144899749Y-109489638D01*
X144899749Y-109489638D02*
X145375940Y-107489638D01*
X146994987Y-109489638D02*
X146994987Y-108442019D01*
X146994987Y-108442019D02*
X146899749Y-108251542D01*
X146899749Y-108251542D02*
X146709273Y-108156304D01*
X146709273Y-108156304D02*
X146328320Y-108156304D01*
X146328320Y-108156304D02*
X146137844Y-108251542D01*
X146994987Y-109394400D02*
X146804511Y-109489638D01*
X146804511Y-109489638D02*
X146328320Y-109489638D01*
X146328320Y-109489638D02*
X146137844Y-109394400D01*
X146137844Y-109394400D02*
X146042606Y-109203923D01*
X146042606Y-109203923D02*
X146042606Y-109013447D01*
X146042606Y-109013447D02*
X146137844Y-108822971D01*
X146137844Y-108822971D02*
X146328320Y-108727733D01*
X146328320Y-108727733D02*
X146804511Y-108727733D01*
X146804511Y-108727733D02*
X146994987Y-108632495D01*
X147661654Y-108156304D02*
X148423558Y-108156304D01*
X147947368Y-107489638D02*
X147947368Y-109203923D01*
X147947368Y-109203923D02*
X148042606Y-109394400D01*
X148042606Y-109394400D02*
X148233082Y-109489638D01*
X148233082Y-109489638D02*
X148423558Y-109489638D01*
X148804511Y-108156304D02*
X149566415Y-108156304D01*
X149090225Y-107489638D02*
X149090225Y-109203923D01*
X149090225Y-109203923D02*
X149185463Y-109394400D01*
X149185463Y-109394400D02*
X149375939Y-109489638D01*
X149375939Y-109489638D02*
X149566415Y-109489638D01*
X150137844Y-109394400D02*
X150328320Y-109489638D01*
X150328320Y-109489638D02*
X150709272Y-109489638D01*
X150709272Y-109489638D02*
X150899749Y-109394400D01*
X150899749Y-109394400D02*
X150994987Y-109203923D01*
X150994987Y-109203923D02*
X150994987Y-109108685D01*
X150994987Y-109108685D02*
X150899749Y-108918209D01*
X150899749Y-108918209D02*
X150709272Y-108822971D01*
X150709272Y-108822971D02*
X150423558Y-108822971D01*
X150423558Y-108822971D02*
X150233082Y-108727733D01*
X150233082Y-108727733D02*
X150137844Y-108537257D01*
X150137844Y-108537257D02*
X150137844Y-108442019D01*
X150137844Y-108442019D02*
X150233082Y-108251542D01*
X150233082Y-108251542D02*
X150423558Y-108156304D01*
X150423558Y-108156304D02*
X150709272Y-108156304D01*
X150709272Y-108156304D02*
X150899749Y-108251542D01*
X152671178Y-108910590D02*
X152137844Y-108148685D01*
X151756892Y-108910590D02*
X151756892Y-107310590D01*
X151756892Y-107310590D02*
X152366416Y-107310590D01*
X152366416Y-107310590D02*
X152518797Y-107386780D01*
X152518797Y-107386780D02*
X152594987Y-107462971D01*
X152594987Y-107462971D02*
X152671178Y-107615352D01*
X152671178Y-107615352D02*
X152671178Y-107843923D01*
X152671178Y-107843923D02*
X152594987Y-107996304D01*
X152594987Y-107996304D02*
X152518797Y-108072495D01*
X152518797Y-108072495D02*
X152366416Y-108148685D01*
X152366416Y-108148685D02*
X151756892Y-108148685D01*
X153966416Y-108834400D02*
X153814035Y-108910590D01*
X153814035Y-108910590D02*
X153509273Y-108910590D01*
X153509273Y-108910590D02*
X153356892Y-108834400D01*
X153356892Y-108834400D02*
X153280701Y-108682019D01*
X153280701Y-108682019D02*
X153280701Y-108072495D01*
X153280701Y-108072495D02*
X153356892Y-107920114D01*
X153356892Y-107920114D02*
X153509273Y-107843923D01*
X153509273Y-107843923D02*
X153814035Y-107843923D01*
X153814035Y-107843923D02*
X153966416Y-107920114D01*
X153966416Y-107920114D02*
X154042606Y-108072495D01*
X154042606Y-108072495D02*
X154042606Y-108224876D01*
X154042606Y-108224876D02*
X153280701Y-108377257D01*
X154575940Y-107843923D02*
X154956892Y-108910590D01*
X154956892Y-108910590D02*
X155337845Y-107843923D01*
X157090226Y-108453447D02*
X157852131Y-108453447D01*
X156937845Y-108910590D02*
X157471179Y-107310590D01*
X157471179Y-107310590D02*
X158004512Y-108910590D01*
D10*
X154998095Y-85806819D02*
X154998095Y-86616342D01*
X154998095Y-86616342D02*
X155045714Y-86711580D01*
X155045714Y-86711580D02*
X155093333Y-86759200D01*
X155093333Y-86759200D02*
X155188571Y-86806819D01*
X155188571Y-86806819D02*
X155379047Y-86806819D01*
X155379047Y-86806819D02*
X155474285Y-86759200D01*
X155474285Y-86759200D02*
X155521904Y-86711580D01*
X155521904Y-86711580D02*
X155569523Y-86616342D01*
X155569523Y-86616342D02*
X155569523Y-85806819D01*
X156521904Y-85806819D02*
X156045714Y-85806819D01*
X156045714Y-85806819D02*
X155998095Y-86283009D01*
X155998095Y-86283009D02*
X156045714Y-86235390D01*
X156045714Y-86235390D02*
X156140952Y-86187771D01*
X156140952Y-86187771D02*
X156379047Y-86187771D01*
X156379047Y-86187771D02*
X156474285Y-86235390D01*
X156474285Y-86235390D02*
X156521904Y-86283009D01*
X156521904Y-86283009D02*
X156569523Y-86378247D01*
X156569523Y-86378247D02*
X156569523Y-86616342D01*
X156569523Y-86616342D02*
X156521904Y-86711580D01*
X156521904Y-86711580D02*
X156474285Y-86759200D01*
X156474285Y-86759200D02*
X156379047Y-86806819D01*
X156379047Y-86806819D02*
X156140952Y-86806819D01*
X156140952Y-86806819D02*
X156045714Y-86759200D01*
X156045714Y-86759200D02*
X155998095Y-86711580D01*
X150998094Y-90171104D02*
X151474284Y-90171104D01*
X150902856Y-90456819D02*
X151236189Y-89456819D01*
X151236189Y-89456819D02*
X151569522Y-90456819D01*
X151902856Y-89790152D02*
X151902856Y-90456819D01*
X151902856Y-89885390D02*
X151950475Y-89837771D01*
X151950475Y-89837771D02*
X152045713Y-89790152D01*
X152045713Y-89790152D02*
X152188570Y-89790152D01*
X152188570Y-89790152D02*
X152283808Y-89837771D01*
X152283808Y-89837771D02*
X152331427Y-89933009D01*
X152331427Y-89933009D02*
X152331427Y-90456819D01*
X152664761Y-89790152D02*
X153045713Y-89790152D01*
X152807618Y-89456819D02*
X152807618Y-90313961D01*
X152807618Y-90313961D02*
X152855237Y-90409200D01*
X152855237Y-90409200D02*
X152950475Y-90456819D01*
X152950475Y-90456819D02*
X153045713Y-90456819D01*
X153759999Y-90409200D02*
X153664761Y-90456819D01*
X153664761Y-90456819D02*
X153474285Y-90456819D01*
X153474285Y-90456819D02*
X153379047Y-90409200D01*
X153379047Y-90409200D02*
X153331428Y-90313961D01*
X153331428Y-90313961D02*
X153331428Y-89933009D01*
X153331428Y-89933009D02*
X153379047Y-89837771D01*
X153379047Y-89837771D02*
X153474285Y-89790152D01*
X153474285Y-89790152D02*
X153664761Y-89790152D01*
X153664761Y-89790152D02*
X153759999Y-89837771D01*
X153759999Y-89837771D02*
X153807618Y-89933009D01*
X153807618Y-89933009D02*
X153807618Y-90028247D01*
X153807618Y-90028247D02*
X153331428Y-90123485D01*
X154236190Y-89790152D02*
X154236190Y-90456819D01*
X154236190Y-89885390D02*
X154283809Y-89837771D01*
X154283809Y-89837771D02*
X154379047Y-89790152D01*
X154379047Y-89790152D02*
X154521904Y-89790152D01*
X154521904Y-89790152D02*
X154617142Y-89837771D01*
X154617142Y-89837771D02*
X154664761Y-89933009D01*
X154664761Y-89933009D02*
X154664761Y-90456819D01*
X155140952Y-89790152D02*
X155140952Y-90456819D01*
X155140952Y-89885390D02*
X155188571Y-89837771D01*
X155188571Y-89837771D02*
X155283809Y-89790152D01*
X155283809Y-89790152D02*
X155426666Y-89790152D01*
X155426666Y-89790152D02*
X155521904Y-89837771D01*
X155521904Y-89837771D02*
X155569523Y-89933009D01*
X155569523Y-89933009D02*
X155569523Y-90456819D01*
X156474285Y-90456819D02*
X156474285Y-89933009D01*
X156474285Y-89933009D02*
X156426666Y-89837771D01*
X156426666Y-89837771D02*
X156331428Y-89790152D01*
X156331428Y-89790152D02*
X156140952Y-89790152D01*
X156140952Y-89790152D02*
X156045714Y-89837771D01*
X156474285Y-90409200D02*
X156379047Y-90456819D01*
X156379047Y-90456819D02*
X156140952Y-90456819D01*
X156140952Y-90456819D02*
X156045714Y-90409200D01*
X156045714Y-90409200D02*
X155998095Y-90313961D01*
X155998095Y-90313961D02*
X155998095Y-90218723D01*
X155998095Y-90218723D02*
X156045714Y-90123485D01*
X156045714Y-90123485D02*
X156140952Y-90075866D01*
X156140952Y-90075866D02*
X156379047Y-90075866D01*
X156379047Y-90075866D02*
X156474285Y-90028247D01*
X157664762Y-90171104D02*
X158140952Y-90171104D01*
X157569524Y-90456819D02*
X157902857Y-89456819D01*
X157902857Y-89456819D02*
X158236190Y-90456819D01*
X158569524Y-90456819D02*
X158569524Y-89790152D01*
X158569524Y-89980628D02*
X158617143Y-89885390D01*
X158617143Y-89885390D02*
X158664762Y-89837771D01*
X158664762Y-89837771D02*
X158760000Y-89790152D01*
X158760000Y-89790152D02*
X158855238Y-89790152D01*
X159569524Y-90409200D02*
X159474286Y-90456819D01*
X159474286Y-90456819D02*
X159283810Y-90456819D01*
X159283810Y-90456819D02*
X159188572Y-90409200D01*
X159188572Y-90409200D02*
X159140953Y-90313961D01*
X159140953Y-90313961D02*
X159140953Y-89933009D01*
X159140953Y-89933009D02*
X159188572Y-89837771D01*
X159188572Y-89837771D02*
X159283810Y-89790152D01*
X159283810Y-89790152D02*
X159474286Y-89790152D01*
X159474286Y-89790152D02*
X159569524Y-89837771D01*
X159569524Y-89837771D02*
X159617143Y-89933009D01*
X159617143Y-89933009D02*
X159617143Y-90028247D01*
X159617143Y-90028247D02*
X159140953Y-90123485D01*
X160474286Y-90456819D02*
X160474286Y-89933009D01*
X160474286Y-89933009D02*
X160426667Y-89837771D01*
X160426667Y-89837771D02*
X160331429Y-89790152D01*
X160331429Y-89790152D02*
X160140953Y-89790152D01*
X160140953Y-89790152D02*
X160045715Y-89837771D01*
X160474286Y-90409200D02*
X160379048Y-90456819D01*
X160379048Y-90456819D02*
X160140953Y-90456819D01*
X160140953Y-90456819D02*
X160045715Y-90409200D01*
X160045715Y-90409200D02*
X159998096Y-90313961D01*
X159998096Y-90313961D02*
X159998096Y-90218723D01*
X159998096Y-90218723D02*
X160045715Y-90123485D01*
X160045715Y-90123485D02*
X160140953Y-90075866D01*
X160140953Y-90075866D02*
X160379048Y-90075866D01*
X160379048Y-90075866D02*
X160474286Y-90028247D01*
%TO.C,U5*%
D13*
X148960000Y-103552000D02*
X148960000Y-104352000D01*
X148960000Y-104352000D02*
X149760000Y-104352000D01*
X149160000Y-87552000D02*
X162360000Y-87552000D01*
X149160000Y-92952000D02*
X162360000Y-92952000D01*
X149160000Y-104152000D02*
X149160000Y-87552000D01*
X149835000Y-87352000D02*
X148985000Y-87352000D01*
X161810000Y-87352000D02*
X162560000Y-87352000D01*
X162360000Y-87552000D02*
X162360000Y-104152000D01*
X162360000Y-104152000D02*
X149160000Y-104152000D01*
X162560000Y-87352000D02*
X162560000Y-87952000D01*
X162560000Y-103552000D02*
X162560000Y-104352000D01*
X162560000Y-104352000D02*
X161760000Y-104352000D01*
%TO.C,D2*%
X181255000Y-106985000D02*
X183540000Y-106985000D01*
X183540000Y-105515000D02*
X181255000Y-105515000D01*
X183540000Y-106985000D02*
X183540000Y-105515000D01*
%TO.C,R9*%
X170133742Y-109205500D02*
X170608258Y-109205500D01*
X170133742Y-110250500D02*
X170608258Y-110250500D01*
%TO.C,D3*%
X181255000Y-105461000D02*
X183540000Y-105461000D01*
X183540000Y-103991000D02*
X181255000Y-103991000D01*
X183540000Y-105461000D02*
X183540000Y-103991000D01*
%TO.C,R10*%
X170133742Y-110729500D02*
X170608258Y-110729500D01*
X170133742Y-111774500D02*
X170608258Y-111774500D01*
%TO.C,R11*%
X173177500Y-106987258D02*
X173177500Y-106512742D01*
X174222500Y-106987258D02*
X174222500Y-106512742D01*
%TO.C,R8*%
X164762742Y-105501500D02*
X165237258Y-105501500D01*
X164762742Y-106546500D02*
X165237258Y-106546500D01*
D14*
%TO.C,G\u002A\u002A\u002A*%
G36*
X139733640Y-97743183D02*
G01*
X139804090Y-97773985D01*
X139858729Y-97826090D01*
X139894269Y-97893018D01*
X139904867Y-97962328D01*
X139893451Y-98029495D01*
X139862953Y-98089994D01*
X139816304Y-98139300D01*
X139756432Y-98172888D01*
X139686270Y-98186233D01*
X139629292Y-98180380D01*
X139558399Y-98151454D01*
X139504011Y-98099748D01*
X139477777Y-98055710D01*
X139455608Y-97980759D01*
X139459260Y-97907940D01*
X139485978Y-97842221D01*
X139533007Y-97788569D01*
X139597592Y-97751951D01*
X139653513Y-97738911D01*
X139733640Y-97743183D01*
G37*
G36*
X139734319Y-92430702D02*
G01*
X139795325Y-92454435D01*
X139845543Y-92494486D01*
X139882707Y-92546813D01*
X139904549Y-92607376D01*
X139908800Y-92672134D01*
X139893194Y-92737046D01*
X139855463Y-92798072D01*
X139809073Y-92840479D01*
X139758360Y-92863784D01*
X139694998Y-92874799D01*
X139633147Y-92871537D01*
X139616947Y-92867460D01*
X139551598Y-92832679D01*
X139502205Y-92777155D01*
X139472220Y-92705996D01*
X139464525Y-92641894D01*
X139476084Y-92564231D01*
X139511026Y-92503116D01*
X139569949Y-92457621D01*
X139589015Y-92448349D01*
X139664793Y-92427326D01*
X139734319Y-92430702D01*
G37*
G36*
X144663916Y-92441395D02*
G01*
X144729568Y-92484272D01*
X144768578Y-92527367D01*
X144789995Y-92569986D01*
X144798287Y-92626774D01*
X144798615Y-92644771D01*
X144785609Y-92722483D01*
X144749305Y-92787426D01*
X144693771Y-92835532D01*
X144623076Y-92862732D01*
X144576060Y-92867326D01*
X144505094Y-92856954D01*
X144461047Y-92835020D01*
X144401800Y-92785262D01*
X144367391Y-92730810D01*
X144354011Y-92664974D01*
X144353505Y-92646190D01*
X144357387Y-92591879D01*
X144372309Y-92550234D01*
X144394883Y-92516494D01*
X144453359Y-92460445D01*
X144520938Y-92429340D01*
X144592748Y-92423037D01*
X144663916Y-92441395D01*
G37*
G36*
X142160752Y-95175913D02*
G01*
X142208436Y-95202390D01*
X142238486Y-95229120D01*
X142260418Y-95265708D01*
X142269040Y-95285233D01*
X142298560Y-95355542D01*
X142270233Y-95435996D01*
X142251721Y-95482824D01*
X142231491Y-95512774D01*
X142200604Y-95535842D01*
X142163392Y-95555475D01*
X142120934Y-95575866D01*
X142089667Y-95589556D01*
X142077699Y-95593355D01*
X142061375Y-95587976D01*
X142026916Y-95575332D01*
X141996438Y-95563768D01*
X141954314Y-95545623D01*
X141927122Y-95525672D01*
X141906354Y-95495257D01*
X141885904Y-95451273D01*
X141849452Y-95367223D01*
X141885521Y-95283628D01*
X141907522Y-95236526D01*
X141928528Y-95207453D01*
X141957525Y-95187509D01*
X142001786Y-95168468D01*
X142081982Y-95136903D01*
X142160752Y-95175913D01*
G37*
G36*
X142268469Y-94180422D02*
G01*
X142436791Y-94223748D01*
X142597565Y-94292074D01*
X142747902Y-94384823D01*
X142884914Y-94501419D01*
X142918344Y-94535941D01*
X142956195Y-94579369D01*
X143005558Y-94639992D01*
X143061462Y-94711492D01*
X143118934Y-94787553D01*
X143153897Y-94835229D01*
X143202700Y-94902311D01*
X143264754Y-94987053D01*
X143336123Y-95084110D01*
X143412868Y-95188136D01*
X143491052Y-95293788D01*
X143566739Y-95395721D01*
X143571100Y-95401583D01*
X143674998Y-95541331D01*
X143784771Y-95689217D01*
X143897395Y-95841150D01*
X144009843Y-95993041D01*
X144119093Y-96140799D01*
X144222119Y-96280335D01*
X144315896Y-96407560D01*
X144397400Y-96518383D01*
X144440332Y-96576911D01*
X144493025Y-96648755D01*
X144549454Y-96725548D01*
X144602460Y-96797557D01*
X144640948Y-96849720D01*
X144728840Y-96969486D01*
X144830008Y-97108822D01*
X144941514Y-97263598D01*
X145060418Y-97429683D01*
X145183779Y-97602949D01*
X145308659Y-97779266D01*
X145432118Y-97954502D01*
X145551216Y-98124529D01*
X145663013Y-98285216D01*
X145674625Y-98301978D01*
X145737348Y-98392527D01*
X145811481Y-98499474D01*
X145892041Y-98615637D01*
X145974048Y-98733834D01*
X146052520Y-98846884D01*
X146097886Y-98912210D01*
X146232620Y-99106263D01*
X146353335Y-99280342D01*
X146462466Y-99438012D01*
X146562447Y-99582836D01*
X146655711Y-99718378D01*
X146744692Y-99848202D01*
X146831825Y-99975872D01*
X146919543Y-100104951D01*
X147010279Y-100239003D01*
X147106468Y-100381592D01*
X147210543Y-100536281D01*
X147324939Y-100706635D01*
X147411872Y-100836235D01*
X147522241Y-101001581D01*
X147619577Y-101148967D01*
X147703331Y-101277531D01*
X147772952Y-101386408D01*
X147827890Y-101474734D01*
X147867594Y-101541644D01*
X147891515Y-101586274D01*
X147896360Y-101597230D01*
X147941886Y-101738877D01*
X147964829Y-101880113D01*
X147968783Y-101985007D01*
X147954019Y-102146003D01*
X147912891Y-102299524D01*
X147847350Y-102442870D01*
X147759350Y-102573340D01*
X147650843Y-102688234D01*
X147523782Y-102784850D01*
X147380118Y-102860489D01*
X147318668Y-102884188D01*
X147222641Y-102908957D01*
X147111634Y-102923890D01*
X146997061Y-102928326D01*
X146890337Y-102921604D01*
X146835727Y-102912149D01*
X146777444Y-102895450D01*
X146708379Y-102870820D01*
X146643258Y-102843522D01*
X146641889Y-102842888D01*
X146581583Y-102812784D01*
X146525893Y-102779630D01*
X146472002Y-102740704D01*
X146417095Y-102693284D01*
X146358356Y-102634647D01*
X146292970Y-102562073D01*
X146218121Y-102472837D01*
X146130993Y-102364219D01*
X146081163Y-102300791D01*
X146022771Y-102226207D01*
X145949184Y-102132411D01*
X145863014Y-102022719D01*
X145810701Y-101956190D01*
X146632739Y-101956190D01*
X146634089Y-102057826D01*
X146655210Y-102143917D01*
X146697918Y-102221331D01*
X146705578Y-102231677D01*
X146779099Y-102305927D01*
X146866871Y-102358174D01*
X146963798Y-102387132D01*
X147064782Y-102391510D01*
X147164724Y-102370021D01*
X147198294Y-102356252D01*
X147274221Y-102308094D01*
X147343231Y-102240840D01*
X147393843Y-102167168D01*
X147413558Y-102111180D01*
X147424923Y-102039490D01*
X147427744Y-101962071D01*
X147421825Y-101888896D01*
X147406973Y-101829935D01*
X147400681Y-101816389D01*
X147337770Y-101727879D01*
X147256682Y-101656059D01*
X147212118Y-101628976D01*
X147130278Y-101599637D01*
X147038390Y-101588413D01*
X146946785Y-101595445D01*
X146865794Y-101620870D01*
X146859045Y-101624238D01*
X146765299Y-101685850D01*
X146696821Y-101760752D01*
X146652908Y-101849971D01*
X146632859Y-101954537D01*
X146632739Y-101956190D01*
X145810701Y-101956190D01*
X145766872Y-101900451D01*
X145663367Y-101768924D01*
X145555113Y-101631457D01*
X145444718Y-101491368D01*
X145334794Y-101351974D01*
X145257762Y-101254353D01*
X145104725Y-101060464D01*
X144968458Y-100887798D01*
X144847928Y-100735044D01*
X144742102Y-100600892D01*
X144649949Y-100484030D01*
X144570435Y-100383149D01*
X144502529Y-100296937D01*
X144445198Y-100224085D01*
X144397409Y-100163281D01*
X144358130Y-100113214D01*
X144326329Y-100072575D01*
X144300974Y-100040052D01*
X144283715Y-100017807D01*
X144254453Y-99980154D01*
X144211773Y-99925466D01*
X144160006Y-99859279D01*
X144103484Y-99787134D01*
X144059158Y-99730639D01*
X144001932Y-99657686D01*
X143946108Y-99586398D01*
X143896018Y-99522316D01*
X143855990Y-99470976D01*
X143834641Y-99443471D01*
X143807892Y-99409199D01*
X143766739Y-99356888D01*
X143714675Y-99290958D01*
X143655192Y-99215829D01*
X143591783Y-99135921D01*
X143561004Y-99097197D01*
X143486835Y-99003906D01*
X143401131Y-98896054D01*
X143310200Y-98781581D01*
X143220351Y-98668429D01*
X143137889Y-98564539D01*
X143116212Y-98537220D01*
X143035388Y-98435353D01*
X142943483Y-98319529D01*
X142847272Y-98198286D01*
X142753528Y-98080157D01*
X142669024Y-97973679D01*
X142650387Y-97950198D01*
X142559258Y-97835270D01*
X142453459Y-97701650D01*
X142336061Y-97553228D01*
X142210135Y-97393890D01*
X142078753Y-97227528D01*
X141944984Y-97058029D01*
X141811901Y-96889284D01*
X141682573Y-96725179D01*
X141560073Y-96569606D01*
X141534513Y-96537125D01*
X141465273Y-96449306D01*
X141394774Y-96360209D01*
X141384168Y-96346850D01*
X142725738Y-96346850D01*
X142732514Y-96356416D01*
X142746418Y-96375464D01*
X142773632Y-96412883D01*
X142810610Y-96463794D01*
X142853808Y-96523319D01*
X142868139Y-96543075D01*
X142899618Y-96586121D01*
X142946234Y-96649367D01*
X143005916Y-96730025D01*
X143076592Y-96825305D01*
X143156190Y-96932420D01*
X143242639Y-97048580D01*
X143333867Y-97170996D01*
X143427803Y-97296879D01*
X143476076Y-97361504D01*
X143619351Y-97553318D01*
X143746176Y-97723284D01*
X143857363Y-97872506D01*
X143953725Y-98002086D01*
X144036071Y-98113127D01*
X144105215Y-98206732D01*
X144161967Y-98284004D01*
X144207138Y-98346045D01*
X144241542Y-98393959D01*
X144265988Y-98428848D01*
X144281289Y-98451815D01*
X144288256Y-98463963D01*
X144288892Y-98466096D01*
X144275530Y-98472150D01*
X144238340Y-98482707D01*
X144181664Y-98496698D01*
X144109844Y-98513052D01*
X144027223Y-98530700D01*
X144023262Y-98531520D01*
X143940291Y-98548879D01*
X143867910Y-98564431D01*
X143810454Y-98577212D01*
X143772260Y-98586257D01*
X143757664Y-98590599D01*
X143757631Y-98590673D01*
X143768156Y-98601623D01*
X143798918Y-98630562D01*
X143848694Y-98676393D01*
X143916265Y-98738022D01*
X144000409Y-98814351D01*
X144099905Y-98904285D01*
X144213532Y-99006727D01*
X144340070Y-99120581D01*
X144478296Y-99244751D01*
X144626990Y-99378141D01*
X144784932Y-99519655D01*
X144950900Y-99668197D01*
X145123672Y-99822670D01*
X145302029Y-99981979D01*
X145484748Y-100145027D01*
X145670610Y-100310718D01*
X145858393Y-100477956D01*
X146032853Y-100633176D01*
X146132730Y-100722007D01*
X146230831Y-100809282D01*
X146323939Y-100892136D01*
X146408836Y-100967707D01*
X146482306Y-101033131D01*
X146541133Y-101085544D01*
X146582100Y-101122084D01*
X146585651Y-101125256D01*
X146644061Y-101176226D01*
X146686464Y-101210663D01*
X146711661Y-101227753D01*
X146718456Y-101226688D01*
X146705651Y-101206655D01*
X146705384Y-101206311D01*
X146694428Y-101191797D01*
X146667799Y-101156356D01*
X146627041Y-101102045D01*
X146573696Y-101030924D01*
X146509308Y-100945049D01*
X146435419Y-100846477D01*
X146353571Y-100737268D01*
X146265309Y-100619478D01*
X146174907Y-100498813D01*
X146069263Y-100357937D01*
X145958441Y-100210419D01*
X145845485Y-100060294D01*
X145733438Y-99911596D01*
X145625342Y-99768361D01*
X145524242Y-99634621D01*
X145433179Y-99514413D01*
X145355198Y-99411769D01*
X145331641Y-99380849D01*
X145257658Y-99283591D01*
X145189158Y-99193081D01*
X145128109Y-99111953D01*
X145076478Y-99042841D01*
X145036230Y-98988379D01*
X145009334Y-98951201D01*
X144997757Y-98933942D01*
X144997530Y-98933447D01*
X144995345Y-98924965D01*
X144998488Y-98917740D01*
X145010584Y-98910643D01*
X145035258Y-98902544D01*
X145076136Y-98892316D01*
X145136843Y-98878830D01*
X145221005Y-98860956D01*
X145249891Y-98854880D01*
X145323149Y-98839209D01*
X145385779Y-98825292D01*
X145432703Y-98814298D01*
X145458843Y-98807396D01*
X145462466Y-98805944D01*
X145453553Y-98795393D01*
X145425749Y-98768046D01*
X145381570Y-98726249D01*
X145323532Y-98672347D01*
X145254151Y-98608686D01*
X145175942Y-98537613D01*
X145135404Y-98501011D01*
X145046383Y-98420758D01*
X144958209Y-98341185D01*
X144874807Y-98265840D01*
X144800100Y-98198271D01*
X144738011Y-98142024D01*
X144692465Y-98100646D01*
X144684935Y-98093782D01*
X144505444Y-97930072D01*
X144344419Y-97783376D01*
X144199183Y-97651277D01*
X144067055Y-97531357D01*
X143945357Y-97421202D01*
X143831411Y-97318392D01*
X143722539Y-97220512D01*
X143616060Y-97125146D01*
X143509298Y-97029875D01*
X143399573Y-96932283D01*
X143284206Y-96829953D01*
X143283783Y-96829579D01*
X143180235Y-96737916D01*
X143082541Y-96651591D01*
X142992947Y-96572576D01*
X142913700Y-96502844D01*
X142847046Y-96444371D01*
X142795230Y-96399129D01*
X142760499Y-96369093D01*
X142745344Y-96356416D01*
X142725876Y-96342698D01*
X142725738Y-96346850D01*
X141384168Y-96346850D01*
X141327211Y-96275112D01*
X141266779Y-96199295D01*
X141217673Y-96138036D01*
X141197897Y-96113552D01*
X141079785Y-95949482D01*
X140990041Y-95783597D01*
X140928740Y-95616128D01*
X140895958Y-95447309D01*
X140893496Y-95347348D01*
X141466110Y-95347348D01*
X141466356Y-95372919D01*
X141475835Y-95412045D01*
X141495687Y-95468174D01*
X141527055Y-95544755D01*
X141545943Y-95588434D01*
X141577738Y-95659656D01*
X141606831Y-95722194D01*
X141630767Y-95770961D01*
X141647089Y-95800870D01*
X141651535Y-95807073D01*
X141671011Y-95819006D01*
X141711204Y-95838799D01*
X141766077Y-95863886D01*
X141829589Y-95891698D01*
X141895703Y-95919670D01*
X141958379Y-95945232D01*
X142011578Y-95965820D01*
X142049262Y-95978864D01*
X142063341Y-95982141D01*
X142083464Y-95977357D01*
X142125125Y-95963464D01*
X142183301Y-95942268D01*
X142252967Y-95915579D01*
X142300254Y-95896855D01*
X142515630Y-95810521D01*
X142605813Y-95584514D01*
X142635546Y-95509364D01*
X142661096Y-95443569D01*
X142680720Y-95391719D01*
X142692673Y-95358407D01*
X142695553Y-95348301D01*
X142688751Y-95326942D01*
X142671044Y-95286375D01*
X142645182Y-95231929D01*
X142613913Y-95168934D01*
X142579987Y-95102719D01*
X142546153Y-95038613D01*
X142515160Y-94981945D01*
X142489757Y-94938044D01*
X142472694Y-94912240D01*
X142468356Y-94907890D01*
X142446518Y-94898165D01*
X142403459Y-94880454D01*
X142344784Y-94857015D01*
X142276099Y-94830104D01*
X142252717Y-94821049D01*
X142061595Y-94747252D01*
X141855231Y-94834876D01*
X141783342Y-94866108D01*
X141720642Y-94894682D01*
X141672023Y-94918263D01*
X141642377Y-94934520D01*
X141635937Y-94939486D01*
X141623645Y-94961769D01*
X141603632Y-95004574D01*
X141578510Y-95061626D01*
X141550891Y-95126655D01*
X141523386Y-95193388D01*
X141498607Y-95255552D01*
X141479165Y-95306875D01*
X141467673Y-95341084D01*
X141466110Y-95347348D01*
X140893496Y-95347348D01*
X140891772Y-95277374D01*
X140899617Y-95197816D01*
X140938185Y-95017078D01*
X141001685Y-94847243D01*
X141088373Y-94690703D01*
X141196503Y-94549848D01*
X141324335Y-94427068D01*
X141470122Y-94324752D01*
X141577449Y-94268624D01*
X141747087Y-94206196D01*
X141920729Y-94171070D01*
X142095485Y-94162671D01*
X142268469Y-94180422D01*
G37*
G36*
X142275076Y-89768544D02*
G01*
X142309707Y-89773474D01*
X142313969Y-89774832D01*
X142346142Y-89802415D01*
X142367645Y-89855811D01*
X142378160Y-89934046D01*
X142379225Y-89975320D01*
X142381417Y-90037572D01*
X142387173Y-90096301D01*
X142395267Y-90139163D01*
X142395615Y-90140347D01*
X142433282Y-90219151D01*
X142491777Y-90283366D01*
X142566137Y-90331039D01*
X142651400Y-90360212D01*
X142742604Y-90368932D01*
X142834787Y-90355243D01*
X142889535Y-90334981D01*
X142948201Y-90302558D01*
X142993650Y-90263618D01*
X143029755Y-90212665D01*
X143060392Y-90144203D01*
X143089436Y-90052734D01*
X143090062Y-90050508D01*
X143120095Y-89970872D01*
X143158443Y-89913507D01*
X143203062Y-89881457D01*
X143203816Y-89881167D01*
X143243154Y-89876557D01*
X143298084Y-89882505D01*
X143358628Y-89896496D01*
X143414810Y-89916011D01*
X143456654Y-89938535D01*
X143466874Y-89947527D01*
X143486574Y-89975895D01*
X143496504Y-90010749D01*
X143496877Y-90057680D01*
X143487905Y-90122279D01*
X143475804Y-90182747D01*
X143464239Y-90240893D01*
X143459715Y-90282119D01*
X143462197Y-90317337D01*
X143471653Y-90357458D01*
X143475247Y-90370028D01*
X143513365Y-90453024D01*
X143572152Y-90520997D01*
X143646499Y-90571586D01*
X143731299Y-90602429D01*
X143821444Y-90611162D01*
X143911826Y-90595424D01*
X143939815Y-90584897D01*
X143992330Y-90559023D01*
X144032545Y-90529270D01*
X144066502Y-90489137D01*
X144100245Y-90432121D01*
X144122112Y-90388725D01*
X144163394Y-90316339D01*
X144207779Y-90260002D01*
X144251588Y-90223604D01*
X144290309Y-90211023D01*
X144321157Y-90217504D01*
X144367256Y-90234262D01*
X144419922Y-90257271D01*
X144470472Y-90282503D01*
X144510223Y-90305933D01*
X144529395Y-90321889D01*
X144543839Y-90353792D01*
X144544774Y-90396513D01*
X144531597Y-90454266D01*
X144503705Y-90531268D01*
X144497089Y-90547464D01*
X144471519Y-90616459D01*
X144453942Y-90678636D01*
X144446871Y-90724992D01*
X144446834Y-90727574D01*
X144460434Y-90814130D01*
X144498653Y-90893161D01*
X144557624Y-90960758D01*
X144633480Y-91013016D01*
X144722352Y-91046027D01*
X144770026Y-91054049D01*
X144856329Y-91051224D01*
X144935095Y-91023219D01*
X145008522Y-90968853D01*
X145077440Y-90888832D01*
X145136928Y-90817588D01*
X145194613Y-90768829D01*
X145247800Y-90744628D01*
X145267922Y-90742284D01*
X145288000Y-90750482D01*
X145323885Y-90772279D01*
X145368843Y-90803481D01*
X145383055Y-90814019D01*
X145436252Y-90856461D01*
X145471332Y-90893270D01*
X145488469Y-90929415D01*
X145487836Y-90969868D01*
X145469605Y-91019600D01*
X145433951Y-91083580D01*
X145394608Y-91145875D01*
X145346317Y-91239850D01*
X145326276Y-91329282D01*
X145334536Y-91415056D01*
X145371147Y-91498060D01*
X145418421Y-91560344D01*
X145495922Y-91630653D01*
X145578026Y-91673419D01*
X145666885Y-91689709D01*
X145679471Y-91689938D01*
X145767076Y-91679789D01*
X145844919Y-91647306D01*
X145917155Y-91592481D01*
X145989865Y-91532874D01*
X146059171Y-91489473D01*
X146114923Y-91467215D01*
X146140596Y-91465114D01*
X146166629Y-91475355D01*
X146200778Y-91501732D01*
X146218926Y-91518091D01*
X146260274Y-91559714D01*
X146297067Y-91602661D01*
X146314464Y-91627005D01*
X146333353Y-91663415D01*
X146336099Y-91693870D01*
X146327643Y-91726262D01*
X146309605Y-91760543D01*
X146276853Y-91805776D01*
X146235734Y-91853393D01*
X146225747Y-91863795D01*
X146161144Y-91935293D01*
X146118101Y-91998081D01*
X146093514Y-92058163D01*
X146084282Y-92121541D01*
X146084007Y-92138066D01*
X146095036Y-92224356D01*
X146129017Y-92301964D01*
X146188438Y-92376048D01*
X146208023Y-92395054D01*
X146284024Y-92453637D01*
X146360045Y-92486042D01*
X146439408Y-92492489D01*
X146525435Y-92473196D01*
X146621445Y-92428382D01*
X146631096Y-92422868D01*
X146720293Y-92377663D01*
X146792877Y-92354922D01*
X146848455Y-92354746D01*
X146867744Y-92362018D01*
X146886940Y-92381209D01*
X146913709Y-92418976D01*
X146943052Y-92468076D01*
X146950636Y-92482088D01*
X146977700Y-92534179D01*
X146992818Y-92568648D01*
X146997625Y-92593178D01*
X146993755Y-92615449D01*
X146984217Y-92639883D01*
X146962636Y-92675444D01*
X146925211Y-92712749D01*
X146867199Y-92756365D01*
X146853717Y-92765568D01*
X146772443Y-92827578D01*
X146716432Y-92888565D01*
X146682767Y-92953033D01*
X146668532Y-93025486D01*
X146667599Y-93052990D01*
X146681204Y-93146785D01*
X146719578Y-93231845D01*
X146779064Y-93303492D01*
X146856002Y-93357052D01*
X146926052Y-93383333D01*
X146958773Y-93390305D01*
X146988543Y-93392092D01*
X147022753Y-93387701D01*
X147068792Y-93376134D01*
X147134050Y-93356396D01*
X147140187Y-93354477D01*
X147286705Y-93308594D01*
X147340587Y-93335642D01*
X147372515Y-93355372D01*
X147395609Y-93381597D01*
X147416088Y-93422722D01*
X147428284Y-93454179D01*
X147445711Y-93505971D01*
X147457920Y-93551113D01*
X147462097Y-93577878D01*
X147450512Y-93620540D01*
X147414728Y-93662680D01*
X147353200Y-93705725D01*
X147285400Y-93741300D01*
X147212167Y-93778790D01*
X147159831Y-93813282D01*
X147121979Y-93850663D01*
X147092202Y-93896822D01*
X147073366Y-93936066D01*
X147050131Y-94022047D01*
X147052953Y-94109869D01*
X147080054Y-94194306D01*
X147129658Y-94270130D01*
X147199988Y-94332116D01*
X147210232Y-94338682D01*
X147241279Y-94357037D01*
X147268325Y-94369328D01*
X147298191Y-94376769D01*
X147337702Y-94380575D01*
X147393679Y-94381958D01*
X147454488Y-94382137D01*
X147545746Y-94383305D01*
X147612530Y-94388744D01*
X147659051Y-94401351D01*
X147689519Y-94424027D01*
X147708144Y-94459671D01*
X147719137Y-94511182D01*
X147725549Y-94568796D01*
X147723965Y-94640365D01*
X147706534Y-94699592D01*
X147675388Y-94740295D01*
X147663787Y-94747916D01*
X147635027Y-94758546D01*
X147587681Y-94771340D01*
X147531482Y-94783694D01*
X147525777Y-94784800D01*
X147467549Y-94797640D01*
X147415621Y-94812045D01*
X147380651Y-94825036D01*
X147379146Y-94825798D01*
X147308572Y-94877625D01*
X147257056Y-94946065D01*
X147225058Y-95025850D01*
X147213041Y-95111711D01*
X147221465Y-95198378D01*
X147250793Y-95280583D01*
X147301486Y-95353057D01*
X147330571Y-95380417D01*
X147371133Y-95409216D01*
X147416164Y-95429819D01*
X147472899Y-95444496D01*
X147548578Y-95455520D01*
X147580848Y-95458931D01*
X147643595Y-95468084D01*
X147687710Y-95482841D01*
X147722502Y-95505939D01*
X147744107Y-95525157D01*
X147756900Y-95543027D01*
X147762704Y-95567064D01*
X147763339Y-95604783D01*
X147760644Y-95663358D01*
X147755714Y-95730964D01*
X147746273Y-95779496D01*
X147728015Y-95812366D01*
X147696638Y-95832987D01*
X147647838Y-95844773D01*
X147577310Y-95851137D01*
X147520400Y-95853872D01*
X147446663Y-95857400D01*
X147394874Y-95861643D01*
X147358273Y-95868062D01*
X147330103Y-95878118D01*
X147303603Y-95893271D01*
X147287424Y-95904215D01*
X147220081Y-95967410D01*
X147174138Y-96045770D01*
X147150983Y-96133864D01*
X147152000Y-96226265D01*
X147178577Y-96317543D01*
X147180704Y-96322200D01*
X147213650Y-96378951D01*
X147256539Y-96423823D01*
X147314932Y-96460934D01*
X147394388Y-96494400D01*
X147429635Y-96506485D01*
X147510786Y-96538194D01*
X147565593Y-96572174D01*
X147596428Y-96610398D01*
X147605681Y-96652916D01*
X147601170Y-96693027D01*
X147589520Y-96746164D01*
X147573559Y-96802586D01*
X147556111Y-96852554D01*
X147540003Y-96886325D01*
X147536611Y-96890985D01*
X147498666Y-96916799D01*
X147442207Y-96925125D01*
X147365498Y-96916058D01*
X147312748Y-96903338D01*
X147244075Y-96885622D01*
X147193785Y-96876435D01*
X147153024Y-96875201D01*
X147112939Y-96881347D01*
X147084797Y-96888540D01*
X147013826Y-96922213D01*
X146951471Y-96978103D01*
X146902045Y-97050036D01*
X146869861Y-97131837D01*
X146859185Y-97211511D01*
X146871253Y-97295950D01*
X146896307Y-97358849D01*
X146919772Y-97400322D01*
X146946733Y-97432191D01*
X146984926Y-97461899D01*
X147036301Y-97493525D01*
X147116981Y-97543709D01*
X147172636Y-97587763D01*
X147205004Y-97629964D01*
X147215822Y-97674595D01*
X147206829Y-97725934D01*
X147179764Y-97788260D01*
X147166277Y-97813582D01*
X147129586Y-97874370D01*
X147095068Y-97913723D01*
X147057505Y-97932788D01*
X147011682Y-97932712D01*
X146952381Y-97914645D01*
X146874387Y-97879732D01*
X146871641Y-97878406D01*
X146771166Y-97838317D01*
X146683186Y-97822506D01*
X146604438Y-97831242D01*
X146531656Y-97864796D01*
X146473699Y-97911440D01*
X146409419Y-97990598D01*
X146371910Y-98078155D01*
X146361855Y-98171927D01*
X146371395Y-98239598D01*
X146381799Y-98275137D01*
X146396837Y-98306446D01*
X146420755Y-98339427D01*
X146457803Y-98379982D01*
X146509325Y-98431186D01*
X146561431Y-98482756D01*
X146595928Y-98519944D01*
X146616363Y-98547783D01*
X146626285Y-98571307D01*
X146629242Y-98595548D01*
X146629310Y-98601392D01*
X146625378Y-98634669D01*
X146611108Y-98669015D01*
X146582788Y-98711727D01*
X146554942Y-98747614D01*
X146516640Y-98793892D01*
X146488983Y-98821652D01*
X146465615Y-98835522D01*
X146440185Y-98840131D01*
X146427556Y-98840418D01*
X146398345Y-98837054D01*
X146366222Y-98824978D01*
X146325531Y-98801216D01*
X146270619Y-98762791D01*
X146247366Y-98745606D01*
X146120193Y-98650794D01*
X145764520Y-98136960D01*
X145689980Y-98029123D01*
X145620742Y-97928667D01*
X145558471Y-97838025D01*
X145504828Y-97759633D01*
X145461478Y-97695925D01*
X145430084Y-97649337D01*
X145412310Y-97622302D01*
X145408847Y-97616356D01*
X145421858Y-97611593D01*
X145455654Y-97606074D01*
X145494155Y-97601849D01*
X145599513Y-97579565D01*
X145702354Y-97534582D01*
X145791843Y-97471688D01*
X145794757Y-97469079D01*
X145848906Y-97409652D01*
X145908116Y-97325749D01*
X145970489Y-97220756D01*
X146034124Y-97098056D01*
X146097122Y-96961035D01*
X146145302Y-96844601D01*
X146251586Y-96536592D01*
X146331834Y-96218991D01*
X146386018Y-95894380D01*
X146414113Y-95565342D01*
X146416089Y-95234458D01*
X146391921Y-94904312D01*
X146341581Y-94577486D01*
X146265040Y-94256563D01*
X146175632Y-93980102D01*
X146140131Y-93889004D01*
X146097341Y-93788839D01*
X146049509Y-93684026D01*
X145998883Y-93578987D01*
X145947709Y-93478142D01*
X145898235Y-93385910D01*
X145852706Y-93306713D01*
X145813372Y-93244970D01*
X145782478Y-93205102D01*
X145780758Y-93203314D01*
X145691192Y-93129757D01*
X145590962Y-93078449D01*
X145485189Y-93051173D01*
X145378995Y-93049709D01*
X145351322Y-93053894D01*
X145258877Y-93078697D01*
X145175527Y-93118375D01*
X145094755Y-93176840D01*
X145010049Y-93258005D01*
X145008180Y-93259982D01*
X144974964Y-93295060D01*
X144924596Y-93348094D01*
X144859754Y-93416270D01*
X144783117Y-93496776D01*
X144697363Y-93586797D01*
X144605171Y-93683522D01*
X144509219Y-93784135D01*
X144453111Y-93842944D01*
X144327254Y-93974866D01*
X144219718Y-94087690D01*
X144128978Y-94183074D01*
X144053509Y-94262678D01*
X143991788Y-94328161D01*
X143942291Y-94381181D01*
X143903493Y-94423397D01*
X143873870Y-94456468D01*
X143851898Y-94482052D01*
X143836052Y-94501810D01*
X143824809Y-94517398D01*
X143816644Y-94530477D01*
X143810032Y-94542705D01*
X143809904Y-94542956D01*
X143792068Y-94597570D01*
X143788039Y-94667236D01*
X143797950Y-94755200D01*
X143821936Y-94864709D01*
X143823467Y-94870651D01*
X143838324Y-94938949D01*
X143850734Y-95017233D01*
X143860548Y-95101211D01*
X143867619Y-95186592D01*
X143871798Y-95269082D01*
X143872939Y-95344389D01*
X143870893Y-95408221D01*
X143865512Y-95456285D01*
X143856648Y-95484289D01*
X143844742Y-95488327D01*
X143834060Y-95475524D01*
X143808283Y-95441849D01*
X143769172Y-95389681D01*
X143718487Y-95321398D01*
X143657989Y-95239377D01*
X143589439Y-95145998D01*
X143514597Y-95043637D01*
X143456431Y-94963827D01*
X143349052Y-94817099D01*
X143255928Y-94691882D01*
X143175120Y-94585971D01*
X143104688Y-94497161D01*
X143042692Y-94423247D01*
X142987194Y-94362025D01*
X142936254Y-94311290D01*
X142887932Y-94268838D01*
X142840289Y-94232463D01*
X142791386Y-94199962D01*
X142776336Y-94190732D01*
X142601521Y-94100877D01*
X142421707Y-94037817D01*
X142239270Y-94000838D01*
X142056585Y-93989223D01*
X141876025Y-94002259D01*
X141699966Y-94039230D01*
X141530782Y-94099421D01*
X141370849Y-94182117D01*
X141222539Y-94286603D01*
X141088230Y-94412164D01*
X140970294Y-94558085D01*
X140871106Y-94723651D01*
X140847964Y-94771380D01*
X140806582Y-94867184D01*
X140776412Y-94954196D01*
X140755861Y-95040360D01*
X140743335Y-95133616D01*
X140737241Y-95241909D01*
X140735953Y-95329791D01*
X140737814Y-95452830D01*
X140745479Y-95555641D01*
X140760751Y-95646429D01*
X140785429Y-95733402D01*
X140821316Y-95824767D01*
X140865154Y-95918485D01*
X140885790Y-95959629D01*
X140905763Y-95996806D01*
X140927390Y-96033252D01*
X140952987Y-96072202D01*
X140984872Y-96116892D01*
X141025363Y-96170559D01*
X141076777Y-96236437D01*
X141141430Y-96317764D01*
X141221641Y-96417774D01*
X141231426Y-96429947D01*
X141319708Y-96540115D01*
X141404712Y-96646892D01*
X141484671Y-96748000D01*
X141557812Y-96841160D01*
X141622365Y-96924094D01*
X141676561Y-96994524D01*
X141718628Y-97050172D01*
X141746797Y-97088760D01*
X141759297Y-97108010D01*
X141759688Y-97109725D01*
X141744011Y-97110037D01*
X141708518Y-97105934D01*
X141671104Y-97100021D01*
X141575612Y-97094690D01*
X141492033Y-97114791D01*
X141417572Y-97161087D01*
X141403883Y-97173226D01*
X141377680Y-97199064D01*
X141335756Y-97242104D01*
X141281849Y-97298427D01*
X141219698Y-97364118D01*
X141153043Y-97435261D01*
X141127858Y-97462322D01*
X141061188Y-97534054D01*
X140979604Y-97621773D01*
X140887779Y-97720458D01*
X140790382Y-97825094D01*
X140692084Y-97930660D01*
X140597554Y-98032140D01*
X140570068Y-98061638D01*
X140464598Y-98175401D01*
X140377437Y-98271182D01*
X140306869Y-98351585D01*
X140251176Y-98419210D01*
X140208642Y-98476660D01*
X140177550Y-98526536D01*
X140156184Y-98571440D01*
X140142827Y-98613973D01*
X140135761Y-98656737D01*
X140133271Y-98702334D01*
X140133182Y-98723732D01*
X140141602Y-98825018D01*
X140167765Y-98910524D01*
X140215068Y-98987795D01*
X140286181Y-99063707D01*
X140368051Y-99127738D01*
X140474877Y-99192640D01*
X140602993Y-99256967D01*
X140748731Y-99319269D01*
X140908426Y-99378101D01*
X141078410Y-99432015D01*
X141255017Y-99479563D01*
X141434580Y-99519298D01*
X141445930Y-99521511D01*
X141717375Y-99562493D01*
X141998740Y-99583305D01*
X142284975Y-99584352D01*
X142571032Y-99566034D01*
X142851860Y-99528756D01*
X143122411Y-99472919D01*
X143377634Y-99398926D01*
X143489346Y-99358576D01*
X143519305Y-99347532D01*
X143534403Y-99342962D01*
X143544529Y-99353676D01*
X143569358Y-99383359D01*
X143605949Y-99428326D01*
X143651359Y-99484891D01*
X143702648Y-99549368D01*
X143756873Y-99618070D01*
X143811091Y-99687312D01*
X143862362Y-99753408D01*
X143872472Y-99766535D01*
X143906102Y-99810150D01*
X143940119Y-99853995D01*
X143977153Y-99901411D01*
X144019833Y-99955741D01*
X144070788Y-100020327D01*
X144132648Y-100098510D01*
X144208042Y-100193631D01*
X144265968Y-100266652D01*
X144318421Y-100333224D01*
X144363735Y-100391625D01*
X144399243Y-100438346D01*
X144422278Y-100469875D01*
X144430176Y-100482701D01*
X144430116Y-100482796D01*
X144382930Y-100506809D01*
X144331722Y-100522064D01*
X144287873Y-100525666D01*
X144273405Y-100522651D01*
X144247820Y-100510438D01*
X144225498Y-100492246D01*
X144202975Y-100463381D01*
X144176782Y-100419150D01*
X144143455Y-100354858D01*
X144130950Y-100329750D01*
X144094553Y-100260603D01*
X144062993Y-100211914D01*
X144031499Y-100177079D01*
X144006043Y-100156766D01*
X143927945Y-100118380D01*
X143841807Y-100104683D01*
X143753359Y-100115165D01*
X143668331Y-100149313D01*
X143607811Y-100192277D01*
X143547235Y-100259614D01*
X143512639Y-100334220D01*
X143502263Y-100420804D01*
X143505210Y-100466598D01*
X143514805Y-100552827D01*
X143521309Y-100615150D01*
X143524681Y-100658215D01*
X143524880Y-100686671D01*
X143521864Y-100705166D01*
X143515592Y-100718350D01*
X143506021Y-100730870D01*
X143502814Y-100734805D01*
X143472830Y-100759058D01*
X143422924Y-100779730D01*
X143368836Y-100794356D01*
X143303278Y-100806770D01*
X143252743Y-100807132D01*
X143213717Y-100792464D01*
X143182684Y-100759785D01*
X143156129Y-100706115D01*
X143130538Y-100628475D01*
X143117395Y-100581186D01*
X143081317Y-100491588D01*
X143027004Y-100416188D01*
X142958908Y-100360353D01*
X142917282Y-100339961D01*
X142831627Y-100321790D01*
X142742362Y-100328015D01*
X142656538Y-100356368D01*
X142581205Y-100404578D01*
X142526431Y-100465717D01*
X142508410Y-100496028D01*
X142496254Y-100526943D01*
X142488295Y-100565946D01*
X142482867Y-100620519D01*
X142479425Y-100676710D01*
X142472874Y-100766317D01*
X142462068Y-100831166D01*
X142443603Y-100875202D01*
X142414077Y-100902370D01*
X142370086Y-100916615D01*
X142308228Y-100921884D01*
X142267528Y-100922385D01*
X142207030Y-100921166D01*
X142168048Y-100916560D01*
X142143448Y-100907142D01*
X142128904Y-100894718D01*
X142102278Y-100847174D01*
X142085040Y-100775230D01*
X142077867Y-100681852D01*
X142077726Y-100671114D01*
X142064636Y-100571923D01*
X142028566Y-100487909D01*
X141971894Y-100421474D01*
X141896996Y-100375019D01*
X141806249Y-100350948D01*
X141758139Y-100348050D01*
X141664307Y-100360276D01*
X141585542Y-100396941D01*
X141521868Y-100458023D01*
X141473306Y-100543499D01*
X141439881Y-100653348D01*
X141439573Y-100654805D01*
X141422210Y-100726672D01*
X141403944Y-100776965D01*
X141381989Y-100812763D01*
X141373606Y-100822446D01*
X141347553Y-100846443D01*
X141320286Y-100859493D01*
X141284750Y-100862462D01*
X141233883Y-100856219D01*
X141181605Y-100846051D01*
X141123717Y-100830138D01*
X141086137Y-100809101D01*
X141067936Y-100789795D01*
X141054940Y-100770428D01*
X141047625Y-100750610D01*
X141045584Y-100723593D01*
X141048414Y-100682629D01*
X141055710Y-100620969D01*
X141057137Y-100609735D01*
X141065955Y-100515731D01*
X141064345Y-100442427D01*
X141050944Y-100383273D01*
X141024390Y-100331720D01*
X140990357Y-100288873D01*
X140916546Y-100224858D01*
X140835259Y-100188443D01*
X140745586Y-100179376D01*
X140652201Y-100195750D01*
X140580511Y-100227197D01*
X140521020Y-100277893D01*
X140470729Y-100351086D01*
X140433238Y-100432735D01*
X140397587Y-100507455D01*
X140357650Y-100563563D01*
X140316422Y-100597564D01*
X140284274Y-100606501D01*
X140252820Y-100600508D01*
X140206692Y-100585082D01*
X140154864Y-100564054D01*
X140106307Y-100541253D01*
X140069994Y-100520510D01*
X140056755Y-100509383D01*
X140042572Y-100478879D01*
X140040882Y-100436812D01*
X140052095Y-100378528D01*
X140074703Y-100304974D01*
X140092686Y-100242643D01*
X140105564Y-100179954D01*
X140110597Y-100130299D01*
X140110599Y-100129587D01*
X140097338Y-100043917D01*
X140060123Y-99968605D01*
X140002808Y-99906839D01*
X139929249Y-99861806D01*
X139843298Y-99836695D01*
X139753538Y-99834210D01*
X139687731Y-99847320D01*
X139630616Y-99875328D01*
X139577279Y-99921946D01*
X139522807Y-99990887D01*
X139498943Y-100026563D01*
X139454648Y-100092097D01*
X139419159Y-100135902D01*
X139388226Y-100161826D01*
X139357601Y-100173715D01*
X139334220Y-100175749D01*
X139304205Y-100167339D01*
X139260739Y-100145432D01*
X139211235Y-100115011D01*
X139163109Y-100081060D01*
X139123776Y-100048563D01*
X139100650Y-100022503D01*
X139098088Y-100017037D01*
X139098847Y-99990592D01*
X139112899Y-99945330D01*
X139141001Y-99879096D01*
X139163435Y-99831469D01*
X139195469Y-99764012D01*
X139216500Y-99715173D01*
X139228515Y-99677961D01*
X139233505Y-99645385D01*
X139233456Y-99610453D01*
X139232160Y-99589864D01*
X139214116Y-99500053D01*
X139173083Y-99426005D01*
X139107319Y-99365015D01*
X139073187Y-99343377D01*
X139013203Y-99314403D01*
X138957458Y-99301699D01*
X138921981Y-99300022D01*
X138860751Y-99304082D01*
X138807111Y-99318703D01*
X138754820Y-99347185D01*
X138697636Y-99392829D01*
X138637862Y-99450265D01*
X138576898Y-99508694D01*
X138528146Y-99545210D01*
X138486042Y-99560449D01*
X138445020Y-99555052D01*
X138399516Y-99529655D01*
X138343966Y-99484899D01*
X138343041Y-99484096D01*
X138301171Y-99444611D01*
X138268363Y-99407966D01*
X138250742Y-99381124D01*
X138249677Y-99377954D01*
X138250260Y-99342085D01*
X138268869Y-99295891D01*
X138306965Y-99236538D01*
X138353245Y-99176700D01*
X138405538Y-99106466D01*
X138438365Y-99045488D01*
X138455154Y-98985688D01*
X138459384Y-98926569D01*
X138446556Y-98834233D01*
X138410483Y-98752872D01*
X138354778Y-98686233D01*
X138283054Y-98638065D01*
X138198924Y-98612114D01*
X138152830Y-98608640D01*
X138100593Y-98610845D01*
X138056693Y-98619569D01*
X138013415Y-98637995D01*
X137963045Y-98669304D01*
X137906346Y-98710326D01*
X137834001Y-98760324D01*
X137776443Y-98788971D01*
X137729319Y-98796323D01*
X137688272Y-98782433D01*
X137648948Y-98747358D01*
X137622732Y-98713898D01*
X137580443Y-98651759D01*
X137555586Y-98602579D01*
X137548988Y-98560382D01*
X137561476Y-98519189D01*
X137593876Y-98473025D01*
X137647015Y-98415910D01*
X137666679Y-98396190D01*
X137715083Y-98344941D01*
X137758034Y-98293910D01*
X137789533Y-98250500D01*
X137800497Y-98231068D01*
X137824816Y-98144388D01*
X137821339Y-98055000D01*
X137790488Y-97965543D01*
X137770936Y-97934462D01*
X139240192Y-97934462D01*
X139242397Y-98025002D01*
X139258430Y-98107494D01*
X139275943Y-98151215D01*
X139338793Y-98247539D01*
X139414433Y-98318578D01*
X139504354Y-98365186D01*
X139610046Y-98388215D01*
X139694206Y-98390763D01*
X139761174Y-98386995D01*
X139810322Y-98379260D01*
X139852508Y-98365049D01*
X139893274Y-98344773D01*
X139978969Y-98282728D01*
X140053133Y-98197926D01*
X140090808Y-98136857D01*
X140109374Y-98081470D01*
X140118729Y-98008794D01*
X140119047Y-97928680D01*
X140110503Y-97850980D01*
X140093271Y-97785544D01*
X140084248Y-97765503D01*
X140021251Y-97674137D01*
X139943412Y-97604015D01*
X139854696Y-97555112D01*
X139759066Y-97527400D01*
X139660486Y-97520853D01*
X139562920Y-97535445D01*
X139470332Y-97571148D01*
X139386686Y-97627935D01*
X139315946Y-97705781D01*
X139277131Y-97770945D01*
X139251781Y-97846301D01*
X139240192Y-97934462D01*
X137770936Y-97934462D01*
X137747367Y-97896994D01*
X137685106Y-97837672D01*
X137608706Y-97800646D01*
X137523179Y-97786809D01*
X137433533Y-97797056D01*
X137354810Y-97826915D01*
X137270941Y-97867669D01*
X137206132Y-97891629D01*
X137155787Y-97898285D01*
X137115311Y-97887124D01*
X137080110Y-97857635D01*
X137045587Y-97809305D01*
X137034805Y-97791279D01*
X137006495Y-97736392D01*
X136987223Y-97686591D01*
X136980750Y-97653780D01*
X136994738Y-97601861D01*
X137037177Y-97550699D01*
X137107806Y-97500568D01*
X137147804Y-97478878D01*
X137238325Y-97420898D01*
X137302416Y-97351690D01*
X137340079Y-97271251D01*
X137351316Y-97179578D01*
X137350434Y-97160486D01*
X137331506Y-97062168D01*
X137288748Y-96978115D01*
X137250051Y-96931919D01*
X137195761Y-96886625D01*
X137135491Y-96858436D01*
X137064379Y-96846507D01*
X136977563Y-96849995D01*
X136875690Y-96866905D01*
X136817935Y-96877896D01*
X136778843Y-96881897D01*
X136749239Y-96878974D01*
X136719949Y-96869188D01*
X136717095Y-96868007D01*
X136685373Y-96850901D01*
X136664751Y-96826501D01*
X136648266Y-96785550D01*
X136643580Y-96770322D01*
X136622813Y-96696345D01*
X136612020Y-96643385D01*
X136611241Y-96605517D01*
X136620515Y-96576813D01*
X136639881Y-96551349D01*
X136645068Y-96546024D01*
X136687339Y-96515597D01*
X136751477Y-96484828D01*
X136802132Y-96466114D01*
X136904366Y-96421318D01*
X136981329Y-96363178D01*
X137033454Y-96291157D01*
X137061173Y-96204717D01*
X137066304Y-96137912D01*
X137052868Y-96043492D01*
X137013084Y-95960135D01*
X136955013Y-95894313D01*
X136907646Y-95857731D01*
X136856779Y-95833094D01*
X136795493Y-95818442D01*
X136716865Y-95811815D01*
X136660342Y-95810877D01*
X136598196Y-95810115D01*
X136557393Y-95806851D01*
X136530571Y-95799476D01*
X136510369Y-95786381D01*
X136498810Y-95775554D01*
X136481870Y-95756134D01*
X136471421Y-95734468D01*
X136465922Y-95703342D01*
X136463830Y-95655544D01*
X136463567Y-95610724D01*
X136463567Y-95504863D01*
X137818876Y-95504863D01*
X137842979Y-95830064D01*
X137893729Y-96151393D01*
X137970916Y-96466162D01*
X138074328Y-96771682D01*
X138086038Y-96801457D01*
X138131400Y-96909264D01*
X138182021Y-97019264D01*
X138235305Y-97126597D01*
X138288656Y-97226399D01*
X138339478Y-97313810D01*
X138385175Y-97383968D01*
X138422140Y-97430928D01*
X138510237Y-97505910D01*
X138610437Y-97556434D01*
X138718574Y-97581705D01*
X138830480Y-97580928D01*
X138941990Y-97553310D01*
X138979854Y-97537296D01*
X138998985Y-97528217D01*
X139016684Y-97519180D01*
X139034421Y-97508725D01*
X139053667Y-97495393D01*
X139075894Y-97477724D01*
X139102574Y-97454259D01*
X139135176Y-97423538D01*
X139175173Y-97384101D01*
X139224037Y-97334489D01*
X139283237Y-97273242D01*
X139354246Y-97198901D01*
X139438534Y-97110005D01*
X139537574Y-97005096D01*
X139652835Y-96882713D01*
X139785791Y-96741397D01*
X139837280Y-96686659D01*
X139938909Y-96578204D01*
X140035145Y-96474706D01*
X140124067Y-96378285D01*
X140203756Y-96291059D01*
X140272293Y-96215148D01*
X140327758Y-96152669D01*
X140368232Y-96105743D01*
X140391795Y-96076488D01*
X140396584Y-96069248D01*
X140419165Y-96015687D01*
X140429901Y-95961458D01*
X140428980Y-95899341D01*
X140416590Y-95822120D01*
X140404408Y-95768331D01*
X140364911Y-95570203D01*
X140346643Y-95384397D01*
X140349790Y-95203693D01*
X140374536Y-95020873D01*
X140421069Y-94828718D01*
X140429322Y-94800695D01*
X140450304Y-94695080D01*
X140445894Y-94599919D01*
X140415923Y-94511938D01*
X140414309Y-94508755D01*
X140398644Y-94487745D01*
X140364657Y-94448750D01*
X140314486Y-94393934D01*
X140250270Y-94325464D01*
X140174146Y-94245506D01*
X140088251Y-94156226D01*
X139994724Y-94059789D01*
X139895701Y-93958361D01*
X139793320Y-93854108D01*
X139689720Y-93749196D01*
X139587037Y-93645791D01*
X139487410Y-93546059D01*
X139392976Y-93452165D01*
X139305872Y-93366275D01*
X139228237Y-93290556D01*
X139162208Y-93227173D01*
X139109922Y-93178292D01*
X139073518Y-93146079D01*
X139057174Y-93133711D01*
X138949862Y-93084857D01*
X138843465Y-93062402D01*
X138744551Y-93066444D01*
X138662085Y-93086124D01*
X138589605Y-93115904D01*
X138524250Y-93158617D01*
X138463158Y-93217094D01*
X138403465Y-93294167D01*
X138342310Y-93392669D01*
X138276831Y-93515431D01*
X138263161Y-93542746D01*
X138166034Y-93747907D01*
X138085160Y-93940715D01*
X138017382Y-94129984D01*
X137959546Y-94324527D01*
X137908550Y-94532900D01*
X137851451Y-94853593D01*
X137821630Y-95178476D01*
X137818876Y-95504863D01*
X136463567Y-95504863D01*
X136463567Y-95481138D01*
X136517411Y-95453937D01*
X136558929Y-95439049D01*
X136616887Y-95425759D01*
X136679034Y-95416853D01*
X136681501Y-95416621D01*
X136787733Y-95395751D01*
X136874379Y-95355054D01*
X136940337Y-95295561D01*
X136984505Y-95218304D01*
X137005782Y-95124314D01*
X137006735Y-95112117D01*
X137002704Y-95013081D01*
X136976088Y-94930020D01*
X136925747Y-94859808D01*
X136908652Y-94843291D01*
X136880361Y-94819673D01*
X136851516Y-94801601D01*
X136815924Y-94786724D01*
X136767392Y-94772695D01*
X136699729Y-94757164D01*
X136658827Y-94748526D01*
X136587345Y-94725768D01*
X136536767Y-94692755D01*
X136510086Y-94651832D01*
X136506642Y-94629277D01*
X136509936Y-94587616D01*
X136518426Y-94534950D01*
X136530025Y-94480867D01*
X136542648Y-94434954D01*
X136554207Y-94406797D01*
X136555445Y-94405040D01*
X136598116Y-94371227D01*
X136659907Y-94355461D01*
X136742462Y-94357414D01*
X136773506Y-94361724D01*
X136868313Y-94370056D01*
X136946824Y-94359976D01*
X137016065Y-94329835D01*
X137066395Y-94292847D01*
X137121897Y-94236170D01*
X137157663Y-94174266D01*
X137179957Y-94096108D01*
X137180904Y-94091183D01*
X137185419Y-93996394D01*
X137163568Y-93909183D01*
X137117411Y-93833049D01*
X137049010Y-93771493D01*
X136968940Y-93731014D01*
X136880410Y-93692735D01*
X136816679Y-93651866D01*
X136779454Y-93609580D01*
X136773776Y-93596982D01*
X136769358Y-93571848D01*
X136774118Y-93540079D01*
X136789678Y-93494904D01*
X136809466Y-93448027D01*
X136836290Y-93390453D01*
X136858366Y-93353571D01*
X136880452Y-93330975D01*
X136907312Y-93316261D01*
X136907458Y-93316200D01*
X136931976Y-93307404D01*
X136955466Y-93304512D01*
X136984894Y-93308483D01*
X137027224Y-93320274D01*
X137089421Y-93340843D01*
X137091298Y-93341480D01*
X137163297Y-93364345D01*
X137216469Y-93376876D01*
X137258201Y-93380464D01*
X137286338Y-93378135D01*
X137376060Y-93350478D01*
X137453992Y-93297968D01*
X137507945Y-93235411D01*
X137556013Y-93146535D01*
X137576739Y-93061841D01*
X137570451Y-92977838D01*
X137540033Y-92896043D01*
X137520216Y-92861291D01*
X137496582Y-92832847D01*
X137462991Y-92805274D01*
X137413305Y-92773132D01*
X137376918Y-92751551D01*
X137310392Y-92704724D01*
X137280527Y-92672712D01*
X139244070Y-92672712D01*
X139263167Y-92774194D01*
X139303092Y-92869195D01*
X139362468Y-92950818D01*
X139369654Y-92958211D01*
X139458504Y-93028574D01*
X139556722Y-93072023D01*
X139663030Y-93088312D01*
X139776152Y-93077197D01*
X139860814Y-93052196D01*
X139930399Y-93014174D01*
X139998781Y-92955827D01*
X140058312Y-92884813D01*
X140099356Y-92813374D01*
X140127413Y-92716485D01*
X140129865Y-92616840D01*
X140108898Y-92518909D01*
X140066699Y-92427165D01*
X140005453Y-92346079D01*
X139927348Y-92280122D01*
X139834569Y-92233765D01*
X139812458Y-92226657D01*
X139704557Y-92209460D01*
X139597892Y-92218684D01*
X139496983Y-92252220D01*
X139406349Y-92307961D01*
X139330508Y-92383798D01*
X139273981Y-92477623D01*
X139273862Y-92477892D01*
X139247177Y-92571645D01*
X139244070Y-92672712D01*
X137280527Y-92672712D01*
X137263936Y-92654929D01*
X137240894Y-92606106D01*
X137238974Y-92589081D01*
X137247343Y-92559819D01*
X137269180Y-92516283D01*
X137299460Y-92466173D01*
X137333159Y-92417187D01*
X137365255Y-92377023D01*
X137390723Y-92353380D01*
X137393949Y-92351597D01*
X137421582Y-92340928D01*
X137448108Y-92338444D01*
X137479655Y-92345717D01*
X137522353Y-92364324D01*
X137582329Y-92395840D01*
X137596700Y-92403700D01*
X137657334Y-92435901D01*
X137702395Y-92456002D01*
X137740847Y-92466824D01*
X137781653Y-92471191D01*
X137813256Y-92471902D01*
X137873209Y-92469638D01*
X137918823Y-92459655D01*
X137964159Y-92438475D01*
X137976019Y-92431658D01*
X138052265Y-92372032D01*
X138112971Y-92294903D01*
X138153930Y-92207218D01*
X138170937Y-92115925D01*
X138171123Y-92109460D01*
X138166588Y-92051775D01*
X138148838Y-91997170D01*
X138114916Y-91940029D01*
X138097652Y-91918781D01*
X140168033Y-91918781D01*
X140169729Y-91979880D01*
X140176817Y-92027790D01*
X140192300Y-92075224D01*
X140218937Y-92134391D01*
X140230427Y-92157320D01*
X140243308Y-92179983D01*
X140259203Y-92204151D01*
X140279732Y-92231595D01*
X140306519Y-92264087D01*
X140341187Y-92303397D01*
X140385356Y-92351296D01*
X140440649Y-92409556D01*
X140508689Y-92479947D01*
X140591097Y-92564241D01*
X140689496Y-92664210D01*
X140805509Y-92781623D01*
X140889277Y-92866264D01*
X141008495Y-92986240D01*
X141120438Y-93098037D01*
X141223458Y-93200056D01*
X141315905Y-93290697D01*
X141396129Y-93368360D01*
X141462482Y-93431445D01*
X141513313Y-93478354D01*
X141546975Y-93507485D01*
X141559882Y-93516667D01*
X141606053Y-93533197D01*
X141660110Y-93540081D01*
X141727988Y-93537406D01*
X141815625Y-93525261D01*
X141840786Y-93520851D01*
X141930202Y-93509104D01*
X142034658Y-93502346D01*
X142144959Y-93500578D01*
X142251910Y-93503799D01*
X142346314Y-93512009D01*
X142400758Y-93520882D01*
X142494430Y-93537290D01*
X142568902Y-93541497D01*
X142631163Y-93533085D01*
X142688201Y-93511639D01*
X142705187Y-93502685D01*
X142735288Y-93481188D01*
X142782242Y-93440758D01*
X142846481Y-93380980D01*
X142928438Y-93301435D01*
X143028546Y-93201705D01*
X143147239Y-93081374D01*
X143230047Y-92996552D01*
X143330241Y-92893718D01*
X143429908Y-92791679D01*
X143526067Y-92693468D01*
X143573869Y-92644771D01*
X144140158Y-92644771D01*
X144152264Y-92753676D01*
X144188291Y-92850929D01*
X144244989Y-92934183D01*
X144319110Y-93001086D01*
X144407404Y-93049289D01*
X144506623Y-93076442D01*
X144613519Y-93080195D01*
X144715643Y-93061022D01*
X144793758Y-93024949D01*
X144869082Y-92966831D01*
X144934690Y-92893044D01*
X144980239Y-92817393D01*
X145014404Y-92713761D01*
X145021543Y-92608304D01*
X145002265Y-92505538D01*
X144957182Y-92409981D01*
X144918163Y-92358173D01*
X144846481Y-92288452D01*
X144772459Y-92242915D01*
X144688093Y-92217593D01*
X144618994Y-92209792D01*
X144515824Y-92211032D01*
X144429404Y-92229730D01*
X144351888Y-92268523D01*
X144283439Y-92322627D01*
X144211431Y-92402605D01*
X144165528Y-92489275D01*
X144143236Y-92588248D01*
X144140158Y-92644771D01*
X143573869Y-92644771D01*
X143615739Y-92602118D01*
X143695943Y-92520664D01*
X143763700Y-92452138D01*
X143816028Y-92399574D01*
X143836573Y-92379141D01*
X143930171Y-92280492D01*
X144000741Y-92191349D01*
X144050629Y-92107761D01*
X144082177Y-92025781D01*
X144097728Y-91941459D01*
X144097993Y-91938625D01*
X144098736Y-91846331D01*
X144081134Y-91764845D01*
X144042616Y-91687518D01*
X143980613Y-91607699D01*
X143962520Y-91588035D01*
X143913907Y-91538868D01*
X143869725Y-91501200D01*
X143821220Y-91468867D01*
X143759641Y-91435703D01*
X143716033Y-91414398D01*
X143444931Y-91298219D01*
X143166226Y-91206104D01*
X142876655Y-91137229D01*
X142572953Y-91090767D01*
X142363850Y-91072022D01*
X142074343Y-91065321D01*
X141779109Y-91082400D01*
X141484073Y-91122343D01*
X141195155Y-91184232D01*
X140918278Y-91267150D01*
X140785444Y-91316511D01*
X140635335Y-91380200D01*
X140511033Y-91442052D01*
X140409868Y-91503954D01*
X140329174Y-91567789D01*
X140266281Y-91635442D01*
X140218522Y-91708800D01*
X140211845Y-91721715D01*
X140187700Y-91774869D01*
X140174348Y-91821026D01*
X140168826Y-91873512D01*
X140168033Y-91918781D01*
X138097652Y-91918781D01*
X138061865Y-91874734D01*
X138028506Y-91838604D01*
X137981882Y-91788270D01*
X137952257Y-91752009D01*
X137935958Y-91723964D01*
X137929310Y-91698278D01*
X137928425Y-91679126D01*
X137931563Y-91648694D01*
X137943294Y-91619917D01*
X137967664Y-91585899D01*
X138008716Y-91539743D01*
X138012594Y-91535585D01*
X138068664Y-91480967D01*
X138115765Y-91450447D01*
X138159659Y-91443473D01*
X138206108Y-91459493D01*
X138260875Y-91497954D01*
X138275776Y-91510360D01*
X138343420Y-91566550D01*
X138395943Y-91606101D01*
X138439097Y-91632096D01*
X138478635Y-91647617D01*
X138520311Y-91655748D01*
X138552409Y-91658604D01*
X138650612Y-91651325D01*
X138741386Y-91619001D01*
X138820486Y-91565102D01*
X138883663Y-91493099D01*
X138926672Y-91406460D01*
X138942364Y-91339997D01*
X138943521Y-91277243D01*
X138928280Y-91212002D01*
X138894707Y-91138140D01*
X138860323Y-91079706D01*
X138817359Y-91005585D01*
X138794414Y-90947493D01*
X138792217Y-90900184D01*
X138811497Y-90858414D01*
X138852982Y-90816940D01*
X138901821Y-90781013D01*
X138964711Y-90740561D01*
X139013638Y-90718099D01*
X139054310Y-90714846D01*
X139092429Y-90732025D01*
X139133703Y-90770854D01*
X139183837Y-90832556D01*
X139191867Y-90843062D01*
X139242526Y-90905547D01*
X139286337Y-90949162D01*
X139330147Y-90980280D01*
X139351888Y-90992004D01*
X139443881Y-91023178D01*
X139536195Y-91026183D01*
X139626678Y-91001460D01*
X139713177Y-90949451D01*
X139759183Y-90908464D01*
X139819738Y-90834358D01*
X139855078Y-90757219D01*
X139865744Y-90673420D01*
X139852277Y-90579333D01*
X139821956Y-90487796D01*
X139794835Y-90411774D01*
X139784221Y-90354828D01*
X139791653Y-90311524D01*
X139818672Y-90276431D01*
X139866818Y-90244114D01*
X139895223Y-90229310D01*
X139974482Y-90196128D01*
X140037153Y-90184153D01*
X140085729Y-90193127D01*
X140107967Y-90207433D01*
X140127392Y-90231189D01*
X140154552Y-90273437D01*
X140184817Y-90326747D01*
X140198080Y-90352096D01*
X140242881Y-90431112D01*
X140287643Y-90488303D01*
X140338407Y-90529909D01*
X140401216Y-90562170D01*
X140401668Y-90562359D01*
X140487731Y-90583558D01*
X140578788Y-90580527D01*
X140668623Y-90555472D01*
X140751016Y-90510600D01*
X140819752Y-90448118D01*
X140852230Y-90402448D01*
X140872882Y-90360580D01*
X140885669Y-90315493D01*
X140891100Y-90261243D01*
X140889684Y-90191885D01*
X140881931Y-90101476D01*
X140879755Y-90081167D01*
X140874294Y-90025149D01*
X140873851Y-89989344D01*
X140879686Y-89965493D01*
X140893060Y-89945339D01*
X140902044Y-89935087D01*
X140935555Y-89911145D01*
X140986156Y-89889378D01*
X141044785Y-89872099D01*
X141102379Y-89861620D01*
X141149876Y-89860256D01*
X141172444Y-89866060D01*
X141217499Y-89904258D01*
X141252976Y-89966376D01*
X141279934Y-90054291D01*
X141280749Y-90057918D01*
X141305419Y-90148060D01*
X141335998Y-90215695D01*
X141376379Y-90266965D01*
X141430459Y-90308007D01*
X141444652Y-90316314D01*
X141500236Y-90343590D01*
X141550484Y-90356629D01*
X141609774Y-90359794D01*
X141699144Y-90349227D01*
X141785802Y-90320510D01*
X141858961Y-90277536D01*
X141874813Y-90264166D01*
X141924091Y-90200972D01*
X141958518Y-90118590D01*
X141975614Y-90023748D01*
X141977050Y-89987021D01*
X141982445Y-89895116D01*
X141998204Y-89828445D01*
X142024119Y-89787748D01*
X142035190Y-89779968D01*
X142061966Y-89773428D01*
X142108372Y-89768848D01*
X142165379Y-89766397D01*
X142223957Y-89766240D01*
X142275076Y-89768544D01*
G37*
%TD*%
%LPC*%
D15*
%TO.C,R6*%
X178816000Y-106250000D03*
X177166000Y-106250000D03*
%TD*%
D16*
%TO.C,U4*%
X132120000Y-101550000D03*
X130850000Y-101550000D03*
X129580000Y-101550000D03*
X128310000Y-101550000D03*
X127040000Y-101550000D03*
X125770000Y-101550000D03*
X124500000Y-101550000D03*
X123230000Y-101550000D03*
X123230000Y-106500000D03*
X124500000Y-106500000D03*
X125770000Y-106500000D03*
X127040000Y-106500000D03*
X128310000Y-106500000D03*
X129580000Y-106500000D03*
X130850000Y-106500000D03*
X132120000Y-106500000D03*
%TD*%
D17*
%TO.C,U1*%
X175100000Y-111500000D03*
X176050000Y-111500000D03*
X177000000Y-111500000D03*
X177000000Y-109225000D03*
X175100000Y-109225000D03*
%TD*%
D18*
%TO.C,C1*%
X175250000Y-113250000D03*
X176800000Y-113250000D03*
%TD*%
D19*
%TO.C,J_BOTTOM1*%
X123500000Y-112985100D03*
D20*
X126000000Y-112985100D03*
X128500000Y-112985100D03*
X131000000Y-112985100D03*
%TD*%
D21*
%TO.C,C8*%
X173000000Y-101950000D03*
X173000000Y-103500000D03*
%TD*%
D22*
%TO.C,H1*%
X181000000Y-119000000D03*
%TD*%
D18*
%TO.C,C5*%
X134950000Y-100490000D03*
X136500000Y-100490000D03*
%TD*%
D23*
%TO.C,U6*%
X169137500Y-106050000D03*
X169137500Y-106550000D03*
X169137500Y-107050000D03*
X169137500Y-107550000D03*
D24*
X169800000Y-107712500D03*
X170300000Y-107712500D03*
X170800000Y-107712500D03*
D23*
X171462500Y-107550000D03*
X171462500Y-107050000D03*
X171462500Y-106550000D03*
X171462500Y-106050000D03*
D24*
X170800000Y-105887500D03*
X170300000Y-105887500D03*
X169800000Y-105887500D03*
%TD*%
D25*
%TO.C,U5*%
X149860000Y-94552000D03*
X149860000Y-95352000D03*
X149860000Y-96152000D03*
X149860000Y-96952000D03*
X149860000Y-97752000D03*
X149860000Y-98552000D03*
X149860000Y-99352000D03*
X149860000Y-100152000D03*
X149860000Y-100952000D03*
X149860000Y-101752000D03*
X149860000Y-102552000D03*
D26*
X150960000Y-103452000D03*
X151760000Y-103452000D03*
X152560000Y-103452000D03*
X153360000Y-103452000D03*
X154160000Y-103452000D03*
X154960000Y-103452000D03*
X155760000Y-103452000D03*
X156560000Y-103452000D03*
X157360000Y-103452000D03*
X158160000Y-103452000D03*
X158960000Y-103452000D03*
X159760000Y-103452000D03*
X160560000Y-103452000D03*
D25*
X161660000Y-102552000D03*
X161660000Y-101752000D03*
X161660000Y-100952000D03*
X161660000Y-100152000D03*
X161660000Y-99352000D03*
X161660000Y-98552000D03*
X161660000Y-97752000D03*
X161660000Y-96952000D03*
X161660000Y-96152000D03*
X161660000Y-95352000D03*
X161660000Y-94552000D03*
D26*
X160560000Y-93652000D03*
X159760000Y-93652000D03*
X158960000Y-93652000D03*
X158160000Y-93652000D03*
X157360000Y-93652000D03*
X156560000Y-93652000D03*
X155760000Y-93652000D03*
X154960000Y-93652000D03*
X154160000Y-93652000D03*
X153360000Y-93652000D03*
X152560000Y-93652000D03*
X151760000Y-93652000D03*
X150960000Y-93652000D03*
D27*
X153785000Y-96577000D03*
D28*
X153785000Y-98552000D03*
X153785000Y-100527000D03*
X155760000Y-96577000D03*
X155760000Y-98552000D03*
X155760000Y-100527000D03*
X157735000Y-96577000D03*
X157735000Y-98552000D03*
X157735000Y-100527000D03*
D29*
X161710000Y-93602000D03*
X161710000Y-103502000D03*
X149810000Y-103502000D03*
X149810000Y-93602000D03*
%TD*%
D30*
%TO.C,SW1*%
X161500000Y-112250000D03*
X166650000Y-112250000D03*
X161500000Y-113950000D03*
X166650000Y-113950000D03*
%TD*%
D31*
%TO.C,J_BAT1*%
X181250000Y-110750000D03*
D32*
X181250000Y-112750000D03*
%TD*%
D33*
%TO.C,D2*%
X182842500Y-106250000D03*
X181267500Y-106250000D03*
%TD*%
D34*
%TO.C,R_USB_BOT1*%
X173675000Y-94000000D03*
X175325000Y-94000000D03*
%TD*%
%TO.C,R9*%
X169546000Y-109728000D03*
X171196000Y-109728000D03*
%TD*%
D35*
%TO.C,J2*%
X166710000Y-95420000D03*
D36*
X169250000Y-95420000D03*
X166710000Y-97960000D03*
X169250000Y-97960000D03*
X166710000Y-100500000D03*
X169250000Y-100500000D03*
%TD*%
D15*
%TO.C,R7*%
X178816000Y-104750000D03*
X177166000Y-104750000D03*
%TD*%
D22*
%TO.C,H2*%
X117000000Y-119000000D03*
%TD*%
D33*
%TO.C,D3*%
X182842500Y-104726000D03*
X181267500Y-104726000D03*
%TD*%
D34*
%TO.C,R10*%
X169546000Y-111252000D03*
X171196000Y-111252000D03*
%TD*%
D30*
%TO.C,SW2*%
X161500000Y-117300000D03*
X166650000Y-117300000D03*
X161500000Y-119000000D03*
X166650000Y-119000000D03*
%TD*%
D37*
%TO.C,J_TOP1*%
X131000000Y-96000000D03*
D20*
X128500000Y-96000000D03*
X126000000Y-96000000D03*
X123500000Y-96000000D03*
%TD*%
D38*
%TO.C,C4*%
X173500000Y-119275000D03*
X173500000Y-117725000D03*
%TD*%
D15*
%TO.C,R_USB_TOP1*%
X175325000Y-95500000D03*
X173675000Y-95500000D03*
%TD*%
%TO.C,R5*%
X165825000Y-104500000D03*
X164175000Y-104500000D03*
%TD*%
%TO.C,R_BAT_TOP1*%
X173575000Y-114750000D03*
X171925000Y-114750000D03*
%TD*%
D39*
%TO.C,J1*%
X178900000Y-101390000D03*
X178900000Y-95610000D03*
D40*
X177455000Y-101750000D03*
X177455000Y-100950000D03*
D41*
X177455000Y-99750000D03*
X177455000Y-98750000D03*
X177455000Y-98250000D03*
X177455000Y-97250000D03*
D40*
X177455000Y-96050000D03*
X177455000Y-95250000D03*
X177455000Y-95250000D03*
X177455000Y-96050000D03*
D41*
X177455000Y-96750000D03*
X177455000Y-97750000D03*
X177455000Y-99250000D03*
X177455000Y-100250000D03*
D40*
X177455000Y-100950000D03*
X177455000Y-101750000D03*
D42*
X178370000Y-102820000D03*
D43*
X182550000Y-102820000D03*
D42*
X178370000Y-94180000D03*
D43*
X182550000Y-94180000D03*
%TD*%
D22*
%TO.C,H3*%
X181000000Y-90000000D03*
%TD*%
D44*
%TO.C,U2*%
X176950000Y-116862500D03*
X176000000Y-116862500D03*
X175050000Y-116862500D03*
X175050000Y-119137500D03*
X176950000Y-119137500D03*
%TD*%
D45*
%TO.C,R11*%
X173700000Y-107575000D03*
X173700000Y-105925000D03*
%TD*%
D46*
%TO.C,R3*%
X175250000Y-105925000D03*
X175250000Y-107575000D03*
%TD*%
D18*
%TO.C,C2*%
X175250000Y-114750000D03*
X176800000Y-114750000D03*
%TD*%
D15*
%TO.C,R4*%
X165825000Y-103000000D03*
X164175000Y-103000000D03*
%TD*%
D22*
%TO.C,H4*%
X117000000Y-90000000D03*
%TD*%
D38*
%TO.C,C3*%
X172000000Y-119275000D03*
X172000000Y-117725000D03*
%TD*%
D34*
%TO.C,R8*%
X164175000Y-106024000D03*
X165825000Y-106024000D03*
%TD*%
D18*
%TO.C,C6*%
X134950000Y-103000000D03*
X136500000Y-103000000D03*
%TD*%
D34*
%TO.C,R2*%
X173675000Y-97000000D03*
X175325000Y-97000000D03*
%TD*%
%TO.C,R1*%
X173425000Y-98500000D03*
X175075000Y-98500000D03*
%TD*%
%TO.C,R_BAT_BOT1*%
X171925000Y-113250000D03*
X173575000Y-113250000D03*
%TD*%
%LPD*%
M02*
