%TF.GenerationSoftware,KiCad,Pcbnew,10.0.4*%
%TF.CreationDate,2026-07-06T12:25:11-05:00*%
%TF.ProjectId,OpenWatts,4f70656e-5761-4747-9473-2e6b69636164,rev?*%
%TF.SameCoordinates,Original*%
%TF.FileFunction,Legend,Bot*%
%TF.FilePolarity,Positive*%
%FSLAX46Y46*%
G04 Gerber Fmt 4.6, Leading zero omitted, Abs format (unit mm)*
G04 Created by KiCad (PCBNEW 10.0.4) date 2026-07-06 12:25:11*
%MOMM*%
%LPD*%
G01*
G04 APERTURE LIST*
G04 Aperture macros list*
%AMRoundRect*
0 Rectangle with rounded corners*
0 $1 Rounding radius*
0 $2 $3 $4 $5 $6 $7 $8 $9 X,Y pos of 4 corners*
0 Add a 4 corners polygon primitive as box body*
4,1,4,$2,$3,$4,$5,$6,$7,$8,$9,$2,$3,0*
0 Add four circle primitives for the rounded corners*
1,1,$1+$1,$2,$3*
1,1,$1+$1,$4,$5*
1,1,$1+$1,$6,$7*
1,1,$1+$1,$8,$9*
0 Add four rect primitives between the rounded corners*
20,1,$1+$1,$2,$3,$4,$5,0*
20,1,$1+$1,$4,$5,$6,$7,0*
20,1,$1+$1,$6,$7,$8,$9,0*
20,1,$1+$1,$8,$9,$2,$3,0*%
G04 Aperture macros list end*
%ADD10C,0.200000*%
%ADD11C,0.300000*%
%ADD12RoundRect,0.250000X-0.600000X-0.725000X0.600000X-0.725000X0.600000X0.725000X-0.600000X0.725000X0*%
%ADD13O,1.700000X1.950000*%
%ADD14C,2.700000*%
%ADD15RoundRect,0.250000X-0.625000X0.350000X-0.625000X-0.350000X0.625000X-0.350000X0.625000X0.350000X0*%
%ADD16O,1.750000X1.200000*%
%ADD17R,1.700000X1.700000*%
%ADD18C,1.700000*%
%ADD19RoundRect,0.250000X0.600000X0.725000X-0.600000X0.725000X-0.600000X-0.725000X0.600000X-0.725000X0*%
%ADD20C,0.650000*%
%ADD21O,2.100000X1.000000*%
%ADD22O,1.600000X1.000000*%
G04 APERTURE END LIST*
D10*
X117000000Y-93500000D02*
X116000000Y-93500000D01*
X117000000Y-93500000D02*
X118000000Y-93500000D01*
X117000000Y-115500000D02*
X116000000Y-115500000D01*
X117000000Y-115500000D02*
X117000000Y-93500000D01*
X117000000Y-115500000D02*
X118000000Y-115500000D01*
X120500000Y-89000000D02*
X120500000Y-90000000D01*
X120500000Y-90000000D02*
X120500000Y-89000000D01*
X120500000Y-90000000D02*
X120500000Y-91000000D01*
X177500000Y-89000000D02*
X177500000Y-90000000D01*
X177500000Y-90000000D02*
X120500000Y-90000000D01*
X177500000Y-90000000D02*
X177500000Y-89000000D01*
X177500000Y-90000000D02*
X177500000Y-91000000D01*
D11*
X157445489Y-101312782D02*
X157231203Y-101384210D01*
X157231203Y-101384210D02*
X157159774Y-101455639D01*
X157159774Y-101455639D02*
X157088346Y-101598496D01*
X157088346Y-101598496D02*
X157088346Y-101812782D01*
X157088346Y-101812782D02*
X157159774Y-101955639D01*
X157159774Y-101955639D02*
X157231203Y-102027068D01*
X157231203Y-102027068D02*
X157374060Y-102098496D01*
X157374060Y-102098496D02*
X157945489Y-102098496D01*
X157945489Y-102098496D02*
X157945489Y-100598496D01*
X157945489Y-100598496D02*
X157445489Y-100598496D01*
X157445489Y-100598496D02*
X157302632Y-100669925D01*
X157302632Y-100669925D02*
X157231203Y-100741353D01*
X157231203Y-100741353D02*
X157159774Y-100884210D01*
X157159774Y-100884210D02*
X157159774Y-101027068D01*
X157159774Y-101027068D02*
X157231203Y-101169925D01*
X157231203Y-101169925D02*
X157302632Y-101241353D01*
X157302632Y-101241353D02*
X157445489Y-101312782D01*
X157445489Y-101312782D02*
X157945489Y-101312782D01*
X156231203Y-102098496D02*
X156374060Y-102027068D01*
X156374060Y-102027068D02*
X156445489Y-101955639D01*
X156445489Y-101955639D02*
X156516917Y-101812782D01*
X156516917Y-101812782D02*
X156516917Y-101384210D01*
X156516917Y-101384210D02*
X156445489Y-101241353D01*
X156445489Y-101241353D02*
X156374060Y-101169925D01*
X156374060Y-101169925D02*
X156231203Y-101098496D01*
X156231203Y-101098496D02*
X156016917Y-101098496D01*
X156016917Y-101098496D02*
X155874060Y-101169925D01*
X155874060Y-101169925D02*
X155802632Y-101241353D01*
X155802632Y-101241353D02*
X155731203Y-101384210D01*
X155731203Y-101384210D02*
X155731203Y-101812782D01*
X155731203Y-101812782D02*
X155802632Y-101955639D01*
X155802632Y-101955639D02*
X155874060Y-102027068D01*
X155874060Y-102027068D02*
X156016917Y-102098496D01*
X156016917Y-102098496D02*
X156231203Y-102098496D01*
X154445489Y-102098496D02*
X154445489Y-101312782D01*
X154445489Y-101312782D02*
X154516917Y-101169925D01*
X154516917Y-101169925D02*
X154659774Y-101098496D01*
X154659774Y-101098496D02*
X154945489Y-101098496D01*
X154945489Y-101098496D02*
X155088346Y-101169925D01*
X154445489Y-102027068D02*
X154588346Y-102098496D01*
X154588346Y-102098496D02*
X154945489Y-102098496D01*
X154945489Y-102098496D02*
X155088346Y-102027068D01*
X155088346Y-102027068D02*
X155159774Y-101884210D01*
X155159774Y-101884210D02*
X155159774Y-101741353D01*
X155159774Y-101741353D02*
X155088346Y-101598496D01*
X155088346Y-101598496D02*
X154945489Y-101527068D01*
X154945489Y-101527068D02*
X154588346Y-101527068D01*
X154588346Y-101527068D02*
X154445489Y-101455639D01*
X153731203Y-102098496D02*
X153731203Y-101098496D01*
X153731203Y-101384210D02*
X153659774Y-101241353D01*
X153659774Y-101241353D02*
X153588346Y-101169925D01*
X153588346Y-101169925D02*
X153445488Y-101098496D01*
X153445488Y-101098496D02*
X153302631Y-101098496D01*
X152159775Y-102098496D02*
X152159775Y-100598496D01*
X152159775Y-102027068D02*
X152302632Y-102098496D01*
X152302632Y-102098496D02*
X152588346Y-102098496D01*
X152588346Y-102098496D02*
X152731203Y-102027068D01*
X152731203Y-102027068D02*
X152802632Y-101955639D01*
X152802632Y-101955639D02*
X152874060Y-101812782D01*
X152874060Y-101812782D02*
X152874060Y-101384210D01*
X152874060Y-101384210D02*
X152802632Y-101241353D01*
X152802632Y-101241353D02*
X152731203Y-101169925D01*
X152731203Y-101169925D02*
X152588346Y-101098496D01*
X152588346Y-101098496D02*
X152302632Y-101098496D01*
X152302632Y-101098496D02*
X152159775Y-101169925D01*
X150302632Y-102098496D02*
X150302632Y-100598496D01*
X150302632Y-100598496D02*
X149945489Y-100598496D01*
X149945489Y-100598496D02*
X149731203Y-100669925D01*
X149731203Y-100669925D02*
X149588346Y-100812782D01*
X149588346Y-100812782D02*
X149516917Y-100955639D01*
X149516917Y-100955639D02*
X149445489Y-101241353D01*
X149445489Y-101241353D02*
X149445489Y-101455639D01*
X149445489Y-101455639D02*
X149516917Y-101741353D01*
X149516917Y-101741353D02*
X149588346Y-101884210D01*
X149588346Y-101884210D02*
X149731203Y-102027068D01*
X149731203Y-102027068D02*
X149945489Y-102098496D01*
X149945489Y-102098496D02*
X150302632Y-102098496D01*
X148802632Y-102098496D02*
X148802632Y-101098496D01*
X148802632Y-100598496D02*
X148874060Y-100669925D01*
X148874060Y-100669925D02*
X148802632Y-100741353D01*
X148802632Y-100741353D02*
X148731203Y-100669925D01*
X148731203Y-100669925D02*
X148802632Y-100598496D01*
X148802632Y-100598496D02*
X148802632Y-100741353D01*
X148088346Y-102098496D02*
X148088346Y-101098496D01*
X148088346Y-101241353D02*
X148016917Y-101169925D01*
X148016917Y-101169925D02*
X147874060Y-101098496D01*
X147874060Y-101098496D02*
X147659774Y-101098496D01*
X147659774Y-101098496D02*
X147516917Y-101169925D01*
X147516917Y-101169925D02*
X147445489Y-101312782D01*
X147445489Y-101312782D02*
X147445489Y-102098496D01*
X147445489Y-101312782D02*
X147374060Y-101169925D01*
X147374060Y-101169925D02*
X147231203Y-101098496D01*
X147231203Y-101098496D02*
X147016917Y-101098496D01*
X147016917Y-101098496D02*
X146874060Y-101169925D01*
X146874060Y-101169925D02*
X146802631Y-101312782D01*
X146802631Y-101312782D02*
X146802631Y-102098496D01*
X145516917Y-102027068D02*
X145659774Y-102098496D01*
X145659774Y-102098496D02*
X145945489Y-102098496D01*
X145945489Y-102098496D02*
X146088346Y-102027068D01*
X146088346Y-102027068D02*
X146159774Y-101884210D01*
X146159774Y-101884210D02*
X146159774Y-101312782D01*
X146159774Y-101312782D02*
X146088346Y-101169925D01*
X146088346Y-101169925D02*
X145945489Y-101098496D01*
X145945489Y-101098496D02*
X145659774Y-101098496D01*
X145659774Y-101098496D02*
X145516917Y-101169925D01*
X145516917Y-101169925D02*
X145445489Y-101312782D01*
X145445489Y-101312782D02*
X145445489Y-101455639D01*
X145445489Y-101455639D02*
X146159774Y-101598496D01*
X144802632Y-101098496D02*
X144802632Y-102098496D01*
X144802632Y-101241353D02*
X144731203Y-101169925D01*
X144731203Y-101169925D02*
X144588346Y-101098496D01*
X144588346Y-101098496D02*
X144374060Y-101098496D01*
X144374060Y-101098496D02*
X144231203Y-101169925D01*
X144231203Y-101169925D02*
X144159775Y-101312782D01*
X144159775Y-101312782D02*
X144159775Y-102098496D01*
X143516917Y-102027068D02*
X143374060Y-102098496D01*
X143374060Y-102098496D02*
X143088346Y-102098496D01*
X143088346Y-102098496D02*
X142945489Y-102027068D01*
X142945489Y-102027068D02*
X142874060Y-101884210D01*
X142874060Y-101884210D02*
X142874060Y-101812782D01*
X142874060Y-101812782D02*
X142945489Y-101669925D01*
X142945489Y-101669925D02*
X143088346Y-101598496D01*
X143088346Y-101598496D02*
X143302632Y-101598496D01*
X143302632Y-101598496D02*
X143445489Y-101527068D01*
X143445489Y-101527068D02*
X143516917Y-101384210D01*
X143516917Y-101384210D02*
X143516917Y-101312782D01*
X143516917Y-101312782D02*
X143445489Y-101169925D01*
X143445489Y-101169925D02*
X143302632Y-101098496D01*
X143302632Y-101098496D02*
X143088346Y-101098496D01*
X143088346Y-101098496D02*
X142945489Y-101169925D01*
X142231203Y-102098496D02*
X142231203Y-101098496D01*
X142231203Y-100598496D02*
X142302631Y-100669925D01*
X142302631Y-100669925D02*
X142231203Y-100741353D01*
X142231203Y-100741353D02*
X142159774Y-100669925D01*
X142159774Y-100669925D02*
X142231203Y-100598496D01*
X142231203Y-100598496D02*
X142231203Y-100741353D01*
X141302631Y-102098496D02*
X141445488Y-102027068D01*
X141445488Y-102027068D02*
X141516917Y-101955639D01*
X141516917Y-101955639D02*
X141588345Y-101812782D01*
X141588345Y-101812782D02*
X141588345Y-101384210D01*
X141588345Y-101384210D02*
X141516917Y-101241353D01*
X141516917Y-101241353D02*
X141445488Y-101169925D01*
X141445488Y-101169925D02*
X141302631Y-101098496D01*
X141302631Y-101098496D02*
X141088345Y-101098496D01*
X141088345Y-101098496D02*
X140945488Y-101169925D01*
X140945488Y-101169925D02*
X140874060Y-101241353D01*
X140874060Y-101241353D02*
X140802631Y-101384210D01*
X140802631Y-101384210D02*
X140802631Y-101812782D01*
X140802631Y-101812782D02*
X140874060Y-101955639D01*
X140874060Y-101955639D02*
X140945488Y-102027068D01*
X140945488Y-102027068D02*
X141088345Y-102098496D01*
X141088345Y-102098496D02*
X141302631Y-102098496D01*
X140159774Y-101098496D02*
X140159774Y-102098496D01*
X140159774Y-101241353D02*
X140088345Y-101169925D01*
X140088345Y-101169925D02*
X139945488Y-101098496D01*
X139945488Y-101098496D02*
X139731202Y-101098496D01*
X139731202Y-101098496D02*
X139588345Y-101169925D01*
X139588345Y-101169925D02*
X139516917Y-101312782D01*
X139516917Y-101312782D02*
X139516917Y-102098496D01*
X138874059Y-102027068D02*
X138731202Y-102098496D01*
X138731202Y-102098496D02*
X138445488Y-102098496D01*
X138445488Y-102098496D02*
X138302631Y-102027068D01*
X138302631Y-102027068D02*
X138231202Y-101884210D01*
X138231202Y-101884210D02*
X138231202Y-101812782D01*
X138231202Y-101812782D02*
X138302631Y-101669925D01*
X138302631Y-101669925D02*
X138445488Y-101598496D01*
X138445488Y-101598496D02*
X138659774Y-101598496D01*
X138659774Y-101598496D02*
X138802631Y-101527068D01*
X138802631Y-101527068D02*
X138874059Y-101384210D01*
X138874059Y-101384210D02*
X138874059Y-101312782D01*
X138874059Y-101312782D02*
X138802631Y-101169925D01*
X138802631Y-101169925D02*
X138659774Y-101098496D01*
X138659774Y-101098496D02*
X138445488Y-101098496D01*
X138445488Y-101098496D02*
X138302631Y-101169925D01*
X137588345Y-101955639D02*
X137516916Y-102027068D01*
X137516916Y-102027068D02*
X137588345Y-102098496D01*
X137588345Y-102098496D02*
X137659773Y-102027068D01*
X137659773Y-102027068D02*
X137588345Y-101955639D01*
X137588345Y-101955639D02*
X137588345Y-102098496D01*
X137588345Y-101169925D02*
X137516916Y-101241353D01*
X137516916Y-101241353D02*
X137588345Y-101312782D01*
X137588345Y-101312782D02*
X137659773Y-101241353D01*
X137659773Y-101241353D02*
X137588345Y-101169925D01*
X137588345Y-101169925D02*
X137588345Y-101312782D01*
X158088346Y-103013412D02*
X157088346Y-103013412D01*
X157088346Y-103013412D02*
X157731203Y-104513412D01*
X156231203Y-103013412D02*
X156088346Y-103013412D01*
X156088346Y-103013412D02*
X155945489Y-103084841D01*
X155945489Y-103084841D02*
X155874061Y-103156269D01*
X155874061Y-103156269D02*
X155802632Y-103299126D01*
X155802632Y-103299126D02*
X155731203Y-103584841D01*
X155731203Y-103584841D02*
X155731203Y-103941984D01*
X155731203Y-103941984D02*
X155802632Y-104227698D01*
X155802632Y-104227698D02*
X155874061Y-104370555D01*
X155874061Y-104370555D02*
X155945489Y-104441984D01*
X155945489Y-104441984D02*
X156088346Y-104513412D01*
X156088346Y-104513412D02*
X156231203Y-104513412D01*
X156231203Y-104513412D02*
X156374061Y-104441984D01*
X156374061Y-104441984D02*
X156445489Y-104370555D01*
X156445489Y-104370555D02*
X156516918Y-104227698D01*
X156516918Y-104227698D02*
X156588346Y-103941984D01*
X156588346Y-103941984D02*
X156588346Y-103584841D01*
X156588346Y-103584841D02*
X156516918Y-103299126D01*
X156516918Y-103299126D02*
X156445489Y-103156269D01*
X156445489Y-103156269D02*
X156374061Y-103084841D01*
X156374061Y-103084841D02*
X156231203Y-103013412D01*
X155088347Y-104513412D02*
X155088347Y-103513412D01*
X155088347Y-103656269D02*
X155016918Y-103584841D01*
X155016918Y-103584841D02*
X154874061Y-103513412D01*
X154874061Y-103513412D02*
X154659775Y-103513412D01*
X154659775Y-103513412D02*
X154516918Y-103584841D01*
X154516918Y-103584841D02*
X154445490Y-103727698D01*
X154445490Y-103727698D02*
X154445490Y-104513412D01*
X154445490Y-103727698D02*
X154374061Y-103584841D01*
X154374061Y-103584841D02*
X154231204Y-103513412D01*
X154231204Y-103513412D02*
X154016918Y-103513412D01*
X154016918Y-103513412D02*
X153874061Y-103584841D01*
X153874061Y-103584841D02*
X153802632Y-103727698D01*
X153802632Y-103727698D02*
X153802632Y-104513412D01*
X153088347Y-104513412D02*
X153088347Y-103513412D01*
X153088347Y-103656269D02*
X153016918Y-103584841D01*
X153016918Y-103584841D02*
X152874061Y-103513412D01*
X152874061Y-103513412D02*
X152659775Y-103513412D01*
X152659775Y-103513412D02*
X152516918Y-103584841D01*
X152516918Y-103584841D02*
X152445490Y-103727698D01*
X152445490Y-103727698D02*
X152445490Y-104513412D01*
X152445490Y-103727698D02*
X152374061Y-103584841D01*
X152374061Y-103584841D02*
X152231204Y-103513412D01*
X152231204Y-103513412D02*
X152016918Y-103513412D01*
X152016918Y-103513412D02*
X151874061Y-103584841D01*
X151874061Y-103584841D02*
X151802632Y-103727698D01*
X151802632Y-103727698D02*
X151802632Y-104513412D01*
X150088347Y-104513412D02*
X149302633Y-103513412D01*
X150088347Y-103513412D02*
X149302633Y-104513412D01*
X147731204Y-103013412D02*
X146802632Y-103013412D01*
X146802632Y-103013412D02*
X147302632Y-103584841D01*
X147302632Y-103584841D02*
X147088347Y-103584841D01*
X147088347Y-103584841D02*
X146945490Y-103656269D01*
X146945490Y-103656269D02*
X146874061Y-103727698D01*
X146874061Y-103727698D02*
X146802632Y-103870555D01*
X146802632Y-103870555D02*
X146802632Y-104227698D01*
X146802632Y-104227698D02*
X146874061Y-104370555D01*
X146874061Y-104370555D02*
X146945490Y-104441984D01*
X146945490Y-104441984D02*
X147088347Y-104513412D01*
X147088347Y-104513412D02*
X147516918Y-104513412D01*
X147516918Y-104513412D02*
X147659775Y-104441984D01*
X147659775Y-104441984D02*
X147731204Y-104370555D01*
X145445490Y-103013412D02*
X146159776Y-103013412D01*
X146159776Y-103013412D02*
X146231204Y-103727698D01*
X146231204Y-103727698D02*
X146159776Y-103656269D01*
X146159776Y-103656269D02*
X146016919Y-103584841D01*
X146016919Y-103584841D02*
X145659776Y-103584841D01*
X145659776Y-103584841D02*
X145516919Y-103656269D01*
X145516919Y-103656269D02*
X145445490Y-103727698D01*
X145445490Y-103727698D02*
X145374061Y-103870555D01*
X145374061Y-103870555D02*
X145374061Y-104227698D01*
X145374061Y-104227698D02*
X145445490Y-104370555D01*
X145445490Y-104370555D02*
X145516919Y-104441984D01*
X145516919Y-104441984D02*
X145659776Y-104513412D01*
X145659776Y-104513412D02*
X146016919Y-104513412D01*
X146016919Y-104513412D02*
X146159776Y-104441984D01*
X146159776Y-104441984D02*
X146231204Y-104370555D01*
X144731205Y-104513412D02*
X144731205Y-103513412D01*
X144731205Y-103656269D02*
X144659776Y-103584841D01*
X144659776Y-103584841D02*
X144516919Y-103513412D01*
X144516919Y-103513412D02*
X144302633Y-103513412D01*
X144302633Y-103513412D02*
X144159776Y-103584841D01*
X144159776Y-103584841D02*
X144088348Y-103727698D01*
X144088348Y-103727698D02*
X144088348Y-104513412D01*
X144088348Y-103727698D02*
X144016919Y-103584841D01*
X144016919Y-103584841D02*
X143874062Y-103513412D01*
X143874062Y-103513412D02*
X143659776Y-103513412D01*
X143659776Y-103513412D02*
X143516919Y-103584841D01*
X143516919Y-103584841D02*
X143445490Y-103727698D01*
X143445490Y-103727698D02*
X143445490Y-104513412D01*
X142731205Y-104513412D02*
X142731205Y-103513412D01*
X142731205Y-103656269D02*
X142659776Y-103584841D01*
X142659776Y-103584841D02*
X142516919Y-103513412D01*
X142516919Y-103513412D02*
X142302633Y-103513412D01*
X142302633Y-103513412D02*
X142159776Y-103584841D01*
X142159776Y-103584841D02*
X142088348Y-103727698D01*
X142088348Y-103727698D02*
X142088348Y-104513412D01*
X142088348Y-103727698D02*
X142016919Y-103584841D01*
X142016919Y-103584841D02*
X141874062Y-103513412D01*
X141874062Y-103513412D02*
X141659776Y-103513412D01*
X141659776Y-103513412D02*
X141516919Y-103584841D01*
X141516919Y-103584841D02*
X141445490Y-103727698D01*
X141445490Y-103727698D02*
X141445490Y-104513412D01*
X157945489Y-109343244D02*
X157945489Y-107843244D01*
X157945489Y-108557530D02*
X157088346Y-108557530D01*
X157088346Y-109343244D02*
X157088346Y-107843244D01*
X156159774Y-109343244D02*
X156302631Y-109271816D01*
X156302631Y-109271816D02*
X156374060Y-109200387D01*
X156374060Y-109200387D02*
X156445488Y-109057530D01*
X156445488Y-109057530D02*
X156445488Y-108628958D01*
X156445488Y-108628958D02*
X156374060Y-108486101D01*
X156374060Y-108486101D02*
X156302631Y-108414673D01*
X156302631Y-108414673D02*
X156159774Y-108343244D01*
X156159774Y-108343244D02*
X155945488Y-108343244D01*
X155945488Y-108343244D02*
X155802631Y-108414673D01*
X155802631Y-108414673D02*
X155731203Y-108486101D01*
X155731203Y-108486101D02*
X155659774Y-108628958D01*
X155659774Y-108628958D02*
X155659774Y-109057530D01*
X155659774Y-109057530D02*
X155731203Y-109200387D01*
X155731203Y-109200387D02*
X155802631Y-109271816D01*
X155802631Y-109271816D02*
X155945488Y-109343244D01*
X155945488Y-109343244D02*
X156159774Y-109343244D01*
X154802631Y-109343244D02*
X154945488Y-109271816D01*
X154945488Y-109271816D02*
X155016917Y-109128958D01*
X155016917Y-109128958D02*
X155016917Y-107843244D01*
X153659774Y-109271816D02*
X153802631Y-109343244D01*
X153802631Y-109343244D02*
X154088346Y-109343244D01*
X154088346Y-109343244D02*
X154231203Y-109271816D01*
X154231203Y-109271816D02*
X154302631Y-109128958D01*
X154302631Y-109128958D02*
X154302631Y-108557530D01*
X154302631Y-108557530D02*
X154231203Y-108414673D01*
X154231203Y-108414673D02*
X154088346Y-108343244D01*
X154088346Y-108343244D02*
X153802631Y-108343244D01*
X153802631Y-108343244D02*
X153659774Y-108414673D01*
X153659774Y-108414673D02*
X153588346Y-108557530D01*
X153588346Y-108557530D02*
X153588346Y-108700387D01*
X153588346Y-108700387D02*
X154302631Y-108843244D01*
X151874060Y-109271816D02*
X151659775Y-109343244D01*
X151659775Y-109343244D02*
X151302632Y-109343244D01*
X151302632Y-109343244D02*
X151159775Y-109271816D01*
X151159775Y-109271816D02*
X151088346Y-109200387D01*
X151088346Y-109200387D02*
X151016917Y-109057530D01*
X151016917Y-109057530D02*
X151016917Y-108914673D01*
X151016917Y-108914673D02*
X151088346Y-108771816D01*
X151088346Y-108771816D02*
X151159775Y-108700387D01*
X151159775Y-108700387D02*
X151302632Y-108628958D01*
X151302632Y-108628958D02*
X151588346Y-108557530D01*
X151588346Y-108557530D02*
X151731203Y-108486101D01*
X151731203Y-108486101D02*
X151802632Y-108414673D01*
X151802632Y-108414673D02*
X151874060Y-108271816D01*
X151874060Y-108271816D02*
X151874060Y-108128958D01*
X151874060Y-108128958D02*
X151802632Y-107986101D01*
X151802632Y-107986101D02*
X151731203Y-107914673D01*
X151731203Y-107914673D02*
X151588346Y-107843244D01*
X151588346Y-107843244D02*
X151231203Y-107843244D01*
X151231203Y-107843244D02*
X151016917Y-107914673D01*
X150374061Y-108343244D02*
X150374061Y-109843244D01*
X150374061Y-108414673D02*
X150231204Y-108343244D01*
X150231204Y-108343244D02*
X149945489Y-108343244D01*
X149945489Y-108343244D02*
X149802632Y-108414673D01*
X149802632Y-108414673D02*
X149731204Y-108486101D01*
X149731204Y-108486101D02*
X149659775Y-108628958D01*
X149659775Y-108628958D02*
X149659775Y-109057530D01*
X149659775Y-109057530D02*
X149731204Y-109200387D01*
X149731204Y-109200387D02*
X149802632Y-109271816D01*
X149802632Y-109271816D02*
X149945489Y-109343244D01*
X149945489Y-109343244D02*
X150231204Y-109343244D01*
X150231204Y-109343244D02*
X150374061Y-109271816D01*
X148374061Y-109343244D02*
X148374061Y-108557530D01*
X148374061Y-108557530D02*
X148445489Y-108414673D01*
X148445489Y-108414673D02*
X148588346Y-108343244D01*
X148588346Y-108343244D02*
X148874061Y-108343244D01*
X148874061Y-108343244D02*
X149016918Y-108414673D01*
X148374061Y-109271816D02*
X148516918Y-109343244D01*
X148516918Y-109343244D02*
X148874061Y-109343244D01*
X148874061Y-109343244D02*
X149016918Y-109271816D01*
X149016918Y-109271816D02*
X149088346Y-109128958D01*
X149088346Y-109128958D02*
X149088346Y-108986101D01*
X149088346Y-108986101D02*
X149016918Y-108843244D01*
X149016918Y-108843244D02*
X148874061Y-108771816D01*
X148874061Y-108771816D02*
X148516918Y-108771816D01*
X148516918Y-108771816D02*
X148374061Y-108700387D01*
X147016918Y-109271816D02*
X147159775Y-109343244D01*
X147159775Y-109343244D02*
X147445489Y-109343244D01*
X147445489Y-109343244D02*
X147588346Y-109271816D01*
X147588346Y-109271816D02*
X147659775Y-109200387D01*
X147659775Y-109200387D02*
X147731203Y-109057530D01*
X147731203Y-109057530D02*
X147731203Y-108628958D01*
X147731203Y-108628958D02*
X147659775Y-108486101D01*
X147659775Y-108486101D02*
X147588346Y-108414673D01*
X147588346Y-108414673D02*
X147445489Y-108343244D01*
X147445489Y-108343244D02*
X147159775Y-108343244D01*
X147159775Y-108343244D02*
X147016918Y-108414673D01*
X146374061Y-109343244D02*
X146374061Y-108343244D01*
X146374061Y-107843244D02*
X146445489Y-107914673D01*
X146445489Y-107914673D02*
X146374061Y-107986101D01*
X146374061Y-107986101D02*
X146302632Y-107914673D01*
X146302632Y-107914673D02*
X146374061Y-107843244D01*
X146374061Y-107843244D02*
X146374061Y-107986101D01*
X145659775Y-108343244D02*
X145659775Y-109343244D01*
X145659775Y-108486101D02*
X145588346Y-108414673D01*
X145588346Y-108414673D02*
X145445489Y-108343244D01*
X145445489Y-108343244D02*
X145231203Y-108343244D01*
X145231203Y-108343244D02*
X145088346Y-108414673D01*
X145088346Y-108414673D02*
X145016918Y-108557530D01*
X145016918Y-108557530D02*
X145016918Y-109343244D01*
X143659775Y-108343244D02*
X143659775Y-109557530D01*
X143659775Y-109557530D02*
X143731203Y-109700387D01*
X143731203Y-109700387D02*
X143802632Y-109771816D01*
X143802632Y-109771816D02*
X143945489Y-109843244D01*
X143945489Y-109843244D02*
X144159775Y-109843244D01*
X144159775Y-109843244D02*
X144302632Y-109771816D01*
X143659775Y-109271816D02*
X143802632Y-109343244D01*
X143802632Y-109343244D02*
X144088346Y-109343244D01*
X144088346Y-109343244D02*
X144231203Y-109271816D01*
X144231203Y-109271816D02*
X144302632Y-109200387D01*
X144302632Y-109200387D02*
X144374060Y-109057530D01*
X144374060Y-109057530D02*
X144374060Y-108628958D01*
X144374060Y-108628958D02*
X144302632Y-108486101D01*
X144302632Y-108486101D02*
X144231203Y-108414673D01*
X144231203Y-108414673D02*
X144088346Y-108343244D01*
X144088346Y-108343244D02*
X143802632Y-108343244D01*
X143802632Y-108343244D02*
X143659775Y-108414673D01*
X157302632Y-110258160D02*
X157588346Y-110258160D01*
X157588346Y-110258160D02*
X157731203Y-110329589D01*
X157731203Y-110329589D02*
X157802632Y-110401017D01*
X157802632Y-110401017D02*
X157945489Y-110615303D01*
X157945489Y-110615303D02*
X158016917Y-110901017D01*
X158016917Y-110901017D02*
X158016917Y-111472446D01*
X158016917Y-111472446D02*
X157945489Y-111615303D01*
X157945489Y-111615303D02*
X157874060Y-111686732D01*
X157874060Y-111686732D02*
X157731203Y-111758160D01*
X157731203Y-111758160D02*
X157445489Y-111758160D01*
X157445489Y-111758160D02*
X157302632Y-111686732D01*
X157302632Y-111686732D02*
X157231203Y-111615303D01*
X157231203Y-111615303D02*
X157159774Y-111472446D01*
X157159774Y-111472446D02*
X157159774Y-111115303D01*
X157159774Y-111115303D02*
X157231203Y-110972446D01*
X157231203Y-110972446D02*
X157302632Y-110901017D01*
X157302632Y-110901017D02*
X157445489Y-110829589D01*
X157445489Y-110829589D02*
X157731203Y-110829589D01*
X157731203Y-110829589D02*
X157874060Y-110901017D01*
X157874060Y-110901017D02*
X157945489Y-110972446D01*
X157945489Y-110972446D02*
X158016917Y-111115303D01*
X155874061Y-110758160D02*
X155874061Y-111758160D01*
X156231203Y-110186732D02*
X156588346Y-111258160D01*
X156588346Y-111258160D02*
X155659775Y-111258160D01*
X155088347Y-111758160D02*
X155088347Y-110758160D01*
X155088347Y-110901017D02*
X155016918Y-110829589D01*
X155016918Y-110829589D02*
X154874061Y-110758160D01*
X154874061Y-110758160D02*
X154659775Y-110758160D01*
X154659775Y-110758160D02*
X154516918Y-110829589D01*
X154516918Y-110829589D02*
X154445490Y-110972446D01*
X154445490Y-110972446D02*
X154445490Y-111758160D01*
X154445490Y-110972446D02*
X154374061Y-110829589D01*
X154374061Y-110829589D02*
X154231204Y-110758160D01*
X154231204Y-110758160D02*
X154016918Y-110758160D01*
X154016918Y-110758160D02*
X153874061Y-110829589D01*
X153874061Y-110829589D02*
X153802632Y-110972446D01*
X153802632Y-110972446D02*
X153802632Y-111758160D01*
X153088347Y-111758160D02*
X153088347Y-110758160D01*
X153088347Y-110901017D02*
X153016918Y-110829589D01*
X153016918Y-110829589D02*
X152874061Y-110758160D01*
X152874061Y-110758160D02*
X152659775Y-110758160D01*
X152659775Y-110758160D02*
X152516918Y-110829589D01*
X152516918Y-110829589D02*
X152445490Y-110972446D01*
X152445490Y-110972446D02*
X152445490Y-111758160D01*
X152445490Y-110972446D02*
X152374061Y-110829589D01*
X152374061Y-110829589D02*
X152231204Y-110758160D01*
X152231204Y-110758160D02*
X152016918Y-110758160D01*
X152016918Y-110758160D02*
X151874061Y-110829589D01*
X151874061Y-110829589D02*
X151802632Y-110972446D01*
X151802632Y-110972446D02*
X151802632Y-111758160D01*
X150088347Y-111758160D02*
X149302633Y-110758160D01*
X150088347Y-110758160D02*
X149302633Y-111758160D01*
X147659775Y-110401017D02*
X147588347Y-110329589D01*
X147588347Y-110329589D02*
X147445490Y-110258160D01*
X147445490Y-110258160D02*
X147088347Y-110258160D01*
X147088347Y-110258160D02*
X146945490Y-110329589D01*
X146945490Y-110329589D02*
X146874061Y-110401017D01*
X146874061Y-110401017D02*
X146802632Y-110543874D01*
X146802632Y-110543874D02*
X146802632Y-110686732D01*
X146802632Y-110686732D02*
X146874061Y-110901017D01*
X146874061Y-110901017D02*
X147731204Y-111758160D01*
X147731204Y-111758160D02*
X146802632Y-111758160D01*
X146088347Y-111758160D02*
X145802633Y-111758160D01*
X145802633Y-111758160D02*
X145659776Y-111686732D01*
X145659776Y-111686732D02*
X145588347Y-111615303D01*
X145588347Y-111615303D02*
X145445490Y-111401017D01*
X145445490Y-111401017D02*
X145374061Y-111115303D01*
X145374061Y-111115303D02*
X145374061Y-110543874D01*
X145374061Y-110543874D02*
X145445490Y-110401017D01*
X145445490Y-110401017D02*
X145516919Y-110329589D01*
X145516919Y-110329589D02*
X145659776Y-110258160D01*
X145659776Y-110258160D02*
X145945490Y-110258160D01*
X145945490Y-110258160D02*
X146088347Y-110329589D01*
X146088347Y-110329589D02*
X146159776Y-110401017D01*
X146159776Y-110401017D02*
X146231204Y-110543874D01*
X146231204Y-110543874D02*
X146231204Y-110901017D01*
X146231204Y-110901017D02*
X146159776Y-111043874D01*
X146159776Y-111043874D02*
X146088347Y-111115303D01*
X146088347Y-111115303D02*
X145945490Y-111186732D01*
X145945490Y-111186732D02*
X145659776Y-111186732D01*
X145659776Y-111186732D02*
X145516919Y-111115303D01*
X145516919Y-111115303D02*
X145445490Y-111043874D01*
X145445490Y-111043874D02*
X145374061Y-110901017D01*
X144731205Y-111758160D02*
X144731205Y-110758160D01*
X144731205Y-110901017D02*
X144659776Y-110829589D01*
X144659776Y-110829589D02*
X144516919Y-110758160D01*
X144516919Y-110758160D02*
X144302633Y-110758160D01*
X144302633Y-110758160D02*
X144159776Y-110829589D01*
X144159776Y-110829589D02*
X144088348Y-110972446D01*
X144088348Y-110972446D02*
X144088348Y-111758160D01*
X144088348Y-110972446D02*
X144016919Y-110829589D01*
X144016919Y-110829589D02*
X143874062Y-110758160D01*
X143874062Y-110758160D02*
X143659776Y-110758160D01*
X143659776Y-110758160D02*
X143516919Y-110829589D01*
X143516919Y-110829589D02*
X143445490Y-110972446D01*
X143445490Y-110972446D02*
X143445490Y-111758160D01*
X142731205Y-111758160D02*
X142731205Y-110758160D01*
X142731205Y-110901017D02*
X142659776Y-110829589D01*
X142659776Y-110829589D02*
X142516919Y-110758160D01*
X142516919Y-110758160D02*
X142302633Y-110758160D01*
X142302633Y-110758160D02*
X142159776Y-110829589D01*
X142159776Y-110829589D02*
X142088348Y-110972446D01*
X142088348Y-110972446D02*
X142088348Y-111758160D01*
X142088348Y-110972446D02*
X142016919Y-110829589D01*
X142016919Y-110829589D02*
X141874062Y-110758160D01*
X141874062Y-110758160D02*
X141659776Y-110758160D01*
X141659776Y-110758160D02*
X141516919Y-110829589D01*
X141516919Y-110829589D02*
X141445490Y-110972446D01*
X141445490Y-110972446D02*
X141445490Y-111758160D01*
X124016917Y-103443685D02*
X123945489Y-103372257D01*
X123945489Y-103372257D02*
X123802632Y-103300828D01*
X123802632Y-103300828D02*
X123445489Y-103300828D01*
X123445489Y-103300828D02*
X123302632Y-103372257D01*
X123302632Y-103372257D02*
X123231203Y-103443685D01*
X123231203Y-103443685D02*
X123159774Y-103586542D01*
X123159774Y-103586542D02*
X123159774Y-103729400D01*
X123159774Y-103729400D02*
X123231203Y-103943685D01*
X123231203Y-103943685D02*
X124088346Y-104800828D01*
X124088346Y-104800828D02*
X123159774Y-104800828D01*
X122445489Y-104800828D02*
X122159775Y-104800828D01*
X122159775Y-104800828D02*
X122016918Y-104729400D01*
X122016918Y-104729400D02*
X121945489Y-104657971D01*
X121945489Y-104657971D02*
X121802632Y-104443685D01*
X121802632Y-104443685D02*
X121731203Y-104157971D01*
X121731203Y-104157971D02*
X121731203Y-103586542D01*
X121731203Y-103586542D02*
X121802632Y-103443685D01*
X121802632Y-103443685D02*
X121874061Y-103372257D01*
X121874061Y-103372257D02*
X122016918Y-103300828D01*
X122016918Y-103300828D02*
X122302632Y-103300828D01*
X122302632Y-103300828D02*
X122445489Y-103372257D01*
X122445489Y-103372257D02*
X122516918Y-103443685D01*
X122516918Y-103443685D02*
X122588346Y-103586542D01*
X122588346Y-103586542D02*
X122588346Y-103943685D01*
X122588346Y-103943685D02*
X122516918Y-104086542D01*
X122516918Y-104086542D02*
X122445489Y-104157971D01*
X122445489Y-104157971D02*
X122302632Y-104229400D01*
X122302632Y-104229400D02*
X122016918Y-104229400D01*
X122016918Y-104229400D02*
X121874061Y-104157971D01*
X121874061Y-104157971D02*
X121802632Y-104086542D01*
X121802632Y-104086542D02*
X121731203Y-103943685D01*
X121088347Y-104800828D02*
X121088347Y-103800828D01*
X121088347Y-103943685D02*
X121016918Y-103872257D01*
X121016918Y-103872257D02*
X120874061Y-103800828D01*
X120874061Y-103800828D02*
X120659775Y-103800828D01*
X120659775Y-103800828D02*
X120516918Y-103872257D01*
X120516918Y-103872257D02*
X120445490Y-104015114D01*
X120445490Y-104015114D02*
X120445490Y-104800828D01*
X120445490Y-104015114D02*
X120374061Y-103872257D01*
X120374061Y-103872257D02*
X120231204Y-103800828D01*
X120231204Y-103800828D02*
X120016918Y-103800828D01*
X120016918Y-103800828D02*
X119874061Y-103872257D01*
X119874061Y-103872257D02*
X119802632Y-104015114D01*
X119802632Y-104015114D02*
X119802632Y-104800828D01*
X119088347Y-104800828D02*
X119088347Y-103800828D01*
X119088347Y-103943685D02*
X119016918Y-103872257D01*
X119016918Y-103872257D02*
X118874061Y-103800828D01*
X118874061Y-103800828D02*
X118659775Y-103800828D01*
X118659775Y-103800828D02*
X118516918Y-103872257D01*
X118516918Y-103872257D02*
X118445490Y-104015114D01*
X118445490Y-104015114D02*
X118445490Y-104800828D01*
X118445490Y-104015114D02*
X118374061Y-103872257D01*
X118374061Y-103872257D02*
X118231204Y-103800828D01*
X118231204Y-103800828D02*
X118016918Y-103800828D01*
X118016918Y-103800828D02*
X117874061Y-103872257D01*
X117874061Y-103872257D02*
X117802632Y-104015114D01*
X117802632Y-104015114D02*
X117802632Y-104800828D01*
X151302632Y-91050828D02*
X151588346Y-91050828D01*
X151588346Y-91050828D02*
X151731203Y-91122257D01*
X151731203Y-91122257D02*
X151802632Y-91193685D01*
X151802632Y-91193685D02*
X151945489Y-91407971D01*
X151945489Y-91407971D02*
X152016917Y-91693685D01*
X152016917Y-91693685D02*
X152016917Y-92265114D01*
X152016917Y-92265114D02*
X151945489Y-92407971D01*
X151945489Y-92407971D02*
X151874060Y-92479400D01*
X151874060Y-92479400D02*
X151731203Y-92550828D01*
X151731203Y-92550828D02*
X151445489Y-92550828D01*
X151445489Y-92550828D02*
X151302632Y-92479400D01*
X151302632Y-92479400D02*
X151231203Y-92407971D01*
X151231203Y-92407971D02*
X151159774Y-92265114D01*
X151159774Y-92265114D02*
X151159774Y-91907971D01*
X151159774Y-91907971D02*
X151231203Y-91765114D01*
X151231203Y-91765114D02*
X151302632Y-91693685D01*
X151302632Y-91693685D02*
X151445489Y-91622257D01*
X151445489Y-91622257D02*
X151731203Y-91622257D01*
X151731203Y-91622257D02*
X151874060Y-91693685D01*
X151874060Y-91693685D02*
X151945489Y-91765114D01*
X151945489Y-91765114D02*
X152016917Y-91907971D01*
X149874061Y-91550828D02*
X149874061Y-92550828D01*
X150231203Y-90979400D02*
X150588346Y-92050828D01*
X150588346Y-92050828D02*
X149659775Y-92050828D01*
X149088347Y-92550828D02*
X149088347Y-91550828D01*
X149088347Y-91693685D02*
X149016918Y-91622257D01*
X149016918Y-91622257D02*
X148874061Y-91550828D01*
X148874061Y-91550828D02*
X148659775Y-91550828D01*
X148659775Y-91550828D02*
X148516918Y-91622257D01*
X148516918Y-91622257D02*
X148445490Y-91765114D01*
X148445490Y-91765114D02*
X148445490Y-92550828D01*
X148445490Y-91765114D02*
X148374061Y-91622257D01*
X148374061Y-91622257D02*
X148231204Y-91550828D01*
X148231204Y-91550828D02*
X148016918Y-91550828D01*
X148016918Y-91550828D02*
X147874061Y-91622257D01*
X147874061Y-91622257D02*
X147802632Y-91765114D01*
X147802632Y-91765114D02*
X147802632Y-92550828D01*
X147088347Y-92550828D02*
X147088347Y-91550828D01*
X147088347Y-91693685D02*
X147016918Y-91622257D01*
X147016918Y-91622257D02*
X146874061Y-91550828D01*
X146874061Y-91550828D02*
X146659775Y-91550828D01*
X146659775Y-91550828D02*
X146516918Y-91622257D01*
X146516918Y-91622257D02*
X146445490Y-91765114D01*
X146445490Y-91765114D02*
X146445490Y-92550828D01*
X146445490Y-91765114D02*
X146374061Y-91622257D01*
X146374061Y-91622257D02*
X146231204Y-91550828D01*
X146231204Y-91550828D02*
X146016918Y-91550828D01*
X146016918Y-91550828D02*
X145874061Y-91622257D01*
X145874061Y-91622257D02*
X145802632Y-91765114D01*
X145802632Y-91765114D02*
X145802632Y-92550828D01*
X176195489Y-117885912D02*
X176195489Y-116385912D01*
X176195489Y-116385912D02*
X175838346Y-116385912D01*
X175838346Y-116385912D02*
X175624060Y-116457341D01*
X175624060Y-116457341D02*
X175481203Y-116600198D01*
X175481203Y-116600198D02*
X175409774Y-116743055D01*
X175409774Y-116743055D02*
X175338346Y-117028769D01*
X175338346Y-117028769D02*
X175338346Y-117243055D01*
X175338346Y-117243055D02*
X175409774Y-117528769D01*
X175409774Y-117528769D02*
X175481203Y-117671626D01*
X175481203Y-117671626D02*
X175624060Y-117814484D01*
X175624060Y-117814484D02*
X175838346Y-117885912D01*
X175838346Y-117885912D02*
X176195489Y-117885912D01*
X174124060Y-117814484D02*
X174266917Y-117885912D01*
X174266917Y-117885912D02*
X174552632Y-117885912D01*
X174552632Y-117885912D02*
X174695489Y-117814484D01*
X174695489Y-117814484D02*
X174766917Y-117671626D01*
X174766917Y-117671626D02*
X174766917Y-117100198D01*
X174766917Y-117100198D02*
X174695489Y-116957341D01*
X174695489Y-116957341D02*
X174552632Y-116885912D01*
X174552632Y-116885912D02*
X174266917Y-116885912D01*
X174266917Y-116885912D02*
X174124060Y-116957341D01*
X174124060Y-116957341D02*
X174052632Y-117100198D01*
X174052632Y-117100198D02*
X174052632Y-117243055D01*
X174052632Y-117243055D02*
X174766917Y-117385912D01*
X173481203Y-117814484D02*
X173338346Y-117885912D01*
X173338346Y-117885912D02*
X173052632Y-117885912D01*
X173052632Y-117885912D02*
X172909775Y-117814484D01*
X172909775Y-117814484D02*
X172838346Y-117671626D01*
X172838346Y-117671626D02*
X172838346Y-117600198D01*
X172838346Y-117600198D02*
X172909775Y-117457341D01*
X172909775Y-117457341D02*
X173052632Y-117385912D01*
X173052632Y-117385912D02*
X173266918Y-117385912D01*
X173266918Y-117385912D02*
X173409775Y-117314484D01*
X173409775Y-117314484D02*
X173481203Y-117171626D01*
X173481203Y-117171626D02*
X173481203Y-117100198D01*
X173481203Y-117100198D02*
X173409775Y-116957341D01*
X173409775Y-116957341D02*
X173266918Y-116885912D01*
X173266918Y-116885912D02*
X173052632Y-116885912D01*
X173052632Y-116885912D02*
X172909775Y-116957341D01*
X172195489Y-117885912D02*
X172195489Y-116885912D01*
X172195489Y-116385912D02*
X172266917Y-116457341D01*
X172266917Y-116457341D02*
X172195489Y-116528769D01*
X172195489Y-116528769D02*
X172124060Y-116457341D01*
X172124060Y-116457341D02*
X172195489Y-116385912D01*
X172195489Y-116385912D02*
X172195489Y-116528769D01*
X170838346Y-116885912D02*
X170838346Y-118100198D01*
X170838346Y-118100198D02*
X170909774Y-118243055D01*
X170909774Y-118243055D02*
X170981203Y-118314484D01*
X170981203Y-118314484D02*
X171124060Y-118385912D01*
X171124060Y-118385912D02*
X171338346Y-118385912D01*
X171338346Y-118385912D02*
X171481203Y-118314484D01*
X170838346Y-117814484D02*
X170981203Y-117885912D01*
X170981203Y-117885912D02*
X171266917Y-117885912D01*
X171266917Y-117885912D02*
X171409774Y-117814484D01*
X171409774Y-117814484D02*
X171481203Y-117743055D01*
X171481203Y-117743055D02*
X171552631Y-117600198D01*
X171552631Y-117600198D02*
X171552631Y-117171626D01*
X171552631Y-117171626D02*
X171481203Y-117028769D01*
X171481203Y-117028769D02*
X171409774Y-116957341D01*
X171409774Y-116957341D02*
X171266917Y-116885912D01*
X171266917Y-116885912D02*
X170981203Y-116885912D01*
X170981203Y-116885912D02*
X170838346Y-116957341D01*
X170124060Y-116885912D02*
X170124060Y-117885912D01*
X170124060Y-117028769D02*
X170052631Y-116957341D01*
X170052631Y-116957341D02*
X169909774Y-116885912D01*
X169909774Y-116885912D02*
X169695488Y-116885912D01*
X169695488Y-116885912D02*
X169552631Y-116957341D01*
X169552631Y-116957341D02*
X169481203Y-117100198D01*
X169481203Y-117100198D02*
X169481203Y-117885912D01*
X168195488Y-117814484D02*
X168338345Y-117885912D01*
X168338345Y-117885912D02*
X168624060Y-117885912D01*
X168624060Y-117885912D02*
X168766917Y-117814484D01*
X168766917Y-117814484D02*
X168838345Y-117671626D01*
X168838345Y-117671626D02*
X168838345Y-117100198D01*
X168838345Y-117100198D02*
X168766917Y-116957341D01*
X168766917Y-116957341D02*
X168624060Y-116885912D01*
X168624060Y-116885912D02*
X168338345Y-116885912D01*
X168338345Y-116885912D02*
X168195488Y-116957341D01*
X168195488Y-116957341D02*
X168124060Y-117100198D01*
X168124060Y-117100198D02*
X168124060Y-117243055D01*
X168124060Y-117243055D02*
X168838345Y-117385912D01*
X166838346Y-117885912D02*
X166838346Y-116385912D01*
X166838346Y-117814484D02*
X166981203Y-117885912D01*
X166981203Y-117885912D02*
X167266917Y-117885912D01*
X167266917Y-117885912D02*
X167409774Y-117814484D01*
X167409774Y-117814484D02*
X167481203Y-117743055D01*
X167481203Y-117743055D02*
X167552631Y-117600198D01*
X167552631Y-117600198D02*
X167552631Y-117171626D01*
X167552631Y-117171626D02*
X167481203Y-117028769D01*
X167481203Y-117028769D02*
X167409774Y-116957341D01*
X167409774Y-116957341D02*
X167266917Y-116885912D01*
X167266917Y-116885912D02*
X166981203Y-116885912D01*
X166981203Y-116885912D02*
X166838346Y-116957341D01*
X164981203Y-117885912D02*
X164981203Y-116385912D01*
X164981203Y-116957341D02*
X164838346Y-116885912D01*
X164838346Y-116885912D02*
X164552631Y-116885912D01*
X164552631Y-116885912D02*
X164409774Y-116957341D01*
X164409774Y-116957341D02*
X164338346Y-117028769D01*
X164338346Y-117028769D02*
X164266917Y-117171626D01*
X164266917Y-117171626D02*
X164266917Y-117600198D01*
X164266917Y-117600198D02*
X164338346Y-117743055D01*
X164338346Y-117743055D02*
X164409774Y-117814484D01*
X164409774Y-117814484D02*
X164552631Y-117885912D01*
X164552631Y-117885912D02*
X164838346Y-117885912D01*
X164838346Y-117885912D02*
X164981203Y-117814484D01*
X163766917Y-116885912D02*
X163409774Y-117885912D01*
X163052631Y-116885912D02*
X163409774Y-117885912D01*
X163409774Y-117885912D02*
X163552631Y-118243055D01*
X163552631Y-118243055D02*
X163624060Y-118314484D01*
X163624060Y-118314484D02*
X163766917Y-118385912D01*
X162481203Y-117743055D02*
X162409774Y-117814484D01*
X162409774Y-117814484D02*
X162481203Y-117885912D01*
X162481203Y-117885912D02*
X162552631Y-117814484D01*
X162552631Y-117814484D02*
X162481203Y-117743055D01*
X162481203Y-117743055D02*
X162481203Y-117885912D01*
X162481203Y-116957341D02*
X162409774Y-117028769D01*
X162409774Y-117028769D02*
X162481203Y-117100198D01*
X162481203Y-117100198D02*
X162552631Y-117028769D01*
X162552631Y-117028769D02*
X162481203Y-116957341D01*
X162481203Y-116957341D02*
X162481203Y-117100198D01*
X160695488Y-117814484D02*
X160481203Y-117885912D01*
X160481203Y-117885912D02*
X160124060Y-117885912D01*
X160124060Y-117885912D02*
X159981203Y-117814484D01*
X159981203Y-117814484D02*
X159909774Y-117743055D01*
X159909774Y-117743055D02*
X159838345Y-117600198D01*
X159838345Y-117600198D02*
X159838345Y-117457341D01*
X159838345Y-117457341D02*
X159909774Y-117314484D01*
X159909774Y-117314484D02*
X159981203Y-117243055D01*
X159981203Y-117243055D02*
X160124060Y-117171626D01*
X160124060Y-117171626D02*
X160409774Y-117100198D01*
X160409774Y-117100198D02*
X160552631Y-117028769D01*
X160552631Y-117028769D02*
X160624060Y-116957341D01*
X160624060Y-116957341D02*
X160695488Y-116814484D01*
X160695488Y-116814484D02*
X160695488Y-116671626D01*
X160695488Y-116671626D02*
X160624060Y-116528769D01*
X160624060Y-116528769D02*
X160552631Y-116457341D01*
X160552631Y-116457341D02*
X160409774Y-116385912D01*
X160409774Y-116385912D02*
X160052631Y-116385912D01*
X160052631Y-116385912D02*
X159838345Y-116457341D01*
X158552632Y-117814484D02*
X158695489Y-117885912D01*
X158695489Y-117885912D02*
X158981203Y-117885912D01*
X158981203Y-117885912D02*
X159124060Y-117814484D01*
X159124060Y-117814484D02*
X159195489Y-117743055D01*
X159195489Y-117743055D02*
X159266917Y-117600198D01*
X159266917Y-117600198D02*
X159266917Y-117171626D01*
X159266917Y-117171626D02*
X159195489Y-117028769D01*
X159195489Y-117028769D02*
X159124060Y-116957341D01*
X159124060Y-116957341D02*
X158981203Y-116885912D01*
X158981203Y-116885912D02*
X158695489Y-116885912D01*
X158695489Y-116885912D02*
X158552632Y-116957341D01*
X157695489Y-117885912D02*
X157838346Y-117814484D01*
X157838346Y-117814484D02*
X157909775Y-117743055D01*
X157909775Y-117743055D02*
X157981203Y-117600198D01*
X157981203Y-117600198D02*
X157981203Y-117171626D01*
X157981203Y-117171626D02*
X157909775Y-117028769D01*
X157909775Y-117028769D02*
X157838346Y-116957341D01*
X157838346Y-116957341D02*
X157695489Y-116885912D01*
X157695489Y-116885912D02*
X157481203Y-116885912D01*
X157481203Y-116885912D02*
X157338346Y-116957341D01*
X157338346Y-116957341D02*
X157266918Y-117028769D01*
X157266918Y-117028769D02*
X157195489Y-117171626D01*
X157195489Y-117171626D02*
X157195489Y-117600198D01*
X157195489Y-117600198D02*
X157266918Y-117743055D01*
X157266918Y-117743055D02*
X157338346Y-117814484D01*
X157338346Y-117814484D02*
X157481203Y-117885912D01*
X157481203Y-117885912D02*
X157695489Y-117885912D01*
X156766917Y-116885912D02*
X156195489Y-116885912D01*
X156552632Y-116385912D02*
X156552632Y-117671626D01*
X156552632Y-117671626D02*
X156481203Y-117814484D01*
X156481203Y-117814484D02*
X156338346Y-117885912D01*
X156338346Y-117885912D02*
X156195489Y-117885912D01*
X155909774Y-116885912D02*
X155338346Y-116885912D01*
X155695489Y-116385912D02*
X155695489Y-117671626D01*
X155695489Y-117671626D02*
X155624060Y-117814484D01*
X155624060Y-117814484D02*
X155481203Y-117885912D01*
X155481203Y-117885912D02*
X155338346Y-117885912D01*
X153838346Y-116385912D02*
X153481203Y-117885912D01*
X153481203Y-117885912D02*
X153195489Y-116814484D01*
X153195489Y-116814484D02*
X152909774Y-117885912D01*
X152909774Y-117885912D02*
X152552632Y-116385912D01*
X151981203Y-117885912D02*
X151981203Y-116885912D01*
X151981203Y-116385912D02*
X152052631Y-116457341D01*
X152052631Y-116457341D02*
X151981203Y-116528769D01*
X151981203Y-116528769D02*
X151909774Y-116457341D01*
X151909774Y-116457341D02*
X151981203Y-116385912D01*
X151981203Y-116385912D02*
X151981203Y-116528769D01*
X151052631Y-117885912D02*
X151195488Y-117814484D01*
X151195488Y-117814484D02*
X151266917Y-117671626D01*
X151266917Y-117671626D02*
X151266917Y-116385912D01*
X150266917Y-117885912D02*
X150409774Y-117814484D01*
X150409774Y-117814484D02*
X150481203Y-117671626D01*
X150481203Y-117671626D02*
X150481203Y-116385912D01*
X149695489Y-117885912D02*
X149695489Y-116885912D01*
X149695489Y-116385912D02*
X149766917Y-116457341D01*
X149766917Y-116457341D02*
X149695489Y-116528769D01*
X149695489Y-116528769D02*
X149624060Y-116457341D01*
X149624060Y-116457341D02*
X149695489Y-116385912D01*
X149695489Y-116385912D02*
X149695489Y-116528769D01*
X148338346Y-117885912D02*
X148338346Y-117100198D01*
X148338346Y-117100198D02*
X148409774Y-116957341D01*
X148409774Y-116957341D02*
X148552631Y-116885912D01*
X148552631Y-116885912D02*
X148838346Y-116885912D01*
X148838346Y-116885912D02*
X148981203Y-116957341D01*
X148338346Y-117814484D02*
X148481203Y-117885912D01*
X148481203Y-117885912D02*
X148838346Y-117885912D01*
X148838346Y-117885912D02*
X148981203Y-117814484D01*
X148981203Y-117814484D02*
X149052631Y-117671626D01*
X149052631Y-117671626D02*
X149052631Y-117528769D01*
X149052631Y-117528769D02*
X148981203Y-117385912D01*
X148981203Y-117385912D02*
X148838346Y-117314484D01*
X148838346Y-117314484D02*
X148481203Y-117314484D01*
X148481203Y-117314484D02*
X148338346Y-117243055D01*
X147624060Y-117885912D02*
X147624060Y-116885912D01*
X147624060Y-117028769D02*
X147552631Y-116957341D01*
X147552631Y-116957341D02*
X147409774Y-116885912D01*
X147409774Y-116885912D02*
X147195488Y-116885912D01*
X147195488Y-116885912D02*
X147052631Y-116957341D01*
X147052631Y-116957341D02*
X146981203Y-117100198D01*
X146981203Y-117100198D02*
X146981203Y-117885912D01*
X146981203Y-117100198D02*
X146909774Y-116957341D01*
X146909774Y-116957341D02*
X146766917Y-116885912D01*
X146766917Y-116885912D02*
X146552631Y-116885912D01*
X146552631Y-116885912D02*
X146409774Y-116957341D01*
X146409774Y-116957341D02*
X146338345Y-117100198D01*
X146338345Y-117100198D02*
X146338345Y-117885912D01*
X145695488Y-117814484D02*
X145552631Y-117885912D01*
X145552631Y-117885912D02*
X145266917Y-117885912D01*
X145266917Y-117885912D02*
X145124060Y-117814484D01*
X145124060Y-117814484D02*
X145052631Y-117671626D01*
X145052631Y-117671626D02*
X145052631Y-117600198D01*
X145052631Y-117600198D02*
X145124060Y-117457341D01*
X145124060Y-117457341D02*
X145266917Y-117385912D01*
X145266917Y-117385912D02*
X145481203Y-117385912D01*
X145481203Y-117385912D02*
X145624060Y-117314484D01*
X145624060Y-117314484D02*
X145695488Y-117171626D01*
X145695488Y-117171626D02*
X145695488Y-117100198D01*
X145695488Y-117100198D02*
X145624060Y-116957341D01*
X145624060Y-116957341D02*
X145481203Y-116885912D01*
X145481203Y-116885912D02*
X145266917Y-116885912D01*
X145266917Y-116885912D02*
X145124060Y-116957341D01*
X144195488Y-117885912D02*
X144338345Y-117814484D01*
X144338345Y-117814484D02*
X144409774Y-117743055D01*
X144409774Y-117743055D02*
X144481202Y-117600198D01*
X144481202Y-117600198D02*
X144481202Y-117171626D01*
X144481202Y-117171626D02*
X144409774Y-117028769D01*
X144409774Y-117028769D02*
X144338345Y-116957341D01*
X144338345Y-116957341D02*
X144195488Y-116885912D01*
X144195488Y-116885912D02*
X143981202Y-116885912D01*
X143981202Y-116885912D02*
X143838345Y-116957341D01*
X143838345Y-116957341D02*
X143766917Y-117028769D01*
X143766917Y-117028769D02*
X143695488Y-117171626D01*
X143695488Y-117171626D02*
X143695488Y-117600198D01*
X143695488Y-117600198D02*
X143766917Y-117743055D01*
X143766917Y-117743055D02*
X143838345Y-117814484D01*
X143838345Y-117814484D02*
X143981202Y-117885912D01*
X143981202Y-117885912D02*
X144195488Y-117885912D01*
X143052631Y-116885912D02*
X143052631Y-117885912D01*
X143052631Y-117028769D02*
X142981202Y-116957341D01*
X142981202Y-116957341D02*
X142838345Y-116885912D01*
X142838345Y-116885912D02*
X142624059Y-116885912D01*
X142624059Y-116885912D02*
X142481202Y-116957341D01*
X142481202Y-116957341D02*
X142409774Y-117100198D01*
X142409774Y-117100198D02*
X142409774Y-117885912D01*
X176266917Y-118943685D02*
X176195489Y-118872257D01*
X176195489Y-118872257D02*
X176052632Y-118800828D01*
X176052632Y-118800828D02*
X175695489Y-118800828D01*
X175695489Y-118800828D02*
X175552632Y-118872257D01*
X175552632Y-118872257D02*
X175481203Y-118943685D01*
X175481203Y-118943685D02*
X175409774Y-119086542D01*
X175409774Y-119086542D02*
X175409774Y-119229400D01*
X175409774Y-119229400D02*
X175481203Y-119443685D01*
X175481203Y-119443685D02*
X176338346Y-120300828D01*
X176338346Y-120300828D02*
X175409774Y-120300828D01*
X174481203Y-118800828D02*
X174338346Y-118800828D01*
X174338346Y-118800828D02*
X174195489Y-118872257D01*
X174195489Y-118872257D02*
X174124061Y-118943685D01*
X174124061Y-118943685D02*
X174052632Y-119086542D01*
X174052632Y-119086542D02*
X173981203Y-119372257D01*
X173981203Y-119372257D02*
X173981203Y-119729400D01*
X173981203Y-119729400D02*
X174052632Y-120015114D01*
X174052632Y-120015114D02*
X174124061Y-120157971D01*
X174124061Y-120157971D02*
X174195489Y-120229400D01*
X174195489Y-120229400D02*
X174338346Y-120300828D01*
X174338346Y-120300828D02*
X174481203Y-120300828D01*
X174481203Y-120300828D02*
X174624061Y-120229400D01*
X174624061Y-120229400D02*
X174695489Y-120157971D01*
X174695489Y-120157971D02*
X174766918Y-120015114D01*
X174766918Y-120015114D02*
X174838346Y-119729400D01*
X174838346Y-119729400D02*
X174838346Y-119372257D01*
X174838346Y-119372257D02*
X174766918Y-119086542D01*
X174766918Y-119086542D02*
X174695489Y-118943685D01*
X174695489Y-118943685D02*
X174624061Y-118872257D01*
X174624061Y-118872257D02*
X174481203Y-118800828D01*
X173409775Y-118943685D02*
X173338347Y-118872257D01*
X173338347Y-118872257D02*
X173195490Y-118800828D01*
X173195490Y-118800828D02*
X172838347Y-118800828D01*
X172838347Y-118800828D02*
X172695490Y-118872257D01*
X172695490Y-118872257D02*
X172624061Y-118943685D01*
X172624061Y-118943685D02*
X172552632Y-119086542D01*
X172552632Y-119086542D02*
X172552632Y-119229400D01*
X172552632Y-119229400D02*
X172624061Y-119443685D01*
X172624061Y-119443685D02*
X173481204Y-120300828D01*
X173481204Y-120300828D02*
X172552632Y-120300828D01*
X171266919Y-118800828D02*
X171552633Y-118800828D01*
X171552633Y-118800828D02*
X171695490Y-118872257D01*
X171695490Y-118872257D02*
X171766919Y-118943685D01*
X171766919Y-118943685D02*
X171909776Y-119157971D01*
X171909776Y-119157971D02*
X171981204Y-119443685D01*
X171981204Y-119443685D02*
X171981204Y-120015114D01*
X171981204Y-120015114D02*
X171909776Y-120157971D01*
X171909776Y-120157971D02*
X171838347Y-120229400D01*
X171838347Y-120229400D02*
X171695490Y-120300828D01*
X171695490Y-120300828D02*
X171409776Y-120300828D01*
X171409776Y-120300828D02*
X171266919Y-120229400D01*
X171266919Y-120229400D02*
X171195490Y-120157971D01*
X171195490Y-120157971D02*
X171124061Y-120015114D01*
X171124061Y-120015114D02*
X171124061Y-119657971D01*
X171124061Y-119657971D02*
X171195490Y-119515114D01*
X171195490Y-119515114D02*
X171266919Y-119443685D01*
X171266919Y-119443685D02*
X171409776Y-119372257D01*
X171409776Y-119372257D02*
X171695490Y-119372257D01*
X171695490Y-119372257D02*
X171838347Y-119443685D01*
X171838347Y-119443685D02*
X171909776Y-119515114D01*
X171909776Y-119515114D02*
X171981204Y-119657971D01*
%LPC*%
D12*
%TO.C,J_BOTTOM1*%
X123500000Y-112985100D03*
D13*
X126000000Y-112985100D03*
X128500000Y-112985100D03*
X131000000Y-112985100D03*
%TD*%
D14*
%TO.C,H1*%
X181000000Y-119000000D03*
%TD*%
D15*
%TO.C,J_BAT1*%
X181250000Y-110750000D03*
D16*
X181250000Y-112750000D03*
%TD*%
D17*
%TO.C,J2*%
X166710000Y-95420000D03*
D18*
X169250000Y-95420000D03*
X166710000Y-97960000D03*
X169250000Y-97960000D03*
X166710000Y-100500000D03*
X169250000Y-100500000D03*
%TD*%
D14*
%TO.C,H2*%
X117000000Y-119000000D03*
%TD*%
D19*
%TO.C,J_TOP1*%
X131000000Y-96000000D03*
D13*
X128500000Y-96000000D03*
X126000000Y-96000000D03*
X123500000Y-96000000D03*
%TD*%
D20*
%TO.C,J1*%
X178900000Y-101390000D03*
X178900000Y-95610000D03*
D21*
X178370000Y-102820000D03*
D22*
X182550000Y-102820000D03*
D21*
X178370000Y-94180000D03*
D22*
X182550000Y-94180000D03*
%TD*%
D14*
%TO.C,H3*%
X181000000Y-90000000D03*
%TD*%
%TO.C,H4*%
X117000000Y-90000000D03*
%TD*%
%LPD*%
M02*
