%TF.GenerationSoftware,KiCad,Pcbnew,10.0.4*%
%TF.CreationDate,2026-07-06T12:25:11-05:00*%
%TF.ProjectId,OpenWatts,4f70656e-5761-4747-9473-2e6b69636164,rev?*%
%TF.SameCoordinates,Original*%
%TF.FileFunction,Soldermask,Top*%
%TF.FilePolarity,Negative*%
%FSLAX46Y46*%
G04 Gerber Fmt 4.6, Leading zero omitted, Abs format (unit mm)*
G04 Created by KiCad (PCBNEW 10.0.4) date 2026-07-06 12:25:11*
%MOMM*%
%LPD*%
G01*
G04 APERTURE LIST*
G04 Aperture macros list*
%AMRoundRect*
0 Rectangle with rounded corners*
0 $1 Rounding radius*
0 $2 $3 $4 $5 $6 $7 $8 $9 X,Y pos of 4 corners*
0 Add a 4 corners polygon primitive as box body*
4,1,4,$2,$3,$4,$5,$6,$7,$8,$9,$2,$3,0*
0 Add four circle primitives for the rounded corners*
1,1,$1+$1,$2,$3*
1,1,$1+$1,$4,$5*
1,1,$1+$1,$6,$7*
1,1,$1+$1,$8,$9*
0 Add four rect primitives between the rounded corners*
20,1,$1+$1,$2,$3,$4,$5,0*
20,1,$1+$1,$4,$5,$6,$7,0*
20,1,$1+$1,$6,$7,$8,$9,0*
20,1,$1+$1,$8,$9,$2,$3,0*%
%AMFreePoly0*
4,1,6,0.725000,-0.725000,-0.725000,-0.725000,-0.725000,0.125000,-0.125000,0.725000,0.725000,0.725000,0.725000,-0.725000,0.725000,-0.725000,$1*%
G04 Aperture macros list end*
%ADD10RoundRect,0.200000X0.200000X0.275000X-0.200000X0.275000X-0.200000X-0.275000X0.200000X-0.275000X0*%
%ADD11RoundRect,0.150000X-0.150000X0.825000X-0.150000X-0.825000X0.150000X-0.825000X0.150000X0.825000X0*%
%ADD12RoundRect,0.150000X0.150000X-0.512500X0.150000X0.512500X-0.150000X0.512500X-0.150000X-0.512500X0*%
%ADD13RoundRect,0.225000X-0.225000X-0.250000X0.225000X-0.250000X0.225000X0.250000X-0.225000X0.250000X0*%
%ADD14RoundRect,0.250000X-0.600000X-0.725000X0.600000X-0.725000X0.600000X0.725000X-0.600000X0.725000X0*%
%ADD15O,1.700000X1.950000*%
%ADD16RoundRect,0.225000X-0.250000X0.225000X-0.250000X-0.225000X0.250000X-0.225000X0.250000X0.225000X0*%
%ADD17C,2.700000*%
%ADD18RoundRect,0.087500X-0.225000X-0.087500X0.225000X-0.087500X0.225000X0.087500X-0.225000X0.087500X0*%
%ADD19RoundRect,0.087500X-0.087500X-0.225000X0.087500X-0.225000X0.087500X0.225000X-0.087500X0.225000X0*%
%ADD20R,0.800000X0.400000*%
%ADD21R,0.400000X0.800000*%
%ADD22FreePoly0,0.000000*%
%ADD23R,1.450000X1.450000*%
%ADD24R,0.700000X0.700000*%
%ADD25RoundRect,0.250000X-0.475000X-0.250000X0.475000X-0.250000X0.475000X0.250000X-0.475000X0.250000X0*%
%ADD26RoundRect,0.250000X-0.625000X0.350000X-0.625000X-0.350000X0.625000X-0.350000X0.625000X0.350000X0*%
%ADD27O,1.750000X1.200000*%
%ADD28RoundRect,0.218750X0.218750X0.256250X-0.218750X0.256250X-0.218750X-0.256250X0.218750X-0.256250X0*%
%ADD29RoundRect,0.200000X-0.200000X-0.275000X0.200000X-0.275000X0.200000X0.275000X-0.200000X0.275000X0*%
%ADD30R,1.700000X1.700000*%
%ADD31C,1.700000*%
%ADD32RoundRect,0.250000X0.600000X0.725000X-0.600000X0.725000X-0.600000X-0.725000X0.600000X-0.725000X0*%
%ADD33RoundRect,0.225000X0.250000X-0.225000X0.250000X0.225000X-0.250000X0.225000X-0.250000X-0.225000X0*%
%ADD34C,0.650000*%
%ADD35RoundRect,0.150000X0.575000X-0.150000X0.575000X0.150000X-0.575000X0.150000X-0.575000X-0.150000X0*%
%ADD36RoundRect,0.075000X0.650000X-0.075000X0.650000X0.075000X-0.650000X0.075000X-0.650000X-0.075000X0*%
%ADD37O,2.100000X1.000000*%
%ADD38O,1.600000X1.000000*%
%ADD39RoundRect,0.150000X-0.150000X0.512500X-0.150000X-0.512500X0.150000X-0.512500X0.150000X0.512500X0*%
%ADD40RoundRect,0.200000X0.275000X-0.200000X0.275000X0.200000X-0.275000X0.200000X-0.275000X-0.200000X0*%
%ADD41RoundRect,0.200000X-0.275000X0.200000X-0.275000X-0.200000X0.275000X-0.200000X0.275000X0.200000X0*%
G04 APERTURE END LIST*
D10*
%TO.C,R6*%
X178816000Y-106250000D03*
X177166000Y-106250000D03*
%TD*%
D11*
%TO.C,U4*%
X132120000Y-101550000D03*
X130850000Y-101550000D03*
X129580000Y-101550000D03*
X128310000Y-101550000D03*
X127040000Y-101550000D03*
X125770000Y-101550000D03*
X124500000Y-101550000D03*
X123230000Y-101550000D03*
X123230000Y-106500000D03*
X124500000Y-106500000D03*
X125770000Y-106500000D03*
X127040000Y-106500000D03*
X128310000Y-106500000D03*
X129580000Y-106500000D03*
X130850000Y-106500000D03*
X132120000Y-106500000D03*
%TD*%
D12*
%TO.C,U1*%
X175100000Y-111500000D03*
X176050000Y-111500000D03*
X177000000Y-111500000D03*
X177000000Y-109225000D03*
X175100000Y-109225000D03*
%TD*%
D13*
%TO.C,C1*%
X175250000Y-113250000D03*
X176800000Y-113250000D03*
%TD*%
D14*
%TO.C,J_BOTTOM1*%
X123500000Y-112985100D03*
D15*
X126000000Y-112985100D03*
X128500000Y-112985100D03*
X131000000Y-112985100D03*
%TD*%
D16*
%TO.C,C8*%
X173000000Y-101950000D03*
X173000000Y-103500000D03*
%TD*%
D17*
%TO.C,H1*%
X181000000Y-119000000D03*
%TD*%
D13*
%TO.C,C5*%
X134950000Y-100490000D03*
X136500000Y-100490000D03*
%TD*%
D18*
%TO.C,U6*%
X169137500Y-106050000D03*
X169137500Y-106550000D03*
X169137500Y-107050000D03*
X169137500Y-107550000D03*
D19*
X169800000Y-107712500D03*
X170300000Y-107712500D03*
X170800000Y-107712500D03*
D18*
X171462500Y-107550000D03*
X171462500Y-107050000D03*
X171462500Y-106550000D03*
X171462500Y-106050000D03*
D19*
X170800000Y-105887500D03*
X170300000Y-105887500D03*
X169800000Y-105887500D03*
%TD*%
D20*
%TO.C,U5*%
X149860000Y-94552000D03*
X149860000Y-95352000D03*
X149860000Y-96152000D03*
X149860000Y-96952000D03*
X149860000Y-97752000D03*
X149860000Y-98552000D03*
X149860000Y-99352000D03*
X149860000Y-100152000D03*
X149860000Y-100952000D03*
X149860000Y-101752000D03*
X149860000Y-102552000D03*
D21*
X150960000Y-103452000D03*
X151760000Y-103452000D03*
X152560000Y-103452000D03*
X153360000Y-103452000D03*
X154160000Y-103452000D03*
X154960000Y-103452000D03*
X155760000Y-103452000D03*
X156560000Y-103452000D03*
X157360000Y-103452000D03*
X158160000Y-103452000D03*
X158960000Y-103452000D03*
X159760000Y-103452000D03*
X160560000Y-103452000D03*
D20*
X161660000Y-102552000D03*
X161660000Y-101752000D03*
X161660000Y-100952000D03*
X161660000Y-100152000D03*
X161660000Y-99352000D03*
X161660000Y-98552000D03*
X161660000Y-97752000D03*
X161660000Y-96952000D03*
X161660000Y-96152000D03*
X161660000Y-95352000D03*
X161660000Y-94552000D03*
D21*
X160560000Y-93652000D03*
X159760000Y-93652000D03*
X158960000Y-93652000D03*
X158160000Y-93652000D03*
X157360000Y-93652000D03*
X156560000Y-93652000D03*
X155760000Y-93652000D03*
X154960000Y-93652000D03*
X154160000Y-93652000D03*
X153360000Y-93652000D03*
X152560000Y-93652000D03*
X151760000Y-93652000D03*
X150960000Y-93652000D03*
D22*
X153785000Y-96577000D03*
D23*
X153785000Y-98552000D03*
X153785000Y-100527000D03*
X155760000Y-96577000D03*
X155760000Y-98552000D03*
X155760000Y-100527000D03*
X157735000Y-96577000D03*
X157735000Y-98552000D03*
X157735000Y-100527000D03*
D24*
X161710000Y-93602000D03*
X161710000Y-103502000D03*
X149810000Y-103502000D03*
X149810000Y-93602000D03*
%TD*%
D25*
%TO.C,SW1*%
X161500000Y-112250000D03*
X166650000Y-112250000D03*
X161500000Y-113950000D03*
X166650000Y-113950000D03*
%TD*%
D26*
%TO.C,J_BAT1*%
X181250000Y-110750000D03*
D27*
X181250000Y-112750000D03*
%TD*%
D28*
%TO.C,D2*%
X182842500Y-106250000D03*
X181267500Y-106250000D03*
%TD*%
D29*
%TO.C,R_USB_BOT1*%
X173675000Y-94000000D03*
X175325000Y-94000000D03*
%TD*%
%TO.C,R9*%
X169546000Y-109728000D03*
X171196000Y-109728000D03*
%TD*%
D30*
%TO.C,J2*%
X166710000Y-95420000D03*
D31*
X169250000Y-95420000D03*
X166710000Y-97960000D03*
X169250000Y-97960000D03*
X166710000Y-100500000D03*
X169250000Y-100500000D03*
%TD*%
D10*
%TO.C,R7*%
X178816000Y-104750000D03*
X177166000Y-104750000D03*
%TD*%
D17*
%TO.C,H2*%
X117000000Y-119000000D03*
%TD*%
D28*
%TO.C,D3*%
X182842500Y-104726000D03*
X181267500Y-104726000D03*
%TD*%
D29*
%TO.C,R10*%
X169546000Y-111252000D03*
X171196000Y-111252000D03*
%TD*%
D25*
%TO.C,SW2*%
X161500000Y-117300000D03*
X166650000Y-117300000D03*
X161500000Y-119000000D03*
X166650000Y-119000000D03*
%TD*%
D32*
%TO.C,J_TOP1*%
X131000000Y-96000000D03*
D15*
X128500000Y-96000000D03*
X126000000Y-96000000D03*
X123500000Y-96000000D03*
%TD*%
D33*
%TO.C,C4*%
X173500000Y-119275000D03*
X173500000Y-117725000D03*
%TD*%
D10*
%TO.C,R_USB_TOP1*%
X175325000Y-95500000D03*
X173675000Y-95500000D03*
%TD*%
%TO.C,R5*%
X165825000Y-104500000D03*
X164175000Y-104500000D03*
%TD*%
%TO.C,R_BAT_TOP1*%
X173575000Y-114750000D03*
X171925000Y-114750000D03*
%TD*%
D34*
%TO.C,J1*%
X178900000Y-101390000D03*
X178900000Y-95610000D03*
D35*
X177455000Y-101750000D03*
X177455000Y-100950000D03*
D36*
X177455000Y-99750000D03*
X177455000Y-98750000D03*
X177455000Y-98250000D03*
X177455000Y-97250000D03*
D35*
X177455000Y-96050000D03*
X177455000Y-95250000D03*
X177455000Y-95250000D03*
X177455000Y-96050000D03*
D36*
X177455000Y-96750000D03*
X177455000Y-97750000D03*
X177455000Y-99250000D03*
X177455000Y-100250000D03*
D35*
X177455000Y-100950000D03*
X177455000Y-101750000D03*
D37*
X178370000Y-102820000D03*
D38*
X182550000Y-102820000D03*
D37*
X178370000Y-94180000D03*
D38*
X182550000Y-94180000D03*
%TD*%
D17*
%TO.C,H3*%
X181000000Y-90000000D03*
%TD*%
D39*
%TO.C,U2*%
X176950000Y-116862500D03*
X176000000Y-116862500D03*
X175050000Y-116862500D03*
X175050000Y-119137500D03*
X176950000Y-119137500D03*
%TD*%
D40*
%TO.C,R11*%
X173700000Y-107575000D03*
X173700000Y-105925000D03*
%TD*%
D41*
%TO.C,R3*%
X175250000Y-105925000D03*
X175250000Y-107575000D03*
%TD*%
D13*
%TO.C,C2*%
X175250000Y-114750000D03*
X176800000Y-114750000D03*
%TD*%
D10*
%TO.C,R4*%
X165825000Y-103000000D03*
X164175000Y-103000000D03*
%TD*%
D17*
%TO.C,H4*%
X117000000Y-90000000D03*
%TD*%
D33*
%TO.C,C3*%
X172000000Y-119275000D03*
X172000000Y-117725000D03*
%TD*%
D29*
%TO.C,R8*%
X164175000Y-106024000D03*
X165825000Y-106024000D03*
%TD*%
D13*
%TO.C,C6*%
X134950000Y-103000000D03*
X136500000Y-103000000D03*
%TD*%
D29*
%TO.C,R2*%
X173675000Y-97000000D03*
X175325000Y-97000000D03*
%TD*%
%TO.C,R1*%
X173425000Y-98500000D03*
X175075000Y-98500000D03*
%TD*%
%TO.C,R_BAT_BOT1*%
X171925000Y-113250000D03*
X173575000Y-113250000D03*
%TD*%
M02*
