%TF.GenerationSoftware,KiCad,Pcbnew,10.0.4*%
%TF.CreationDate,2026-07-06T12:25:11-05:00*%
%TF.ProjectId,OpenWatts,4f70656e-5761-4747-9473-2e6b69636164,rev?*%
%TF.SameCoordinates,Original*%
%TF.FileFunction,Copper,L2,Bot*%
%TF.FilePolarity,Positive*%
%FSLAX46Y46*%
G04 Gerber Fmt 4.6, Leading zero omitted, Abs format (unit mm)*
G04 Created by KiCad (PCBNEW 10.0.4) date 2026-07-06 12:25:11*
%MOMM*%
%LPD*%
G01*
G04 APERTURE LIST*
G04 Aperture macros list*
%AMRoundRect*
0 Rectangle with rounded corners*
0 $1 Rounding radius*
0 $2 $3 $4 $5 $6 $7 $8 $9 X,Y pos of 4 corners*
0 Add a 4 corners polygon primitive as box body*
4,1,4,$2,$3,$4,$5,$6,$7,$8,$9,$2,$3,0*
0 Add four circle primitives for the rounded corners*
1,1,$1+$1,$2,$3*
1,1,$1+$1,$4,$5*
1,1,$1+$1,$6,$7*
1,1,$1+$1,$8,$9*
0 Add four rect primitives between the rounded corners*
20,1,$1+$1,$2,$3,$4,$5,0*
20,1,$1+$1,$4,$5,$6,$7,0*
20,1,$1+$1,$6,$7,$8,$9,0*
20,1,$1+$1,$8,$9,$2,$3,0*%
G04 Aperture macros list end*
%TA.AperFunction,ComponentPad*%
%ADD10RoundRect,0.250000X-0.600000X-0.725000X0.600000X-0.725000X0.600000X0.725000X-0.600000X0.725000X0*%
%TD*%
%TA.AperFunction,ComponentPad*%
%ADD11O,1.700000X1.950000*%
%TD*%
%TA.AperFunction,ComponentPad*%
%ADD12RoundRect,0.250000X-0.625000X0.350000X-0.625000X-0.350000X0.625000X-0.350000X0.625000X0.350000X0*%
%TD*%
%TA.AperFunction,ComponentPad*%
%ADD13O,1.750000X1.200000*%
%TD*%
%TA.AperFunction,ComponentPad*%
%ADD14R,1.700000X1.700000*%
%TD*%
%TA.AperFunction,ComponentPad*%
%ADD15C,1.700000*%
%TD*%
%TA.AperFunction,ComponentPad*%
%ADD16RoundRect,0.250000X0.600000X0.725000X-0.600000X0.725000X-0.600000X-0.725000X0.600000X-0.725000X0*%
%TD*%
%TA.AperFunction,ComponentPad*%
%ADD17O,2.100000X1.000000*%
%TD*%
%TA.AperFunction,ComponentPad*%
%ADD18O,1.600000X1.000000*%
%TD*%
%TA.AperFunction,ViaPad*%
%ADD19C,0.600000*%
%TD*%
%TA.AperFunction,Conductor*%
%ADD20C,0.200000*%
%TD*%
G04 APERTURE END LIST*
D10*
%TO.P,J_BOTTOM1,1,Pin_1_1*%
%TO.N,/A+*%
X123500000Y-112985100D03*
D11*
%TO.P,J_BOTTOM1,2,Pin_2_2*%
%TO.N,/GND*%
X126000000Y-112985100D03*
%TO.P,J_BOTTOM1,3,Pin_3_3*%
%TO.N,/A-*%
X128500000Y-112985100D03*
%TO.P,J_BOTTOM1,4,Pin_4_4*%
%TO.N,/GND*%
X131000000Y-112985100D03*
%TD*%
D12*
%TO.P,J_BAT1,1,Pin_1_1*%
%TO.N,/VBAT*%
X181250000Y-110750000D03*
D13*
%TO.P,J_BAT1,2,Pin_2_2*%
%TO.N,/GND*%
X181250000Y-112750000D03*
%TD*%
D14*
%TO.P,J2,1,Pin_1_1*%
%TO.N,/+3V3*%
X166710000Y-95420000D03*
D15*
%TO.P,J2,2,Pin_2_2*%
%TO.N,/UART_TX*%
X169250000Y-95420000D03*
%TO.P,J2,3,Pin_3_3*%
%TO.N,/GND*%
X166710000Y-97960000D03*
%TO.P,J2,4,Pin_4_4*%
%TO.N,/UART_RX*%
X169250000Y-97960000D03*
%TO.P,J2,5,Pin_5_5*%
%TO.N,/EN*%
X166710000Y-100500000D03*
%TO.P,J2,6,Pin_6_6*%
%TO.N,/BOOT*%
X169250000Y-100500000D03*
%TD*%
D16*
%TO.P,J_TOP1,1,Pin_1_1*%
%TO.N,/+3V3*%
X131000000Y-96000000D03*
D11*
%TO.P,J_TOP1,2,Pin_2_2*%
%TO.N,/A+*%
X128500000Y-96000000D03*
%TO.P,J_TOP1,3,Pin_3_3*%
%TO.N,/+3V3*%
X126000000Y-96000000D03*
%TO.P,J_TOP1,4,Pin_4_4*%
%TO.N,/A-*%
X123500000Y-96000000D03*
%TD*%
D17*
%TO.P,J1,SH,SHIELD_SH*%
%TO.N,/GND*%
X178370000Y-102820000D03*
D18*
X182550000Y-102820000D03*
D17*
X178370000Y-94180000D03*
D18*
X182550000Y-94180000D03*
%TD*%
D19*
%TO.N,/+3V3*%
X176000000Y-118530100D03*
X168012500Y-102948700D03*
X158456600Y-94784400D03*
%TO.N,/GND*%
X168370400Y-106266400D03*
%TO.N,/A+*%
X123230000Y-102983900D03*
%TO.N,/CHG_STAT*%
X168385000Y-111552300D03*
X167101000Y-107287800D03*
%TO.N,/VBAT*%
X175937000Y-115536100D03*
%TO.N,/VBUS*%
X178902900Y-100130800D03*
X177775300Y-109464100D03*
%TO.N,/I2C_SDA*%
X162842500Y-103300100D03*
X160177600Y-107629000D03*
X158199400Y-102583800D03*
%TO.N,/USB_PRESENT*%
X151511700Y-102020900D03*
X170999500Y-94701200D03*
%TO.N,/GREEN_LED*%
X156242500Y-95290300D03*
X180304800Y-105499900D03*
%TO.N,/EN*%
X151582500Y-100357700D03*
X161275100Y-110998900D03*
%TO.N,/BAT_ADC*%
X156072600Y-104304700D03*
X165166000Y-114750000D03*
%TO.N,/BOOT*%
X164057800Y-119000000D03*
X163292300Y-105571500D03*
X159760000Y-102582400D03*
%TO.N,Net-(J1-CC1)*%
X174386900Y-99219700D03*
X176266500Y-100206900D03*
%TO.N,Net-(U5-GPIO2{slash}ADC1_CH2)*%
X150717700Y-96970700D03*
X172077100Y-108879000D03*
X157112200Y-108554700D03*
X169240300Y-108554700D03*
%TD*%
%TO.N,/+3V3*%
D20*
X168012500Y-97686500D02*
X168012500Y-99385400D01*
X127101700Y-96000000D02*
X127101700Y-95690200D01*
X126000000Y-96000000D02*
X127101700Y-96000000D01*
X169720200Y-99385400D02*
X168012500Y-99385400D01*
X128036800Y-94755100D02*
X129755100Y-94755100D01*
X166710000Y-96521700D02*
X166847700Y-96521700D01*
X170393500Y-103338000D02*
X170393500Y-100058700D01*
X167775300Y-105956200D02*
X170393500Y-103338000D01*
X164972700Y-94784400D02*
X165608300Y-95420000D01*
X166710000Y-95420000D02*
X166710000Y-96521700D01*
X170393500Y-100058700D02*
X169720200Y-99385400D01*
X176000000Y-118530100D02*
X176000000Y-118247300D01*
X176000000Y-118247300D02*
X167775300Y-110022600D01*
X166710000Y-95420000D02*
X165608300Y-95420000D01*
X168012500Y-99385400D02*
X168012500Y-102948700D01*
X129755100Y-94755100D02*
X131000000Y-96000000D01*
X127101700Y-95690200D02*
X128036800Y-94755100D01*
X166847700Y-96521700D02*
X168012500Y-97686500D01*
X167775300Y-110022600D02*
X167775300Y-105956200D01*
X158456600Y-94784400D02*
X164972700Y-94784400D01*
%TO.N,/GND*%
X178370000Y-102820000D02*
X171816800Y-102820000D01*
X129898300Y-112985100D02*
X129898300Y-113294900D01*
X127101700Y-113275900D02*
X127101700Y-112985100D01*
X182550000Y-102820000D02*
X181498300Y-102820000D01*
X181498300Y-103131400D02*
X181498300Y-102820000D01*
X129898300Y-113294900D02*
X128959700Y-114233500D01*
X181498300Y-94180000D02*
X181498300Y-102820000D01*
X182397200Y-104030300D02*
X181498300Y-103131400D01*
X128959700Y-114233500D02*
X128059300Y-114233500D01*
X171816800Y-102820000D02*
X168370400Y-106266400D01*
X181808900Y-111898300D02*
X182397200Y-111310000D01*
X181250000Y-111898300D02*
X181808900Y-111898300D01*
X126000000Y-112985100D02*
X127101700Y-112985100D01*
X182550000Y-94180000D02*
X181498300Y-94180000D01*
X128059300Y-114233500D02*
X127101700Y-113275900D01*
X182397200Y-111310000D02*
X182397200Y-104030300D01*
X181250000Y-112750000D02*
X181250000Y-111898300D01*
X131000000Y-112985100D02*
X129898300Y-112985100D01*
%TO.N,/A-*%
X122353500Y-113900500D02*
X122687100Y-114234100D01*
X125506800Y-111715700D02*
X127230600Y-111715700D01*
X124296900Y-114234100D02*
X124818700Y-113712300D01*
X123500000Y-96000000D02*
X122398300Y-96000000D01*
X127230600Y-111715700D02*
X128500000Y-112985100D01*
X122398300Y-96000000D02*
X122353500Y-96044800D01*
X122687100Y-114234100D02*
X124296900Y-114234100D01*
X124818700Y-112403800D02*
X125506800Y-111715700D01*
X122353500Y-96044800D02*
X122353500Y-113900500D01*
X124818700Y-113712300D02*
X124818700Y-112403800D01*
%TO.N,/A+*%
X123500000Y-102983900D02*
X123230000Y-102983900D01*
X123500000Y-102983900D02*
X123500000Y-101000000D01*
X123500000Y-112985100D02*
X123500000Y-102983900D01*
X123500000Y-101000000D02*
X128500000Y-96000000D01*
%TO.N,/CHG_STAT*%
X168385000Y-111552300D02*
X167101000Y-110268300D01*
X167101000Y-110268300D02*
X167101000Y-107287800D01*
%TO.N,/VBAT*%
X180723100Y-110750000D02*
X175937000Y-115536100D01*
X181250000Y-110750000D02*
X180723100Y-110750000D01*
%TO.N,/VBUS*%
X177775300Y-109464100D02*
X179736100Y-107503300D01*
X179736100Y-107503300D02*
X179736100Y-100964000D01*
X179736100Y-100964000D02*
X178902900Y-100130800D01*
%TO.N,/I2C_SDA*%
X158752600Y-102030600D02*
X158199400Y-102583800D01*
X162842500Y-103300100D02*
X161573000Y-102030600D01*
X158199400Y-105650800D02*
X160177600Y-107629000D01*
X158199400Y-102583800D02*
X158199400Y-105650800D01*
X161573000Y-102030600D02*
X158752600Y-102030600D01*
%TO.N,/USB_PRESENT*%
X170999500Y-94701200D02*
X170524000Y-94225700D01*
X158167500Y-94225700D02*
X152595200Y-99798000D01*
X151017700Y-101526900D02*
X151511700Y-102020900D01*
X152595200Y-99798000D02*
X151282100Y-99798000D01*
X170524000Y-94225700D02*
X158167500Y-94225700D01*
X151282100Y-99798000D02*
X151017700Y-100062400D01*
X151017700Y-100062400D02*
X151017700Y-101526900D01*
%TO.N,/GREEN_LED*%
X157658800Y-93874000D02*
X156242500Y-95290300D01*
X180304800Y-105499900D02*
X180304800Y-100697300D01*
X173481500Y-93874000D02*
X157658800Y-93874000D01*
X180304800Y-100697300D02*
X173481500Y-93874000D01*
%TO.N,/EN*%
X155356700Y-100357700D02*
X151582500Y-100357700D01*
X155499000Y-100500000D02*
X166710000Y-100500000D01*
X155499000Y-100500000D02*
X155356700Y-100357700D01*
X155499000Y-105222800D02*
X155499000Y-100500000D01*
X161275100Y-110998900D02*
X155499000Y-105222800D01*
%TO.N,/BAT_ADC*%
X165166000Y-114750000D02*
X165166000Y-113398100D01*
X165166000Y-113398100D02*
X156072600Y-104304700D01*
%TO.N,/BOOT*%
X165729900Y-105310200D02*
X165729900Y-117327900D01*
X165729900Y-105310200D02*
X163292300Y-105310200D01*
X166489900Y-105310200D02*
X165729900Y-105310200D01*
X163292300Y-105310200D02*
X163292300Y-105571500D01*
X169250000Y-100500000D02*
X169250000Y-102550100D01*
X165729900Y-117327900D02*
X164057800Y-119000000D01*
X162487800Y-105310200D02*
X159760000Y-102582400D01*
X163292300Y-105310200D02*
X162487800Y-105310200D01*
X169250000Y-102550100D02*
X166489900Y-105310200D01*
%TO.N,Net-(J1-CC1)*%
X174386900Y-99219700D02*
X175279300Y-99219700D01*
X175279300Y-99219700D02*
X176266500Y-100206900D01*
%TO.N,Net-(U5-GPIO2{slash}ADC1_CH2)*%
X171752800Y-108554700D02*
X169240300Y-108554700D01*
X150638500Y-102081000D02*
X157112200Y-108554700D01*
X172077100Y-108879000D02*
X171752800Y-108554700D01*
X150717700Y-96970700D02*
X150638500Y-97049900D01*
X150638500Y-97049900D02*
X150638500Y-102081000D01*
%TD*%
%TA.AperFunction,Conductor*%
%TO.N,/GND*%
G36*
X164739642Y-95404585D02*
G01*
X164760284Y-95421219D01*
X165123439Y-95784374D01*
X165123449Y-95784385D01*
X165127779Y-95788715D01*
X165127780Y-95788716D01*
X165239584Y-95900520D01*
X165297500Y-95933957D01*
X165345715Y-95984522D01*
X165359500Y-96041344D01*
X165359500Y-96317869D01*
X165359501Y-96317876D01*
X165365908Y-96377483D01*
X165416202Y-96512328D01*
X165416206Y-96512335D01*
X165502452Y-96627544D01*
X165502455Y-96627547D01*
X165617664Y-96713793D01*
X165617671Y-96713797D01*
X165662618Y-96730561D01*
X165752517Y-96764091D01*
X165812127Y-96770500D01*
X166088655Y-96770499D01*
X166155694Y-96790183D01*
X166196041Y-96832498D01*
X166229480Y-96890416D01*
X166341284Y-97002220D01*
X166341286Y-97002221D01*
X166341290Y-97002224D01*
X166476364Y-97080208D01*
X166478216Y-97081277D01*
X166555167Y-97101895D01*
X166610754Y-97133989D01*
X167375681Y-97898916D01*
X167409166Y-97960239D01*
X167412000Y-97986597D01*
X167412000Y-99139635D01*
X167392315Y-99206674D01*
X167339511Y-99252429D01*
X167270353Y-99262373D01*
X167231713Y-99250124D01*
X167228417Y-99248444D01*
X167062904Y-99194666D01*
X167026243Y-99182754D01*
X167026241Y-99182753D01*
X167026240Y-99182753D01*
X166864957Y-99157208D01*
X166816287Y-99149500D01*
X166603713Y-99149500D01*
X166555042Y-99157208D01*
X166393760Y-99182753D01*
X166191585Y-99248444D01*
X166002179Y-99344951D01*
X165830213Y-99469890D01*
X165679890Y-99620213D01*
X165554948Y-99792184D01*
X165554947Y-99792185D01*
X165534765Y-99831795D01*
X165486791Y-99882591D01*
X165424281Y-99899500D01*
X155796596Y-99899500D01*
X155780993Y-99895295D01*
X155767022Y-99895922D01*
X155746191Y-99885918D01*
X155734293Y-99882712D01*
X155726307Y-99878071D01*
X155725416Y-99877180D01*
X155626723Y-99820200D01*
X155588485Y-99798123D01*
X155435757Y-99757199D01*
X155277643Y-99757199D01*
X155270047Y-99757199D01*
X155270031Y-99757200D01*
X153784597Y-99757200D01*
X153717558Y-99737515D01*
X153671803Y-99684711D01*
X153661859Y-99615553D01*
X153690884Y-99551997D01*
X153696916Y-99545519D01*
X154644525Y-98597910D01*
X157808374Y-95434059D01*
X157869695Y-95400576D01*
X157939387Y-95405560D01*
X157964944Y-95418640D01*
X158077414Y-95493790D01*
X158077427Y-95493797D01*
X158175057Y-95534236D01*
X158223103Y-95554137D01*
X158377753Y-95584899D01*
X158377756Y-95584900D01*
X158377758Y-95584900D01*
X158535444Y-95584900D01*
X158535445Y-95584899D01*
X158690097Y-95554137D01*
X158816692Y-95501700D01*
X158835772Y-95493797D01*
X158835772Y-95493796D01*
X158835779Y-95493794D01*
X158835785Y-95493790D01*
X158967475Y-95405798D01*
X159034153Y-95384920D01*
X159036366Y-95384900D01*
X164672603Y-95384900D01*
X164739642Y-95404585D01*
G37*
%TD.AperFunction*%
%TA.AperFunction,Conductor*%
G36*
X149103039Y-87520185D02*
G01*
X149148794Y-87572989D01*
X149160000Y-87624500D01*
X149160000Y-92952000D01*
X162360000Y-92952000D01*
X162360000Y-89874038D01*
X179399500Y-89874038D01*
X179399500Y-90125961D01*
X179438910Y-90374785D01*
X179516760Y-90614383D01*
X179631132Y-90838848D01*
X179779201Y-91042649D01*
X179779205Y-91042654D01*
X179957345Y-91220794D01*
X179957350Y-91220798D01*
X180135117Y-91349952D01*
X180161155Y-91368870D01*
X180304184Y-91441747D01*
X180385616Y-91483239D01*
X180385618Y-91483239D01*
X180385621Y-91483241D01*
X180625215Y-91561090D01*
X180874038Y-91600500D01*
X180874039Y-91600500D01*
X181125961Y-91600500D01*
X181125962Y-91600500D01*
X181374785Y-91561090D01*
X181614379Y-91483241D01*
X181838845Y-91368870D01*
X182042656Y-91220793D01*
X182220793Y-91042656D01*
X182368870Y-90838845D01*
X182483241Y-90614379D01*
X182561090Y-90374785D01*
X182600500Y-90125962D01*
X182600500Y-89874038D01*
X182561090Y-89625215D01*
X182483241Y-89385621D01*
X182483239Y-89385618D01*
X182483239Y-89385616D01*
X182441747Y-89304184D01*
X182368870Y-89161155D01*
X182329396Y-89106823D01*
X182220798Y-88957350D01*
X182220794Y-88957345D01*
X182042654Y-88779205D01*
X182042649Y-88779201D01*
X181838848Y-88631132D01*
X181838847Y-88631131D01*
X181838845Y-88631130D01*
X181727147Y-88574217D01*
X181614383Y-88516760D01*
X181374785Y-88438910D01*
X181125962Y-88399500D01*
X180874038Y-88399500D01*
X180749626Y-88419205D01*
X180625214Y-88438910D01*
X180385616Y-88516760D01*
X180161151Y-88631132D01*
X179957350Y-88779201D01*
X179957345Y-88779205D01*
X179779205Y-88957345D01*
X179779201Y-88957350D01*
X179631132Y-89161151D01*
X179516760Y-89385616D01*
X179438910Y-89625214D01*
X179399500Y-89874038D01*
X162360000Y-89874038D01*
X162360000Y-87624500D01*
X162379685Y-87557461D01*
X162432489Y-87511706D01*
X162484000Y-87500500D01*
X180934108Y-87500500D01*
X180996249Y-87500500D01*
X181003736Y-87500726D01*
X181293796Y-87518271D01*
X181308657Y-87520075D01*
X181512661Y-87557461D01*
X181590797Y-87571780D01*
X181605334Y-87575363D01*
X181879182Y-87660698D01*
X181893163Y-87666000D01*
X182154734Y-87783724D01*
X182167987Y-87790680D01*
X182413458Y-87939071D01*
X182425776Y-87947573D01*
X182651573Y-88124474D01*
X182662781Y-88134404D01*
X182865595Y-88337218D01*
X182875525Y-88348426D01*
X183052422Y-88574217D01*
X183060928Y-88586541D01*
X183209319Y-88832012D01*
X183216277Y-88845269D01*
X183333994Y-89106823D01*
X183339304Y-89120825D01*
X183424635Y-89394664D01*
X183428219Y-89409202D01*
X183479923Y-89691340D01*
X183481728Y-89706205D01*
X183499274Y-89996263D01*
X183499500Y-90003750D01*
X183499500Y-118996249D01*
X183499274Y-119003736D01*
X183481728Y-119293794D01*
X183479923Y-119308659D01*
X183428219Y-119590797D01*
X183424635Y-119605335D01*
X183339304Y-119879174D01*
X183333994Y-119893176D01*
X183216277Y-120154730D01*
X183209319Y-120167987D01*
X183060928Y-120413458D01*
X183052422Y-120425782D01*
X182875525Y-120651573D01*
X182865595Y-120662781D01*
X182662781Y-120865595D01*
X182651573Y-120875525D01*
X182425782Y-121052422D01*
X182413458Y-121060928D01*
X182167987Y-121209319D01*
X182154730Y-121216277D01*
X181893176Y-121333994D01*
X181879174Y-121339304D01*
X181605335Y-121424635D01*
X181590797Y-121428219D01*
X181308659Y-121479923D01*
X181293794Y-121481728D01*
X181003736Y-121499274D01*
X180996249Y-121499500D01*
X117003751Y-121499500D01*
X116996264Y-121499274D01*
X116706205Y-121481728D01*
X116691340Y-121479923D01*
X116409202Y-121428219D01*
X116394664Y-121424635D01*
X116120825Y-121339304D01*
X116106827Y-121333995D01*
X115954096Y-121265256D01*
X115845269Y-121216277D01*
X115832012Y-121209319D01*
X115586541Y-121060928D01*
X115574217Y-121052422D01*
X115348426Y-120875525D01*
X115337218Y-120865595D01*
X115134404Y-120662781D01*
X115124474Y-120651573D01*
X115053584Y-120561089D01*
X114947573Y-120425776D01*
X114939071Y-120413458D01*
X114790680Y-120167987D01*
X114783722Y-120154730D01*
X114666000Y-119893163D01*
X114660698Y-119879182D01*
X114575363Y-119605334D01*
X114571780Y-119590797D01*
X114557026Y-119510288D01*
X114520075Y-119308657D01*
X114518271Y-119293794D01*
X114509687Y-119151889D01*
X114500726Y-119003736D01*
X114500500Y-118996249D01*
X114500500Y-118874038D01*
X115399500Y-118874038D01*
X115399500Y-119125962D01*
X115427268Y-119301281D01*
X115438910Y-119374785D01*
X115516760Y-119614383D01*
X115631132Y-119838848D01*
X115779201Y-120042649D01*
X115779205Y-120042654D01*
X115957345Y-120220794D01*
X115957350Y-120220798D01*
X116135117Y-120349952D01*
X116161155Y-120368870D01*
X116304184Y-120441747D01*
X116385616Y-120483239D01*
X116385618Y-120483239D01*
X116385621Y-120483241D01*
X116625215Y-120561090D01*
X116874038Y-120600500D01*
X116874039Y-120600500D01*
X117125961Y-120600500D01*
X117125962Y-120600500D01*
X117374785Y-120561090D01*
X117614379Y-120483241D01*
X117838845Y-120368870D01*
X118042656Y-120220793D01*
X118220793Y-120042656D01*
X118368870Y-119838845D01*
X118483241Y-119614379D01*
X118561090Y-119374785D01*
X118600500Y-119125962D01*
X118600500Y-118874038D01*
X118561090Y-118625215D01*
X118483241Y-118385621D01*
X118483239Y-118385618D01*
X118483239Y-118385616D01*
X118434826Y-118290602D01*
X118368870Y-118161155D01*
X118266175Y-118019807D01*
X118220798Y-117957350D01*
X118220794Y-117957345D01*
X118042654Y-117779205D01*
X118042649Y-117779201D01*
X117838848Y-117631132D01*
X117838847Y-117631131D01*
X117838845Y-117631130D01*
X117768747Y-117595413D01*
X117614383Y-117516760D01*
X117374785Y-117438910D01*
X117125962Y-117399500D01*
X116874038Y-117399500D01*
X116826957Y-117406957D01*
X116625214Y-117438910D01*
X116385616Y-117516760D01*
X116161151Y-117631132D01*
X115957350Y-117779201D01*
X115957345Y-117779205D01*
X115779205Y-117957345D01*
X115779201Y-117957350D01*
X115631132Y-118161151D01*
X115516760Y-118385616D01*
X115438910Y-118625214D01*
X115399500Y-118874038D01*
X114500500Y-118874038D01*
X114500500Y-113979554D01*
X121752998Y-113979554D01*
X121793923Y-114132285D01*
X121817739Y-114173535D01*
X121872980Y-114269216D01*
X121984784Y-114381020D01*
X121984785Y-114381021D01*
X122318384Y-114714620D01*
X122318386Y-114714621D01*
X122318390Y-114714624D01*
X122408006Y-114766363D01*
X122455316Y-114793677D01*
X122608043Y-114834601D01*
X122608045Y-114834601D01*
X122773754Y-114834601D01*
X122773770Y-114834600D01*
X124210231Y-114834600D01*
X124210247Y-114834601D01*
X124217843Y-114834601D01*
X124375954Y-114834601D01*
X124375957Y-114834601D01*
X124528685Y-114793677D01*
X124578804Y-114764739D01*
X124665616Y-114714620D01*
X124777420Y-114602816D01*
X124777421Y-114602814D01*
X125299220Y-114081016D01*
X125378277Y-113944084D01*
X125419201Y-113791357D01*
X125419201Y-113633242D01*
X125419201Y-113625647D01*
X125419200Y-113625629D01*
X125419200Y-112703897D01*
X125438885Y-112636858D01*
X125455519Y-112616216D01*
X125719216Y-112352519D01*
X125780539Y-112319034D01*
X125806897Y-112316200D01*
X126930503Y-112316200D01*
X126959943Y-112324844D01*
X126989930Y-112331368D01*
X126994945Y-112335122D01*
X126997542Y-112335885D01*
X127018184Y-112352519D01*
X127141738Y-112476073D01*
X127175223Y-112537396D01*
X127176530Y-112583152D01*
X127149500Y-112753813D01*
X127149500Y-113216387D01*
X127182754Y-113426343D01*
X127247506Y-113625629D01*
X127248444Y-113628514D01*
X127344951Y-113817920D01*
X127469890Y-113989886D01*
X127620213Y-114140209D01*
X127792179Y-114265148D01*
X127792181Y-114265149D01*
X127792184Y-114265151D01*
X127981588Y-114361657D01*
X128183757Y-114427346D01*
X128393713Y-114460600D01*
X128393714Y-114460600D01*
X128606286Y-114460600D01*
X128606287Y-114460600D01*
X128816243Y-114427346D01*
X129018412Y-114361657D01*
X129207816Y-114265151D01*
X129246187Y-114237273D01*
X129379786Y-114140209D01*
X129379788Y-114140206D01*
X129379792Y-114140204D01*
X129530104Y-113989892D01*
X129530106Y-113989888D01*
X129530109Y-113989886D01*
X129639086Y-113839889D01*
X129655051Y-113817916D01*
X129751557Y-113628512D01*
X129817246Y-113426343D01*
X129850500Y-113216387D01*
X129850500Y-112753813D01*
X129817246Y-112543857D01*
X129751557Y-112341688D01*
X129655051Y-112152284D01*
X129655049Y-112152281D01*
X129655048Y-112152279D01*
X129530109Y-111980313D01*
X129379786Y-111829990D01*
X129207820Y-111705051D01*
X129018414Y-111608544D01*
X129018413Y-111608543D01*
X129018412Y-111608543D01*
X128816243Y-111542854D01*
X128816241Y-111542853D01*
X128816240Y-111542853D01*
X128646202Y-111515922D01*
X128606287Y-111509600D01*
X128393713Y-111509600D01*
X128353798Y-111515922D01*
X128183760Y-111542853D01*
X128183757Y-111542854D01*
X128047129Y-111587247D01*
X127977290Y-111589242D01*
X127921132Y-111556997D01*
X127718190Y-111354055D01*
X127718188Y-111354052D01*
X127599317Y-111235181D01*
X127599309Y-111235175D01*
X127477250Y-111164705D01*
X127477250Y-111164704D01*
X127477246Y-111164703D01*
X127462385Y-111156123D01*
X127309657Y-111115199D01*
X127151543Y-111115199D01*
X127143947Y-111115199D01*
X127143931Y-111115200D01*
X125427740Y-111115200D01*
X125386819Y-111126164D01*
X125386819Y-111126165D01*
X125349551Y-111136151D01*
X125275014Y-111156123D01*
X125275009Y-111156126D01*
X125138090Y-111235175D01*
X125138082Y-111235181D01*
X125026278Y-111346986D01*
X124722856Y-111650407D01*
X124661533Y-111683892D01*
X124591841Y-111678908D01*
X124570079Y-111668265D01*
X124419340Y-111575289D01*
X124419335Y-111575287D01*
X124419334Y-111575286D01*
X124252797Y-111520101D01*
X124252795Y-111520100D01*
X124211896Y-111515922D01*
X124147205Y-111489525D01*
X124107054Y-111432344D01*
X124100500Y-111392564D01*
X124100500Y-101300096D01*
X124120185Y-101233057D01*
X124136814Y-101212420D01*
X127921133Y-97428100D01*
X127982454Y-97394617D01*
X128047126Y-97397851D01*
X128183757Y-97442246D01*
X128393713Y-97475500D01*
X128393714Y-97475500D01*
X128606286Y-97475500D01*
X128606287Y-97475500D01*
X128816243Y-97442246D01*
X129018412Y-97376557D01*
X129207816Y-97280051D01*
X129379792Y-97155104D01*
X129518604Y-97016291D01*
X129579923Y-96982809D01*
X129649615Y-96987793D01*
X129705549Y-97029664D01*
X129711821Y-97038878D01*
X129715185Y-97044333D01*
X129715186Y-97044334D01*
X129807288Y-97193656D01*
X129931344Y-97317712D01*
X130080666Y-97409814D01*
X130247203Y-97464999D01*
X130349991Y-97475500D01*
X131650008Y-97475499D01*
X131752797Y-97464999D01*
X131919334Y-97409814D01*
X132068656Y-97317712D01*
X132192712Y-97193656D01*
X132284814Y-97044334D01*
X132335341Y-96891853D01*
X149917200Y-96891853D01*
X149917200Y-97049546D01*
X149947961Y-97204189D01*
X149947964Y-97204201D01*
X150008302Y-97349872D01*
X150008308Y-97349883D01*
X150017100Y-97363040D01*
X150037980Y-97429717D01*
X150038000Y-97431934D01*
X150038000Y-101994330D01*
X150037999Y-101994348D01*
X150037999Y-102160054D01*
X150037998Y-102160054D01*
X150063276Y-102254389D01*
X150078923Y-102312785D01*
X150101573Y-102352015D01*
X150129326Y-102400085D01*
X150157979Y-102449715D01*
X150276849Y-102568585D01*
X150276855Y-102568590D01*
X156277625Y-108569360D01*
X156311110Y-108630683D01*
X156311561Y-108632849D01*
X156342461Y-108788191D01*
X156342464Y-108788201D01*
X156402802Y-108933872D01*
X156402809Y-108933885D01*
X156490410Y-109064988D01*
X156490413Y-109064992D01*
X156601907Y-109176486D01*
X156601911Y-109176489D01*
X156733014Y-109264090D01*
X156733027Y-109264097D01*
X156878698Y-109324435D01*
X156878703Y-109324437D01*
X157033353Y-109355199D01*
X157033356Y-109355200D01*
X157033358Y-109355200D01*
X157191044Y-109355200D01*
X157191045Y-109355199D01*
X157345697Y-109324437D01*
X157491379Y-109264094D01*
X157622489Y-109176489D01*
X157733989Y-109064989D01*
X157821594Y-108933879D01*
X157881937Y-108788197D01*
X157891964Y-108737784D01*
X157924348Y-108675877D01*
X157985063Y-108641302D01*
X158054833Y-108645041D01*
X158101262Y-108674297D01*
X160440525Y-111013560D01*
X160474010Y-111074883D01*
X160474461Y-111077049D01*
X160505361Y-111232391D01*
X160505364Y-111232401D01*
X160565702Y-111378072D01*
X160565709Y-111378085D01*
X160653310Y-111509188D01*
X160653313Y-111509192D01*
X160764807Y-111620686D01*
X160764811Y-111620689D01*
X160895914Y-111708290D01*
X160895927Y-111708297D01*
X161041598Y-111768635D01*
X161041603Y-111768637D01*
X161196253Y-111799399D01*
X161196256Y-111799400D01*
X161196258Y-111799400D01*
X161353944Y-111799400D01*
X161353945Y-111799399D01*
X161508597Y-111768637D01*
X161654279Y-111708294D01*
X161785389Y-111620689D01*
X161896889Y-111509189D01*
X161984494Y-111378079D01*
X162004931Y-111328738D01*
X162048770Y-111274335D01*
X162115064Y-111252269D01*
X162182763Y-111269547D01*
X162207173Y-111288509D01*
X164529181Y-113610516D01*
X164562666Y-113671839D01*
X164565500Y-113698197D01*
X164565500Y-114170234D01*
X164545815Y-114237273D01*
X164544602Y-114239125D01*
X164456609Y-114370814D01*
X164456602Y-114370827D01*
X164396264Y-114516498D01*
X164396261Y-114516510D01*
X164365500Y-114671153D01*
X164365500Y-114828846D01*
X164396261Y-114983489D01*
X164396264Y-114983501D01*
X164456602Y-115129172D01*
X164456609Y-115129185D01*
X164544210Y-115260288D01*
X164544213Y-115260292D01*
X164655707Y-115371786D01*
X164655711Y-115371789D01*
X164786814Y-115459390D01*
X164786827Y-115459397D01*
X164932498Y-115519735D01*
X164932503Y-115519737D01*
X165029591Y-115539049D01*
X165091502Y-115571433D01*
X165126076Y-115632149D01*
X165129400Y-115660666D01*
X165129400Y-117027803D01*
X165109715Y-117094842D01*
X165093081Y-117115484D01*
X164043139Y-118165425D01*
X163981816Y-118198910D01*
X163979650Y-118199361D01*
X163824308Y-118230261D01*
X163824298Y-118230264D01*
X163678627Y-118290602D01*
X163678614Y-118290609D01*
X163547511Y-118378210D01*
X163547507Y-118378213D01*
X163436013Y-118489707D01*
X163436010Y-118489711D01*
X163348409Y-118620814D01*
X163348402Y-118620827D01*
X163288064Y-118766498D01*
X163288061Y-118766510D01*
X163257300Y-118921153D01*
X163257300Y-119078846D01*
X163288061Y-119233489D01*
X163288064Y-119233501D01*
X163348402Y-119379172D01*
X163348409Y-119379185D01*
X163436010Y-119510288D01*
X163436013Y-119510292D01*
X163547507Y-119621786D01*
X163547511Y-119621789D01*
X163678614Y-119709390D01*
X163678627Y-119709397D01*
X163824298Y-119769735D01*
X163824303Y-119769737D01*
X163978953Y-119800499D01*
X163978956Y-119800500D01*
X163978958Y-119800500D01*
X164136644Y-119800500D01*
X164136645Y-119800499D01*
X164291297Y-119769737D01*
X164436979Y-119709394D01*
X164568089Y-119621789D01*
X164679589Y-119510289D01*
X164767194Y-119379179D01*
X164827537Y-119233497D01*
X164848927Y-119125961D01*
X164858438Y-119078150D01*
X164890823Y-119016239D01*
X164892320Y-119014714D01*
X166088406Y-117818627D01*
X166088411Y-117818624D01*
X166098614Y-117808420D01*
X166098616Y-117808420D01*
X166210420Y-117696616D01*
X166289477Y-117559684D01*
X166330400Y-117406957D01*
X166330400Y-110597356D01*
X166350085Y-110530317D01*
X166402889Y-110484562D01*
X166472047Y-110474618D01*
X166535603Y-110503643D01*
X166561785Y-110535354D01*
X166620479Y-110637014D01*
X166620481Y-110637017D01*
X166739349Y-110755885D01*
X166739355Y-110755890D01*
X167550425Y-111566960D01*
X167583910Y-111628283D01*
X167584361Y-111630449D01*
X167615261Y-111785791D01*
X167615264Y-111785801D01*
X167675602Y-111931472D01*
X167675609Y-111931485D01*
X167763210Y-112062588D01*
X167763213Y-112062592D01*
X167874707Y-112174086D01*
X167874711Y-112174089D01*
X168005814Y-112261690D01*
X168005827Y-112261697D01*
X168137411Y-112316200D01*
X168151503Y-112322037D01*
X168250295Y-112341688D01*
X168306153Y-112352799D01*
X168306156Y-112352800D01*
X168306158Y-112352800D01*
X168463844Y-112352800D01*
X168463845Y-112352799D01*
X168618497Y-112322037D01*
X168764179Y-112261694D01*
X168895289Y-112174089D01*
X168898738Y-112170639D01*
X168960055Y-112137153D01*
X169029747Y-112142133D01*
X169074102Y-112170637D01*
X175178386Y-118274921D01*
X175211871Y-118336244D01*
X175212323Y-118386793D01*
X175199500Y-118451260D01*
X175199500Y-118608946D01*
X175230261Y-118763589D01*
X175230264Y-118763601D01*
X175290602Y-118909272D01*
X175290609Y-118909285D01*
X175378210Y-119040388D01*
X175378213Y-119040392D01*
X175489707Y-119151886D01*
X175489711Y-119151889D01*
X175620814Y-119239490D01*
X175620827Y-119239497D01*
X175751914Y-119293794D01*
X175766503Y-119299837D01*
X175921153Y-119330599D01*
X175921156Y-119330600D01*
X175921158Y-119330600D01*
X176078844Y-119330600D01*
X176078845Y-119330599D01*
X176233497Y-119299837D01*
X176379179Y-119239494D01*
X176510289Y-119151889D01*
X176621789Y-119040389D01*
X176709394Y-118909279D01*
X176723991Y-118874038D01*
X179399500Y-118874038D01*
X179399500Y-119125962D01*
X179427268Y-119301281D01*
X179438910Y-119374785D01*
X179516760Y-119614383D01*
X179631132Y-119838848D01*
X179779201Y-120042649D01*
X179779205Y-120042654D01*
X179957345Y-120220794D01*
X179957350Y-120220798D01*
X180135117Y-120349952D01*
X180161155Y-120368870D01*
X180304184Y-120441747D01*
X180385616Y-120483239D01*
X180385618Y-120483239D01*
X180385621Y-120483241D01*
X180625215Y-120561090D01*
X180874038Y-120600500D01*
X180874039Y-120600500D01*
X181125961Y-120600500D01*
X181125962Y-120600500D01*
X181374785Y-120561090D01*
X181614379Y-120483241D01*
X181838845Y-120368870D01*
X182042656Y-120220793D01*
X182220793Y-120042656D01*
X182368870Y-119838845D01*
X182483241Y-119614379D01*
X182561090Y-119374785D01*
X182600500Y-119125962D01*
X182600500Y-118874038D01*
X182561090Y-118625215D01*
X182483241Y-118385621D01*
X182483239Y-118385618D01*
X182483239Y-118385616D01*
X182434826Y-118290602D01*
X182368870Y-118161155D01*
X182266175Y-118019807D01*
X182220798Y-117957350D01*
X182220794Y-117957345D01*
X182042654Y-117779205D01*
X182042649Y-117779201D01*
X181838848Y-117631132D01*
X181838847Y-117631131D01*
X181838845Y-117631130D01*
X181768747Y-117595413D01*
X181614383Y-117516760D01*
X181374785Y-117438910D01*
X181125962Y-117399500D01*
X180874038Y-117399500D01*
X180826957Y-117406957D01*
X180625214Y-117438910D01*
X180385616Y-117516760D01*
X180161151Y-117631132D01*
X179957350Y-117779201D01*
X179957345Y-117779205D01*
X179779205Y-117957345D01*
X179779201Y-117957350D01*
X179631132Y-118161151D01*
X179516760Y-118385616D01*
X179438910Y-118625214D01*
X179399500Y-118874038D01*
X176723991Y-118874038D01*
X176769737Y-118763597D01*
X176800500Y-118608942D01*
X176800500Y-118451258D01*
X176800500Y-118451255D01*
X176800499Y-118451253D01*
X176777622Y-118336244D01*
X176769737Y-118296603D01*
X176742259Y-118230264D01*
X176709397Y-118150927D01*
X176709390Y-118150914D01*
X176621789Y-118019811D01*
X176621786Y-118019807D01*
X176510294Y-117908315D01*
X176505583Y-117904449D01*
X176505814Y-117904166D01*
X176493435Y-117893909D01*
X176483561Y-117883851D01*
X176480520Y-117878584D01*
X176368716Y-117766780D01*
X176368713Y-117766778D01*
X174059188Y-115457253D01*
X175136500Y-115457253D01*
X175136500Y-115614946D01*
X175167261Y-115769589D01*
X175167264Y-115769601D01*
X175227602Y-115915272D01*
X175227609Y-115915285D01*
X175315210Y-116046388D01*
X175315213Y-116046392D01*
X175426707Y-116157886D01*
X175426711Y-116157889D01*
X175557814Y-116245490D01*
X175557827Y-116245497D01*
X175703498Y-116305835D01*
X175703503Y-116305837D01*
X175858153Y-116336599D01*
X175858156Y-116336600D01*
X175858158Y-116336600D01*
X176015844Y-116336600D01*
X176015845Y-116336599D01*
X176170497Y-116305837D01*
X176316179Y-116245494D01*
X176447289Y-116157889D01*
X176558789Y-116046389D01*
X176646394Y-115915279D01*
X176706737Y-115769597D01*
X176728405Y-115660666D01*
X176737638Y-115614250D01*
X176770023Y-115552339D01*
X176771518Y-115550816D01*
X180439733Y-111882601D01*
X180501054Y-111849118D01*
X180540011Y-111846926D01*
X180574991Y-111850500D01*
X181925008Y-111850499D01*
X182027797Y-111839999D01*
X182194334Y-111784814D01*
X182343656Y-111692712D01*
X182467712Y-111568656D01*
X182559814Y-111419334D01*
X182614999Y-111252797D01*
X182625500Y-111150009D01*
X182625499Y-110349992D01*
X182614999Y-110247203D01*
X182559814Y-110080666D01*
X182467712Y-109931344D01*
X182343656Y-109807288D01*
X182194334Y-109715186D01*
X182027797Y-109660001D01*
X182027795Y-109660000D01*
X181925010Y-109649500D01*
X180574998Y-109649500D01*
X180574981Y-109649501D01*
X180472203Y-109660000D01*
X180472200Y-109660001D01*
X180305668Y-109715185D01*
X180305663Y-109715187D01*
X180156342Y-109807289D01*
X180032289Y-109931342D01*
X179940187Y-110080663D01*
X179940186Y-110080666D01*
X179885001Y-110247203D01*
X179885001Y-110247204D01*
X179885000Y-110247204D01*
X179874500Y-110349983D01*
X179874500Y-110698001D01*
X179854815Y-110765040D01*
X179838181Y-110785682D01*
X175922339Y-114701525D01*
X175861016Y-114735010D01*
X175858850Y-114735461D01*
X175703508Y-114766361D01*
X175703498Y-114766364D01*
X175557827Y-114826702D01*
X175557814Y-114826709D01*
X175426711Y-114914310D01*
X175426707Y-114914313D01*
X175315213Y-115025807D01*
X175315210Y-115025811D01*
X175227609Y-115156914D01*
X175227602Y-115156927D01*
X175167264Y-115302598D01*
X175167261Y-115302610D01*
X175136500Y-115457253D01*
X174059188Y-115457253D01*
X168412119Y-109810184D01*
X168378634Y-109748861D01*
X168375800Y-109722503D01*
X168375800Y-109110520D01*
X168395485Y-109043481D01*
X168448289Y-108997726D01*
X168517447Y-108987782D01*
X168581003Y-109016807D01*
X168602902Y-109041629D01*
X168618510Y-109064988D01*
X168618513Y-109064992D01*
X168730007Y-109176486D01*
X168730011Y-109176489D01*
X168861114Y-109264090D01*
X168861127Y-109264097D01*
X169006798Y-109324435D01*
X169006803Y-109324437D01*
X169161453Y-109355199D01*
X169161456Y-109355200D01*
X169161458Y-109355200D01*
X169319144Y-109355200D01*
X169319145Y-109355199D01*
X169473797Y-109324437D01*
X169619479Y-109264094D01*
X169619485Y-109264090D01*
X169751175Y-109176098D01*
X169817853Y-109155220D01*
X169820066Y-109155200D01*
X171242197Y-109155200D01*
X171309236Y-109174885D01*
X171354991Y-109227689D01*
X171356746Y-109231721D01*
X171362241Y-109244986D01*
X171367705Y-109258178D01*
X171367709Y-109258185D01*
X171455310Y-109389288D01*
X171455313Y-109389292D01*
X171566807Y-109500786D01*
X171566811Y-109500789D01*
X171697914Y-109588390D01*
X171697927Y-109588397D01*
X171843598Y-109648735D01*
X171843603Y-109648737D01*
X171998253Y-109679499D01*
X171998256Y-109679500D01*
X171998258Y-109679500D01*
X172155944Y-109679500D01*
X172155945Y-109679499D01*
X172310597Y-109648737D01*
X172456279Y-109588394D01*
X172587389Y-109500789D01*
X172698889Y-109389289D01*
X172786494Y-109258179D01*
X172846837Y-109112497D01*
X172877600Y-108957842D01*
X172877600Y-108800158D01*
X172877600Y-108800155D01*
X172877599Y-108800153D01*
X172875220Y-108788191D01*
X172846837Y-108645503D01*
X172841596Y-108632849D01*
X172786497Y-108499827D01*
X172786490Y-108499814D01*
X172698889Y-108368711D01*
X172698886Y-108368707D01*
X172587392Y-108257213D01*
X172587388Y-108257210D01*
X172456285Y-108169609D01*
X172456272Y-108169602D01*
X172310601Y-108109264D01*
X172310589Y-108109261D01*
X172155949Y-108078500D01*
X172150105Y-108077925D01*
X172140045Y-108074692D01*
X172133031Y-108075027D01*
X172100264Y-108061910D01*
X172047908Y-108031683D01*
X172007198Y-108008179D01*
X171999304Y-108003621D01*
X171984586Y-107995123D01*
X171942402Y-107983820D01*
X171831857Y-107954199D01*
X171673743Y-107954199D01*
X171666147Y-107954199D01*
X171666131Y-107954200D01*
X169820066Y-107954200D01*
X169753027Y-107934515D01*
X169751175Y-107933302D01*
X169619485Y-107845309D01*
X169619472Y-107845302D01*
X169473801Y-107784964D01*
X169473789Y-107784961D01*
X169319145Y-107754200D01*
X169319142Y-107754200D01*
X169161458Y-107754200D01*
X169161455Y-107754200D01*
X169006810Y-107784961D01*
X169006798Y-107784964D01*
X168861127Y-107845302D01*
X168861114Y-107845309D01*
X168730011Y-107932910D01*
X168730007Y-107932913D01*
X168618513Y-108044407D01*
X168618508Y-108044414D01*
X168602901Y-108067771D01*
X168549288Y-108112576D01*
X168479963Y-108121282D01*
X168416936Y-108091126D01*
X168380218Y-108031683D01*
X168375800Y-107998879D01*
X168375800Y-106256296D01*
X168395485Y-106189257D01*
X168412114Y-106168620D01*
X170752006Y-103828727D01*
X170752011Y-103828724D01*
X170762214Y-103818520D01*
X170762216Y-103818520D01*
X170874020Y-103706716D01*
X170930882Y-103608227D01*
X170953077Y-103569785D01*
X170994001Y-103417057D01*
X170994001Y-103258943D01*
X170994001Y-103251348D01*
X170994000Y-103251330D01*
X170994000Y-100147759D01*
X170994001Y-100147746D01*
X170994001Y-99979645D01*
X170994001Y-99979643D01*
X170953077Y-99826915D01*
X170924139Y-99776795D01*
X170874020Y-99689984D01*
X170762216Y-99578180D01*
X170762215Y-99578179D01*
X170757885Y-99573849D01*
X170757874Y-99573839D01*
X170324888Y-99140853D01*
X173586400Y-99140853D01*
X173586400Y-99298546D01*
X173617161Y-99453189D01*
X173617164Y-99453201D01*
X173677502Y-99598872D01*
X173677509Y-99598885D01*
X173765110Y-99729988D01*
X173765113Y-99729992D01*
X173876607Y-99841486D01*
X173876611Y-99841489D01*
X174007714Y-99929090D01*
X174007727Y-99929097D01*
X174153398Y-99989435D01*
X174153403Y-99989437D01*
X174308053Y-100020199D01*
X174308056Y-100020200D01*
X174308058Y-100020200D01*
X174465744Y-100020200D01*
X174465745Y-100020199D01*
X174620397Y-99989437D01*
X174766079Y-99929094D01*
X174813665Y-99897298D01*
X174897775Y-99841098D01*
X174915821Y-99835447D01*
X174931731Y-99825223D01*
X174962692Y-99820771D01*
X174964453Y-99820220D01*
X174966666Y-99820200D01*
X174979203Y-99820200D01*
X175046242Y-99839885D01*
X175066884Y-99856519D01*
X175431925Y-100221560D01*
X175465410Y-100282883D01*
X175465861Y-100285049D01*
X175496761Y-100440391D01*
X175496764Y-100440401D01*
X175557102Y-100586072D01*
X175557109Y-100586085D01*
X175644710Y-100717188D01*
X175644713Y-100717192D01*
X175756207Y-100828686D01*
X175756211Y-100828689D01*
X175887314Y-100916290D01*
X175887327Y-100916297D01*
X176032998Y-100976635D01*
X176033003Y-100976637D01*
X176187653Y-101007399D01*
X176187656Y-101007400D01*
X176187658Y-101007400D01*
X176345344Y-101007400D01*
X176345345Y-101007399D01*
X176499997Y-100976637D01*
X176645679Y-100916294D01*
X176776789Y-100828689D01*
X176888289Y-100717189D01*
X176975894Y-100586079D01*
X176980228Y-100575617D01*
X177007418Y-100509972D01*
X177036237Y-100440397D01*
X177067000Y-100285742D01*
X177067000Y-100128058D01*
X177067000Y-100128055D01*
X177066999Y-100128053D01*
X177036237Y-99973403D01*
X177005626Y-99899500D01*
X176975897Y-99827727D01*
X176975890Y-99827714D01*
X176888289Y-99696611D01*
X176888286Y-99696607D01*
X176776792Y-99585113D01*
X176776788Y-99585110D01*
X176645685Y-99497509D01*
X176645672Y-99497502D01*
X176500001Y-99437164D01*
X176499991Y-99437161D01*
X176344651Y-99406262D01*
X176282741Y-99373877D01*
X176281162Y-99372326D01*
X175766890Y-98858055D01*
X175766888Y-98858052D01*
X175648017Y-98739181D01*
X175648016Y-98739180D01*
X175561204Y-98689060D01*
X175561204Y-98689059D01*
X175561200Y-98689058D01*
X175511085Y-98660123D01*
X175358357Y-98619199D01*
X175200243Y-98619199D01*
X175192647Y-98619199D01*
X175192631Y-98619200D01*
X174966666Y-98619200D01*
X174899627Y-98599515D01*
X174897775Y-98598302D01*
X174766085Y-98510309D01*
X174766072Y-98510302D01*
X174620401Y-98449964D01*
X174620389Y-98449961D01*
X174465745Y-98419200D01*
X174465742Y-98419200D01*
X174308058Y-98419200D01*
X174308055Y-98419200D01*
X174153410Y-98449961D01*
X174153398Y-98449964D01*
X174007727Y-98510302D01*
X174007714Y-98510309D01*
X173876611Y-98597910D01*
X173876607Y-98597913D01*
X173765113Y-98709407D01*
X173765110Y-98709411D01*
X173677509Y-98840514D01*
X173677502Y-98840527D01*
X173617164Y-98986198D01*
X173617161Y-98986210D01*
X173586400Y-99140853D01*
X170324888Y-99140853D01*
X170239646Y-99055611D01*
X170206161Y-98994288D01*
X170211145Y-98924596D01*
X170239645Y-98880250D01*
X170280104Y-98839792D01*
X170280106Y-98839788D01*
X170280109Y-98839786D01*
X170405048Y-98667820D01*
X170405047Y-98667820D01*
X170405051Y-98667816D01*
X170501557Y-98478412D01*
X170567246Y-98276243D01*
X170600500Y-98066287D01*
X170600500Y-97853713D01*
X170567246Y-97643757D01*
X170501557Y-97441588D01*
X170405051Y-97252184D01*
X170405049Y-97252181D01*
X170405048Y-97252179D01*
X170280109Y-97080213D01*
X170129786Y-96929890D01*
X169957820Y-96804951D01*
X169957115Y-96804591D01*
X169949054Y-96800485D01*
X169898259Y-96752512D01*
X169881463Y-96684692D01*
X169903999Y-96618556D01*
X169949054Y-96579515D01*
X169957816Y-96575051D01*
X170044138Y-96512335D01*
X170129786Y-96450109D01*
X170129788Y-96450106D01*
X170129792Y-96450104D01*
X170280104Y-96299792D01*
X170280106Y-96299788D01*
X170280109Y-96299786D01*
X170405048Y-96127820D01*
X170405047Y-96127820D01*
X170405051Y-96127816D01*
X170501557Y-95938412D01*
X170567246Y-95736243D01*
X170594310Y-95565366D01*
X170624239Y-95502233D01*
X170683550Y-95465301D01*
X170753413Y-95466299D01*
X170764228Y-95470201D01*
X170766003Y-95470937D01*
X170880892Y-95493790D01*
X170920653Y-95501699D01*
X170920656Y-95501700D01*
X170920658Y-95501700D01*
X171078344Y-95501700D01*
X171078345Y-95501699D01*
X171232997Y-95470937D01*
X171359254Y-95418640D01*
X171378672Y-95410597D01*
X171378672Y-95410596D01*
X171378679Y-95410594D01*
X171509789Y-95322989D01*
X171621289Y-95211489D01*
X171708894Y-95080379D01*
X171718662Y-95056798D01*
X171744170Y-94995214D01*
X171769237Y-94934697D01*
X171800000Y-94780042D01*
X171800000Y-94622358D01*
X171800000Y-94622355D01*
X171799403Y-94616293D01*
X171800649Y-94616170D01*
X171806295Y-94553098D01*
X171849158Y-94497922D01*
X171915048Y-94474678D01*
X171921684Y-94474500D01*
X173181403Y-94474500D01*
X173248442Y-94494185D01*
X173269084Y-94510819D01*
X178248271Y-99490006D01*
X178281756Y-99551329D01*
X178276772Y-99621021D01*
X178263693Y-99646577D01*
X178193508Y-99751616D01*
X178193502Y-99751627D01*
X178133164Y-99897298D01*
X178133161Y-99897310D01*
X178102400Y-100051953D01*
X178102400Y-100209646D01*
X178133161Y-100364289D01*
X178133164Y-100364301D01*
X178193502Y-100509972D01*
X178193509Y-100509985D01*
X178281110Y-100641088D01*
X178281113Y-100641092D01*
X178392607Y-100752586D01*
X178392615Y-100752592D01*
X178465351Y-100801193D01*
X178510157Y-100854805D01*
X178518864Y-100924130D01*
X178488710Y-100987157D01*
X178484144Y-100991975D01*
X178439485Y-101036635D01*
X178363719Y-101167863D01*
X178324500Y-101314234D01*
X178324500Y-101465765D01*
X178363719Y-101612136D01*
X178390207Y-101658014D01*
X178439485Y-101743365D01*
X178546635Y-101850515D01*
X178677865Y-101926281D01*
X178824234Y-101965500D01*
X178824236Y-101965500D01*
X178975764Y-101965500D01*
X178975766Y-101965500D01*
X178979505Y-101964498D01*
X178982782Y-101964575D01*
X178983822Y-101964439D01*
X178983843Y-101964601D01*
X179049354Y-101966159D01*
X179107218Y-102005321D01*
X179134723Y-102069549D01*
X179135600Y-102084272D01*
X179135600Y-107203203D01*
X179115915Y-107270242D01*
X179099281Y-107290884D01*
X177760639Y-108629525D01*
X177699316Y-108663010D01*
X177697150Y-108663461D01*
X177541808Y-108694361D01*
X177541798Y-108694364D01*
X177396127Y-108754702D01*
X177396114Y-108754709D01*
X177265011Y-108842310D01*
X177265007Y-108842313D01*
X177153513Y-108953807D01*
X177153510Y-108953811D01*
X177065909Y-109084914D01*
X177065902Y-109084927D01*
X177005564Y-109230598D01*
X177005561Y-109230610D01*
X176974800Y-109385253D01*
X176974800Y-109542946D01*
X177005561Y-109697589D01*
X177005564Y-109697601D01*
X177065902Y-109843272D01*
X177065909Y-109843285D01*
X177153510Y-109974388D01*
X177153513Y-109974392D01*
X177265007Y-110085886D01*
X177265011Y-110085889D01*
X177396114Y-110173490D01*
X177396127Y-110173497D01*
X177541798Y-110233835D01*
X177541803Y-110233837D01*
X177696453Y-110264599D01*
X177696456Y-110264600D01*
X177696458Y-110264600D01*
X177854144Y-110264600D01*
X177854145Y-110264599D01*
X178008797Y-110233837D01*
X178154479Y-110173494D01*
X178285589Y-110085889D01*
X178397089Y-109974389D01*
X178484694Y-109843279D01*
X178545037Y-109697597D01*
X178566760Y-109588390D01*
X178575938Y-109542250D01*
X178608323Y-109480339D01*
X178609819Y-109478815D01*
X180094606Y-107994027D01*
X180094611Y-107994024D01*
X180104814Y-107983820D01*
X180104816Y-107983820D01*
X180216620Y-107872016D01*
X180266880Y-107784963D01*
X180295677Y-107735085D01*
X180336601Y-107582357D01*
X180336601Y-107424243D01*
X180336601Y-107416648D01*
X180336600Y-107416630D01*
X180336600Y-106411521D01*
X180356285Y-106344482D01*
X180409089Y-106298727D01*
X180436409Y-106289904D01*
X180448522Y-106287494D01*
X180538297Y-106269637D01*
X180683979Y-106209294D01*
X180815089Y-106121689D01*
X180926589Y-106010189D01*
X181014194Y-105879079D01*
X181074537Y-105733397D01*
X181105300Y-105578742D01*
X181105300Y-105421058D01*
X181105300Y-105421055D01*
X181105299Y-105421053D01*
X181074538Y-105266410D01*
X181074537Y-105266403D01*
X181023730Y-105143743D01*
X181014197Y-105120727D01*
X181014190Y-105120714D01*
X180926198Y-104989025D01*
X180905320Y-104922347D01*
X180905300Y-104920134D01*
X180905300Y-100618243D01*
X180902096Y-100606288D01*
X180902095Y-100606283D01*
X180896681Y-100586079D01*
X180893878Y-100575616D01*
X180864377Y-100465516D01*
X180805939Y-100364297D01*
X180785324Y-100328590D01*
X180785321Y-100328586D01*
X180785320Y-100328584D01*
X180673516Y-100216780D01*
X180673515Y-100216779D01*
X180669185Y-100212449D01*
X180669174Y-100212439D01*
X175990969Y-95534234D01*
X178324500Y-95534234D01*
X178324500Y-95685765D01*
X178363719Y-95832136D01*
X178377604Y-95856185D01*
X178439485Y-95963365D01*
X178546635Y-96070515D01*
X178677865Y-96146281D01*
X178824234Y-96185500D01*
X178824236Y-96185500D01*
X178975764Y-96185500D01*
X178975766Y-96185500D01*
X179122135Y-96146281D01*
X179253365Y-96070515D01*
X179360515Y-95963365D01*
X179436281Y-95832135D01*
X179475500Y-95685766D01*
X179475500Y-95534234D01*
X179436281Y-95387865D01*
X179360515Y-95256635D01*
X179253365Y-95149485D01*
X179187750Y-95111602D01*
X179122136Y-95073719D01*
X179048950Y-95054109D01*
X178975766Y-95034500D01*
X178824234Y-95034500D01*
X178677863Y-95073719D01*
X178546635Y-95149485D01*
X178546632Y-95149487D01*
X178439487Y-95256632D01*
X178439485Y-95256635D01*
X178363719Y-95387863D01*
X178324500Y-95534234D01*
X175990969Y-95534234D01*
X173969090Y-93512355D01*
X173969088Y-93512352D01*
X173850217Y-93393481D01*
X173850216Y-93393480D01*
X173763404Y-93343360D01*
X173763404Y-93343359D01*
X173763400Y-93343358D01*
X173713285Y-93314423D01*
X173560557Y-93273499D01*
X173402443Y-93273499D01*
X173394847Y-93273499D01*
X173394831Y-93273500D01*
X157745470Y-93273500D01*
X157745454Y-93273499D01*
X157737858Y-93273499D01*
X157579743Y-93273499D01*
X157503379Y-93293961D01*
X157427014Y-93314423D01*
X157427009Y-93314426D01*
X157290090Y-93393475D01*
X157290082Y-93393481D01*
X156227839Y-94455725D01*
X156166516Y-94489210D01*
X156164350Y-94489661D01*
X156009008Y-94520561D01*
X156008998Y-94520564D01*
X155863327Y-94580902D01*
X155863314Y-94580909D01*
X155732211Y-94668510D01*
X155732207Y-94668513D01*
X155620713Y-94780007D01*
X155620710Y-94780011D01*
X155533109Y-94911114D01*
X155533102Y-94911127D01*
X155472764Y-95056798D01*
X155472761Y-95056810D01*
X155442000Y-95211453D01*
X155442000Y-95369146D01*
X155472761Y-95523789D01*
X155472764Y-95523801D01*
X155533102Y-95669472D01*
X155533112Y-95669490D01*
X155613305Y-95789508D01*
X155634183Y-95856185D01*
X155615698Y-95923565D01*
X155597884Y-95946079D01*
X152382784Y-99161181D01*
X152321461Y-99194666D01*
X152295103Y-99197500D01*
X151363000Y-99197500D01*
X151295961Y-99177815D01*
X151250206Y-99125011D01*
X151239000Y-99073500D01*
X151239000Y-97632840D01*
X151258685Y-97565801D01*
X151275314Y-97545163D01*
X151339489Y-97480989D01*
X151427094Y-97349879D01*
X151487437Y-97204197D01*
X151518200Y-97049542D01*
X151518200Y-96891858D01*
X151518200Y-96891855D01*
X151518199Y-96891853D01*
X151500913Y-96804951D01*
X151487437Y-96737203D01*
X151475271Y-96707832D01*
X151427097Y-96591527D01*
X151427090Y-96591514D01*
X151339489Y-96460411D01*
X151339486Y-96460407D01*
X151227992Y-96348913D01*
X151227988Y-96348910D01*
X151096885Y-96261309D01*
X151096872Y-96261302D01*
X150951201Y-96200964D01*
X150951189Y-96200961D01*
X150796545Y-96170200D01*
X150796542Y-96170200D01*
X150638858Y-96170200D01*
X150638855Y-96170200D01*
X150484210Y-96200961D01*
X150484198Y-96200964D01*
X150338527Y-96261302D01*
X150338514Y-96261309D01*
X150207411Y-96348910D01*
X150207407Y-96348913D01*
X150095913Y-96460407D01*
X150095910Y-96460411D01*
X150008309Y-96591514D01*
X150008302Y-96591527D01*
X149947964Y-96737198D01*
X149947961Y-96737210D01*
X149917200Y-96891853D01*
X132335341Y-96891853D01*
X132339999Y-96877797D01*
X132350500Y-96775009D01*
X132350499Y-95224992D01*
X132349116Y-95211458D01*
X132339999Y-95122203D01*
X132339998Y-95122200D01*
X132326140Y-95080379D01*
X132284814Y-94955666D01*
X132192712Y-94806344D01*
X132068656Y-94682288D01*
X131971489Y-94622355D01*
X131919336Y-94590187D01*
X131919331Y-94590185D01*
X131891329Y-94580906D01*
X131752797Y-94535001D01*
X131752795Y-94535000D01*
X131650016Y-94524500D01*
X131650009Y-94524500D01*
X130425097Y-94524500D01*
X130395656Y-94515855D01*
X130365670Y-94509332D01*
X130360654Y-94505577D01*
X130358058Y-94504815D01*
X130337416Y-94488181D01*
X130242690Y-94393455D01*
X130242688Y-94393452D01*
X130123817Y-94274581D01*
X130123809Y-94274575D01*
X130016211Y-94212454D01*
X130016210Y-94212453D01*
X130016210Y-94212454D01*
X129986885Y-94195523D01*
X129834157Y-94154599D01*
X129676043Y-94154599D01*
X129668447Y-94154599D01*
X129668431Y-94154600D01*
X127957743Y-94154600D01*
X127805013Y-94195523D01*
X127775690Y-94212454D01*
X127775689Y-94212454D01*
X127668087Y-94274577D01*
X127668082Y-94274581D01*
X127076461Y-94866203D01*
X127015138Y-94899688D01*
X126945446Y-94894704D01*
X126901099Y-94866203D01*
X126879786Y-94844890D01*
X126707820Y-94719951D01*
X126518414Y-94623444D01*
X126518413Y-94623443D01*
X126518412Y-94623443D01*
X126316243Y-94557754D01*
X126316241Y-94557753D01*
X126316240Y-94557753D01*
X126154957Y-94532208D01*
X126106287Y-94524500D01*
X125893713Y-94524500D01*
X125845042Y-94532208D01*
X125683760Y-94557753D01*
X125481585Y-94623444D01*
X125292179Y-94719951D01*
X125120213Y-94844890D01*
X124969894Y-94995209D01*
X124969890Y-94995214D01*
X124850318Y-95159793D01*
X124794989Y-95202459D01*
X124725375Y-95208438D01*
X124663580Y-95175833D01*
X124649682Y-95159793D01*
X124530109Y-94995214D01*
X124530105Y-94995209D01*
X124379786Y-94844890D01*
X124207820Y-94719951D01*
X124018414Y-94623444D01*
X124018413Y-94623443D01*
X124018412Y-94623443D01*
X123816243Y-94557754D01*
X123816241Y-94557753D01*
X123816240Y-94557753D01*
X123654957Y-94532208D01*
X123606287Y-94524500D01*
X123393713Y-94524500D01*
X123345042Y-94532208D01*
X123183760Y-94557753D01*
X122981585Y-94623444D01*
X122792179Y-94719951D01*
X122620213Y-94844890D01*
X122469890Y-94995213D01*
X122344949Y-95167182D01*
X122248442Y-95356589D01*
X122248442Y-95356590D01*
X122247221Y-95360348D01*
X122207780Y-95418021D01*
X122173342Y-95435671D01*
X122174023Y-95437314D01*
X122166509Y-95440426D01*
X122029590Y-95519475D01*
X122029582Y-95519481D01*
X121872981Y-95676082D01*
X121872979Y-95676085D01*
X121838249Y-95736241D01*
X121838248Y-95736243D01*
X121793923Y-95813014D01*
X121793923Y-95813015D01*
X121752999Y-95965743D01*
X121752999Y-96123857D01*
X121752999Y-96123859D01*
X121753000Y-96133858D01*
X121753000Y-113813830D01*
X121752999Y-113813848D01*
X121752999Y-113979554D01*
X121752998Y-113979554D01*
X114500500Y-113979554D01*
X114500500Y-90003750D01*
X114500726Y-89996263D01*
X114508119Y-89874038D01*
X115399500Y-89874038D01*
X115399500Y-90125961D01*
X115438910Y-90374785D01*
X115516760Y-90614383D01*
X115631132Y-90838848D01*
X115779201Y-91042649D01*
X115779205Y-91042654D01*
X115957345Y-91220794D01*
X115957350Y-91220798D01*
X116135117Y-91349952D01*
X116161155Y-91368870D01*
X116304184Y-91441747D01*
X116385616Y-91483239D01*
X116385618Y-91483239D01*
X116385621Y-91483241D01*
X116625215Y-91561090D01*
X116874038Y-91600500D01*
X116874039Y-91600500D01*
X117125961Y-91600500D01*
X117125962Y-91600500D01*
X117374785Y-91561090D01*
X117614379Y-91483241D01*
X117838845Y-91368870D01*
X118042656Y-91220793D01*
X118220793Y-91042656D01*
X118368870Y-90838845D01*
X118483241Y-90614379D01*
X118561090Y-90374785D01*
X118600500Y-90125962D01*
X118600500Y-89874038D01*
X118561090Y-89625215D01*
X118483241Y-89385621D01*
X118483239Y-89385618D01*
X118483239Y-89385616D01*
X118441747Y-89304184D01*
X118368870Y-89161155D01*
X118329396Y-89106823D01*
X118220798Y-88957350D01*
X118220794Y-88957345D01*
X118042654Y-88779205D01*
X118042649Y-88779201D01*
X117838848Y-88631132D01*
X117838847Y-88631131D01*
X117838845Y-88631130D01*
X117727147Y-88574217D01*
X117614383Y-88516760D01*
X117374785Y-88438910D01*
X117125962Y-88399500D01*
X116874038Y-88399500D01*
X116749626Y-88419205D01*
X116625214Y-88438910D01*
X116385616Y-88516760D01*
X116161151Y-88631132D01*
X115957350Y-88779201D01*
X115957345Y-88779205D01*
X115779205Y-88957345D01*
X115779201Y-88957350D01*
X115631132Y-89161151D01*
X115516760Y-89385616D01*
X115438910Y-89625214D01*
X115399500Y-89874038D01*
X114508119Y-89874038D01*
X114508867Y-89861679D01*
X114518271Y-89706205D01*
X114520076Y-89691340D01*
X114571780Y-89409202D01*
X114575364Y-89394664D01*
X114578182Y-89385621D01*
X114660699Y-89120812D01*
X114665997Y-89106842D01*
X114783727Y-88845258D01*
X114790680Y-88832012D01*
X114912115Y-88631132D01*
X114939075Y-88586534D01*
X114947567Y-88574230D01*
X115124481Y-88348417D01*
X115134396Y-88337226D01*
X115337226Y-88134396D01*
X115348417Y-88124481D01*
X115574230Y-87947567D01*
X115586534Y-87939075D01*
X115832012Y-87790680D01*
X115845258Y-87783727D01*
X116106842Y-87665997D01*
X116120812Y-87660699D01*
X116394668Y-87575362D01*
X116409198Y-87571780D01*
X116691344Y-87520075D01*
X116706201Y-87518271D01*
X116996264Y-87500726D01*
X117003751Y-87500500D01*
X117065892Y-87500500D01*
X149036000Y-87500500D01*
X149103039Y-87520185D01*
G37*
%TD.AperFunction*%
%TD*%
M02*
